<?xml version="1.0" encoding="UTF-8"?> <svg xmlns="http://www.w3.org/2000/svg" width="41" height="41" viewBox="0 0 41 41" fill="none"><path fill-rule="evenodd" clip-rule="evenodd" d="M35.6343 32.2767C35.6343 33.1971 34.8882 33.9433 33.9677 33.9433C33.0472 33.9433 32.301 33.1971 32.301 32.2767C32.301 31.3562 33.0472 30.61 33.9677 30.61C34.8882 30.61 35.6343 31.3562 35.6343 32.2767ZM9.63501 27.2768C9.63501 24.8836 11.5751 22.9435 13.9683 22.9435C16.3616 22.9435 18.3017 24.8836 18.3017 27.2768C18.3017 29.6701 16.3616 31.6102 13.9683 31.6102C11.5751 31.6102 9.63501 29.6701 9.63501 27.2768ZM13.9683 24.9435C12.6797 24.9435 11.635 25.9882 11.635 27.2768C11.635 28.5655 12.6797 29.6102 13.9683 29.6102C15.257 29.6102 16.3017 28.5655 16.3017 27.2768C16.3017 25.9882 15.257 24.9435 13.9683 24.9435ZM3.96899 2.94348C3.41671 2.94348 2.96899 3.39119 2.96899 3.94348C2.96899 4.49576 3.41671 4.94348 3.96899 4.94348H7.06965C8.1819 4.94348 9.13954 5.72855 9.35767 6.81921L10.0695 10.3784L11.1736 16.6348C6.45227 17.8717 2.96899 22.1673 2.96899 27.2765C2.96899 33.3516 7.89386 38.2765 13.969 38.2765C20.0441 38.2765 24.969 33.3516 24.969 27.2765C24.969 26.476 24.8835 25.6954 24.7211 24.9435H32.9683V26.3596C30.1309 26.8359 27.969 29.3037 27.969 32.2765C27.969 35.5902 30.6553 38.2765 33.969 38.2765C37.2827 38.2765 39.969 35.5902 39.969 32.2765C39.969 29.3033 37.8064 26.8352 34.9683 26.3594V23.9799C34.9686 23.9717 34.9688 23.9635 34.9689 23.9553C34.969 23.9514 34.969 23.9474 34.969 23.9435C34.969 23.9313 34.9688 23.9192 34.9683 23.9071V22.2768C34.9683 19.8836 33.0282 17.9435 30.635 17.9435H19.7937C18.1046 16.8871 16.1081 16.2765 13.969 16.2765C13.6923 16.2765 13.4181 16.2867 13.1466 16.3068L12.2442 11.1935H23.969C24.5213 11.1935 24.969 10.7458 24.969 10.1935C24.969 9.64119 24.5213 9.19348 23.969 9.19348H11.8721L11.3188 6.42697C10.9137 4.40147 9.13526 2.94348 7.06965 2.94348H3.96899ZM33.9175 28.2768H34.0204C36.2059 28.3044 37.969 30.0845 37.969 32.2765C37.969 34.4856 36.1781 36.2765 33.969 36.2765C31.7598 36.2765 29.969 34.4856 29.969 32.2765C29.969 30.0845 31.7321 28.3044 33.9175 28.2768ZM13.969 18.2765C8.99843 18.2765 4.96899 22.3059 4.96899 27.2765C4.96899 32.2471 8.99843 36.2765 13.969 36.2765C18.9395 36.2765 22.969 32.2471 22.969 27.2765C22.969 22.3059 18.9395 18.2765 13.969 18.2765ZM32.9683 22.2768V22.9435H24.0827C23.6086 21.8385 22.9588 20.8267 22.1683 19.9435H30.635C31.9237 19.9435 32.9683 20.9882 32.9683 22.2768Z" fill="#63666A"></path></svg> 