<?xml version="1.0" encoding="UTF-8"?> <svg xmlns="http://www.w3.org/2000/svg" width="41" height="41" viewBox="0 0 41 41" fill="none"><path fill-rule="evenodd" clip-rule="evenodd" d="M13.1321 6.05999H16.3678L16.3523 11.61H20.6059V7.72499H25.133V8.64999C25.133 9.64729 25.3777 13.5487 27.9135 16.7697L28.4365 16.204C27.2354 14.6106 26.5717 12.6787 26.2011 11.0312C25.7726 9.12645 25.7134 7.50103 25.7134 6.98499V4.20999H15.514C14.4907 4.20999 13.5152 5.02689 13.1321 6.05999ZM20.7613 13.46H16.3497V15.31C16.3497 16.6633 15.5774 17.4133 14.8556 17.9635C14.6404 18.1275 14.4282 18.2775 14.2177 18.4262C13.6789 18.807 13.1515 19.1796 12.6166 19.7581C11.9136 20.5184 11.5719 21.2866 11.4041 21.8501C11.3198 22.1332 11.2792 22.3655 11.2598 22.5193C11.2501 22.5961 11.2457 22.6529 11.2437 22.686C11.2428 22.7022 11.2424 22.7127 11.2423 22.717V34.92C11.2423 36.3382 12.3199 37.51 13.6412 37.51H24.3978C25.638 37.51 26.5646 36.4306 26.5646 34.92V25.4859C26.5646 25.4859 26.5646 25.485 27.4159 25.485L26.5646 25.4859V25.4685L26.565 25.4568L26.5652 25.4427C26.5653 25.428 26.5652 25.4021 26.5643 25.3661C26.5625 25.2938 26.5575 25.1812 26.544 25.036C26.5169 24.7449 26.4562 24.3278 26.3218 23.8451C26.0537 22.8824 25.4968 21.6713 24.3304 20.6573C22.8147 19.3397 21.897 17.2935 21.3615 15.682C21.0886 14.8607 20.9036 14.1173 20.7866 13.5784C20.7778 13.5378 20.7694 13.4983 20.7613 13.46ZM28.2671 25.4967V34.92C28.2671 37.2759 26.7329 39.36 24.3978 39.36H13.6412C11.3873 39.36 9.53979 37.3683 9.53979 34.92V22.71H10.391C9.5398 22.71 9.53979 22.71 9.53979 22.71V22.7082L9.5398 22.7062L9.53982 22.7017L9.53994 22.6906L9.5406 22.6603C9.54128 22.6365 9.54249 22.6056 9.54469 22.5681C9.5491 22.4932 9.55741 22.3917 9.5731 22.2676C9.60444 22.0197 9.66544 21.6797 9.78428 21.2805C10.0228 20.4796 10.4936 19.4441 11.4157 18.4469C12.0876 17.7202 12.8355 17.1924 13.4051 16.7903C13.5826 16.665 13.7427 16.552 13.8779 16.449C14.491 15.9817 14.6472 15.7142 14.6472 15.31V12.535L14.6473 12.5322L14.6601 7.90999H11.2589V6.98499C11.2589 4.54275 13.2545 2.35999 15.514 2.35999H27.4159V4.20999V6.05999V6.93299V6.98499C27.4159 7.39395 27.4666 8.86589 27.8549 10.5918C28.2456 12.3288 28.9562 14.2234 30.2126 15.5821L30.8188 16.2378L27.8895 19.4058L27.289 18.7564C24.3315 15.5579 23.6243 11.5513 23.4702 9.57499H22.3084V12.4561C22.3136 12.4878 22.3208 12.5302 22.3301 12.5825C22.3537 12.7151 22.3908 12.9106 22.4436 13.1537C22.5494 13.641 22.7169 14.314 22.9628 15.0536C23.4647 16.564 24.2494 18.2178 25.3939 19.2127C26.8876 20.5112 27.6076 22.0751 27.9513 23.3093C28.1228 23.925 28.2018 24.4619 28.2379 24.85C28.2559 25.0445 28.2634 25.2028 28.2662 25.3167C28.2676 25.3736 28.2678 25.4196 28.2676 25.4535C28.2675 25.4704 28.2673 25.4859 28.2671 25.4967ZM26.5646 28.4282H11.2423V26.718H26.5646V28.4282ZM26.5646 33.193H11.2423V31.343H26.5646V33.193ZM30.8373 2.35999H27.4159V4.20999H30.8373V6.05999H27.4159C27.4187 7.03698 27.4567 7.90999 27.4567 7.90999H30.8373C31.7776 7.90999 32.5398 7.08172 32.5398 6.05999V4.20999C32.5398 3.18826 31.7776 2.35999 30.8373 2.35999Z" fill="#63666A"></path></svg> 