<?xml version="1.0" encoding="UTF-8"?> <svg xmlns="http://www.w3.org/2000/svg" width="129" height="48" viewBox="0 0 129 48" fill="none"><rect width="129" height="48" fill="#EAE60E"></rect><path d="M12.94 0H35.06C39.56 0 41.19 0.47 42.83 1.35C44.458 2.21086 45.7891 3.54197 46.65 5.17C47.53 6.81 48 8.44 48 12.94V35.06C48 39.56 47.53 41.19 46.65 42.83C45.7891 44.458 44.458 45.7891 42.83 46.65C41.19 47.53 39.56 48 35.06 48H12.94C8.44 48 6.81 47.53 5.17 46.65C3.54197 45.7891 2.21086 44.458 1.35 42.83C0.469998 41.2 0 39.56 0 35.06V12.94C0 8.44 0.469998 6.81 1.35 5.17C2.21086 3.54197 3.54197 2.21086 5.17 1.35C6.81 0.47 8.44 0 12.94 0V0Z" fill="#EAE60E"></path><path d="M35.9891 9.73997C36.5947 9.74262 37.1746 9.98505 37.6019 10.4142C38.0292 10.8434 38.2691 11.4244 38.2691 12.03V17.71H43.0291V12.03C43.0291 8.12997 39.8691 4.96997 35.9891 4.96997H30.2891V9.73997H35.9891Z" fill="#63666A"></path><path d="M38.2691 36C38.2691 36.6047 38.0288 37.1847 37.6013 37.6123C37.1737 38.0398 36.5938 38.28 35.9891 38.28H30.2891V43.03H35.9891C37.8536 43.0274 39.6413 42.2862 40.9607 40.9687C42.2801 39.6512 43.0238 37.8646 43.0291 36V30.3H38.2691V36Z" fill="#63666A"></path><path d="M9.72875 12.03C9.72744 11.7292 9.78536 11.4312 9.89923 11.1529C10.0131 10.8745 10.1807 10.6213 10.3924 10.4078C10.6041 10.1942 10.8558 10.0244 11.1332 9.90811C11.4105 9.79181 11.708 9.73128 12.0088 9.72997H17.7087V4.96997H12.0088C10.1398 4.97527 8.34918 5.72142 7.0295 7.04486C5.70981 8.36829 4.96874 10.161 4.96875 12.03V17.71H9.72875V12.03Z" fill="#63666A"></path><path d="M12.0088 38.28C11.4049 38.2774 10.8265 38.0364 10.3995 37.6093C9.97244 37.1823 9.73138 36.6039 9.72875 36V30.3H4.96875V36C4.97404 37.8646 5.71777 39.6512 7.03716 40.9687C8.35656 42.2862 10.1442 43.0274 12.0088 43.03H17.7087V38.28H12.0088Z" fill="#63666A"></path><path d="M21.2598 35.4199L11.0898 25.2499L14.4498 21.8799L21.2498 28.6799L33.5499 16.3799L36.9099 19.7499L21.2598 35.4199Z" fill="#63666A"></path><path d="M67.1975 30.6699C67.8575 31.4299 68.1975 32.3499 68.1975 33.4299C68.1975 34.3099 67.9575 35.1299 67.4775 35.8799C66.9484 36.6849 66.1985 37.3203 65.3175 37.7099C64.3475 38.1699 63.1475 38.3999 61.7175 38.3999C60.6692 38.4001 59.6249 38.2725 58.6075 38.0199C57.6652 37.7958 56.7642 37.4246 55.9375 36.9199L57.4675 33.7499C58.6946 34.5474 60.1241 34.9776 61.5875 34.9899C62.3075 34.9899 62.8875 34.8499 63.3075 34.5899C63.7275 34.3099 63.9475 33.9299 63.9475 33.4299C63.9475 32.4699 63.1875 31.9799 61.6775 31.9799H59.9075V29.3099L62.5675 26.4299H56.7075V23.1699H67.4475V25.8199L64.3675 29.1399C65.5975 29.3999 66.5475 29.9099 67.2075 30.6699" fill="#63666A"></path><path d="M84.7378 23.1699V38.0699H80.5078V32.2599H74.7378V38.0599H70.5078V23.1799H74.7378V28.7799H80.5078V23.1799L84.7378 23.1699Z" fill="#63666A"></path><path d="M98.2406 23.6799C99.3026 24.2296 100.174 25.0869 100.741 26.1399C101.341 27.2099 101.631 28.4999 101.631 30.0099V38.0699H97.4006V34.7699H91.5606V38.0699H87.3906V29.9999C87.3906 28.4999 87.6906 27.1999 88.2806 26.1299C88.8474 25.0769 89.7187 24.2196 90.7806 23.6699C91.9372 23.091 93.2175 22.8027 94.5106 22.8299C95.9206 22.8299 97.1606 23.1099 98.2406 23.6699V23.6799ZM97.4006 31.4999V29.6399C97.4006 28.5499 97.1306 27.7299 96.6006 27.1699C96.327 26.891 95.9977 26.673 95.6341 26.53C95.2705 26.387 94.8809 26.3222 94.4906 26.3399C93.5906 26.3399 92.8806 26.6199 92.3506 27.1699C91.8306 27.7299 91.5606 28.5499 91.5606 29.6399V31.4999H97.4006Z" fill="#63666A"></path><path d="M108.47 30.9999V38.0699H104.27V23.1699H108.47V30.2299H108.57L113.81 23.1699H118.84L113.1 30.3699L119 38.0699H113.54L108.47 30.9999Z" fill="#63666A"></path><path d="M63.5594 10.9199V18.5399H60.9894V16.0999C60.4794 16.2499 60.0094 16.3299 59.5894 16.3299C58.4594 16.3299 57.5894 16.0699 56.9894 15.5299C56.4094 15.0099 56.1094 14.2299 56.1094 13.2199V10.9199H58.6694V12.9399C58.6694 13.3999 58.7694 13.7399 58.9794 13.9599C59.1794 14.1899 59.4994 14.2999 59.9194 14.2999C60.3594 14.2999 60.7194 14.2399 60.9894 14.1199V10.9199H63.5594Z" fill="#63666A"></path><path d="M71.497 16.5999V18.5399H65.207V10.9199H71.357V12.8599H67.717V13.7599H70.917V15.5999H67.717V16.5999H71.497Z" fill="#63666A"></path><path d="M74.7605 18.0301C74.1208 17.7089 73.5845 17.214 73.2131 16.602C72.8417 15.9901 72.6502 15.2859 72.6606 14.5701C72.6507 13.8531 72.8423 13.1478 73.2135 12.5343C73.5848 11.9208 74.1208 11.4239 74.7605 11.1001C75.4205 10.7601 76.1606 10.6001 76.9706 10.6001C77.7206 10.6001 78.3905 10.7201 78.9805 10.9801C79.5805 11.2401 80.0606 11.6201 80.4406 12.1101L78.8006 13.5601C78.6076 13.2873 78.3532 13.0636 78.0579 12.9073C77.7626 12.7509 77.4347 12.6663 77.1006 12.6601C76.5606 12.6601 76.1205 12.8401 75.7905 13.1801C75.4605 13.5301 75.2905 13.9801 75.2905 14.5701C75.2905 15.1401 75.4605 15.6101 75.7905 15.9501C76.1205 16.2901 76.5606 16.4601 77.1006 16.4601C77.7506 16.4601 78.3206 16.1601 78.8006 15.5801L80.4406 17.0201C80.0606 17.5101 79.5705 17.8901 78.9805 18.1501C78.3905 18.4101 77.7205 18.5401 76.9805 18.5401C76.1505 18.5401 75.4205 18.3701 74.7605 18.0401" fill="#63666A"></path><path d="M88.2195 12.9199H85.9995V18.5399H83.4895V12.9199H81.2695V10.9199H88.2195V12.9199Z" fill="#63666A"></path><path d="M96.9989 10.9199V18.5399H94.3889V15.7399H91.9889V18.5399H89.3789V10.9199H91.9789V13.6199H94.3789V10.9199H96.9989Z" fill="#63666A"></path><path d="M105.979 15.7799C105.979 16.6699 105.679 17.3499 105.079 17.8299C104.479 18.2999 103.679 18.5299 102.639 18.5299H98.8086V10.9299H101.369V13.2599H102.969C103.929 13.2599 104.669 13.4699 105.199 13.8999C105.719 14.3199 105.979 14.9499 105.979 15.7799V15.7799ZM103.359 15.8199C103.359 15.3099 103.059 15.0599 102.459 15.0599H101.369V16.7399H102.469C102.705 16.7472 102.935 16.661 103.109 16.4999C103.195 16.4101 103.262 16.3032 103.305 16.1862C103.348 16.0691 103.366 15.9444 103.359 15.8199V15.8199ZM106.679 10.9199H109.239V18.5399H106.679V10.9199Z" fill="#63666A"></path><path d="M110.898 10.9201H113.438V14.8801L116.078 10.9201H118.508V18.5401H115.968V14.5801L113.338 18.5401H110.898V10.9201ZM112.868 10.0201C112.488 9.70011 112.308 9.23011 112.308 8.61011H114.028C114.028 8.85011 114.078 9.03011 114.178 9.14011C114.278 9.24011 114.448 9.31011 114.698 9.31011C114.948 9.31011 115.118 9.25011 115.228 9.14011C115.328 9.04011 115.388 8.85011 115.388 8.61011H117.108C117.108 9.23011 116.908 9.70011 116.538 10.0101C116.158 10.3201 115.538 10.4801 114.698 10.4801C113.848 10.4801 113.238 10.3201 112.868 10.0101V10.0201Z" fill="#63666A"></path></svg> 