<?xml version="1.0" encoding="UTF-8"?> <svg xmlns="http://www.w3.org/2000/svg" width="41" height="41" viewBox="0 0 41 41" fill="none"><path fill-rule="evenodd" clip-rule="evenodd" d="M21.5727 4.30141C19.2599 4.30141 17.7774 5.37623 17.0364 6.80759C16.8496 7.16833 16.5028 7.41907 16.1017 7.48337C15.7006 7.54769 15.2928 7.41795 15.0026 7.13369C14.5466 6.68705 13.7611 6.33656 12.7975 6.33656C10.9978 6.33656 10.1295 7.4169 10.1295 8.10838C10.1295 8.15251 10.1321 8.19589 10.1371 8.23859C10.191 8.69765 9.99346 9.15014 9.6201 9.42263C9.24676 9.69514 8.75557 9.74537 8.3348 9.55405C8.11534 9.45428 7.84121 9.38928 7.53234 9.38928C7.06497 9.38928 6.68808 9.5371 6.45427 9.71786C6.222 9.89742 6.18069 10.0586 6.18069 10.1435V11.3339H15.43C16.1374 11.3339 16.7109 11.9074 16.7109 12.6148V15.5009C16.7109 16.732 17.709 17.7301 18.94 17.7301C20.1712 17.7301 21.1693 16.732 21.1693 15.5009V12.6148C21.1693 11.9074 21.7428 11.3339 22.4502 11.3339H28.1988C28.2369 11.0231 28.388 10.7349 28.6263 10.5262C28.8124 10.363 28.8475 10.224 28.8475 10.1435C28.8475 10.0586 28.8061 9.89742 28.5739 9.71786C28.3401 9.5371 27.9631 9.38928 27.4959 9.38928C26.7885 9.38928 26.215 8.8158 26.215 8.10838C26.215 6.13326 24.6345 4.30141 21.5727 4.30141ZM6.18069 14.2139V13.8957H14.1491V15.5009C14.1491 18.147 16.2941 20.2919 18.94 20.2919C21.586 20.2919 23.731 18.147 23.731 15.5009V13.8957H28.1893V14.2139V31.368C28.1893 34.4337 25.7043 36.9186 22.6387 36.9186H11.7313C8.66577 36.9186 6.18069 34.4337 6.18069 31.368V14.2139ZM31.3667 12.9329H30.751V12.6148V11.9939C31.1488 11.4891 31.4093 10.8581 31.4093 10.1435C31.4093 8.47614 30.1219 7.37925 28.6787 6.9877C28.131 3.91917 25.3364 1.73962 21.5727 1.73962C18.9448 1.73962 16.8778 2.78126 15.5526 4.4179C14.7371 4.0019 13.7869 3.77477 12.7975 3.77477C10.6706 3.77477 8.47107 4.91391 7.78511 6.83423C7.70135 6.82976 7.61705 6.82749 7.53234 6.82749C5.69716 6.82749 3.6189 8.02506 3.6189 10.1435V12.6148V14.2139V31.368C3.6189 35.8484 7.25092 39.4804 11.7313 39.4804H22.6387C26.5302 39.4804 29.7818 36.7403 30.5692 33.0843H31.3667C34.9039 33.0843 37.7712 30.2168 37.7712 26.6798V19.3374C37.7712 15.8003 34.9039 12.9329 31.3667 12.9329ZM30.751 30.5225V15.4947H31.3667C33.4891 15.4947 35.2094 17.2152 35.2094 19.3374V26.6798C35.2094 28.802 33.4891 30.5225 31.3667 30.5225H30.751ZM8.65284 26.2992C8.65284 23.8273 10.6568 21.8233 13.1288 21.8233C15.6009 21.8233 17.6048 23.8273 17.6048 26.2992V29.4943C17.6048 31.9664 15.6009 33.9704 13.1288 33.9704C10.6568 33.9704 8.65284 31.9664 8.65284 29.4943V26.2992ZM13.1288 24.3851C12.0717 24.3851 11.2147 25.2421 11.2147 26.2992V29.4943C11.2147 30.5515 12.0717 31.4086 13.1288 31.4086C14.186 31.4086 15.0431 30.5515 15.0431 29.4943V26.2992C15.0431 25.2421 14.186 24.3851 13.1288 24.3851ZM21.1761 32.9363L25.4362 28.6762C25.9364 28.176 25.9364 27.3651 25.4362 26.8649C24.9359 26.3646 24.1251 26.3646 23.6248 26.8649L19.3647 31.125C18.8645 31.6252 18.8645 32.4363 19.3647 32.9363C19.865 33.4366 20.6759 33.4366 21.1761 32.9363ZM21.3354 27.7706C21.3354 28.3587 20.8586 28.8356 20.2704 28.8356C19.6822 28.8356 19.2054 28.3587 19.2054 27.7706C19.2054 27.1824 19.6822 26.7055 20.2704 26.7055C20.8586 26.7055 21.3354 27.1824 21.3354 27.7706ZM25.5955 32.0307C25.5955 32.6188 25.1187 33.0957 24.5305 33.0957C23.9423 33.0957 23.4655 32.6188 23.4655 32.0307C23.4655 31.4425 23.9423 30.9656 24.5305 30.9656C25.1187 30.9656 25.5955 31.4425 25.5955 32.0307Z" fill="#63666A"></path></svg> 