<?xml version="1.0" encoding="UTF-8"?> <svg xmlns="http://www.w3.org/2000/svg" width="41" height="41" viewBox="0 0 41 41" fill="none"><path fill-rule="evenodd" clip-rule="evenodd" d="M13.5391 22.5267C13.5391 18.2925 16.9716 14.86 21.2058 14.86C25.4399 14.86 28.8724 18.2925 28.8724 22.5267C28.8724 26.7609 25.4399 30.1933 21.2058 30.1933C16.9716 30.1933 13.5391 26.7609 13.5391 22.5267ZM21.2058 16.86C18.0761 16.86 15.5391 19.3971 15.5391 22.5267C15.5391 25.6563 18.0761 28.1933 21.2058 28.1933C24.3354 28.1933 26.8724 25.6563 26.8724 22.5267C26.8724 19.3971 24.3354 16.86 21.2058 16.86ZM33.0293 18.5304C33.5838 18.5304 34.0332 18.081 34.0332 17.5265C34.0332 16.9721 33.5838 16.5226 33.0293 16.5226C32.4749 16.5226 32.0254 16.9721 32.0254 17.5265C32.0254 18.081 32.4749 18.5304 33.0293 18.5304ZM14.5223 7.7957C15.335 6.98304 16.4372 6.52649 17.5865 6.52649H24.825C25.9743 6.52649 27.0765 6.98304 27.8892 7.7957L30.9365 10.8431C31.3741 11.2807 31.9676 11.5265 32.5865 11.5265H34.5391C36.9323 11.5265 38.8724 13.4666 38.8724 15.8598V30.8598C38.8724 33.2531 36.9323 35.1932 34.5391 35.1932H7.8724C5.47916 35.1932 3.53906 33.2531 3.53906 30.8598V15.8598C3.53906 13.4666 5.47917 11.5265 7.8724 11.5265H9.82502C10.4439 11.5265 11.0374 11.2807 11.475 10.8431L14.5223 7.7957ZM17.5865 8.52649C16.9676 8.52649 16.3741 8.77233 15.9365 9.20991L12.8892 12.2573C12.0765 13.07 10.9743 13.5265 9.82502 13.5265H7.8724C6.58373 13.5265 5.53906 14.5712 5.53906 15.8598V30.8598C5.53906 32.1485 6.58373 33.1932 7.8724 33.1932H34.5391C35.8278 33.1932 36.8724 32.1485 36.8724 30.8598V15.8598C36.8724 14.5712 35.8278 13.5265 34.5391 13.5265H32.5865C31.4372 13.5265 30.335 13.07 29.5223 12.2573L26.475 9.20991C26.0374 8.77233 25.4439 8.52649 24.825 8.52649H17.5865Z" fill="#63666A"></path></svg> 