<?xml version="1.0" encoding="UTF-8"?> <svg xmlns="http://www.w3.org/2000/svg" width="41" height="41" viewBox="0 0 41 41" fill="none"><path fill-rule="evenodd" clip-rule="evenodd" d="M2.10483 36.7413C1.55601 36.7413 1.11108 37.1862 1.11108 37.735C1.11108 38.2838 1.55601 38.7288 2.10483 38.7288V36.7413ZM17.7434 28.1537L17.6445 29.1425L17.6461 29.1427L17.7434 28.1537ZM23.9344 38.7288C24.4833 38.7288 24.9282 38.2838 24.9282 37.735C24.9282 37.1862 24.4833 36.7413 23.9344 36.7413V38.7288ZM11.7817 20.7786C11.761 21.327 12.1887 21.7885 12.7371 21.8093C13.2855 21.83 13.747 21.4023 13.7678 20.8539L11.7817 20.7786ZM21.3624 25.9734C21.3496 26.5221 21.784 26.9772 22.3326 26.9901C22.8813 27.0028 23.3365 26.5683 23.3493 26.0196L21.3624 25.9734ZM23.4578 7.86717C22.909 7.86717 22.4641 8.31209 22.4641 8.86091C22.4641 9.40972 22.909 9.85466 23.4578 9.85466V7.86717ZM28.7789 36.7678C28.2301 36.7678 27.7852 37.2127 27.7852 37.7615C27.7852 38.3103 28.2301 38.7553 28.7789 38.7553V36.7678ZM28.2011 20.1096L29.1027 20.5276L29.1096 20.5123L28.2011 20.1096ZM31.4881 20.1096L30.5797 20.5125L30.5866 20.5276L31.4881 20.1096ZM31.9699 20.6028L31.4534 21.4518L31.4579 21.4545L31.9699 20.6028ZM31.9779 20.6075L31.466 21.4594L31.4692 21.4612L31.9779 20.6075ZM30.561 23.6129L29.9703 24.412L29.9766 24.4167L30.561 23.6129ZM29.1282 23.6129L29.7031 24.4235L29.7112 24.4177L29.7191 24.4119L29.1282 23.6129ZM27.7194 20.6028L28.22 21.4611L28.2282 21.4563L28.2363 21.4514L27.7194 20.6028ZM32.325 17.3397L31.3313 17.3329V17.3397H32.325ZM26.7612 26.2008C26.2124 26.2008 25.7674 26.6457 25.7674 27.1945C25.7674 27.7433 26.2124 28.1883 26.7612 28.1883V26.2008ZM32.9219 28.1883C33.4707 28.1883 33.9157 27.7433 33.9157 27.1945C33.9157 26.6457 33.4707 26.2008 32.9219 26.2008V28.1883ZM27.5312 29.4106C26.9823 29.4106 26.5374 29.8555 26.5374 30.4043C26.5374 30.9531 26.9823 31.3981 27.5312 31.3981V29.4106ZM32.1518 31.3981C32.7006 31.3981 33.1456 30.9531 33.1456 30.4043C33.1456 29.8555 32.7006 29.4106 32.1518 29.4106V31.3981ZM2.10483 38.7288H3.7698V36.7413H2.10483V38.7288ZM4.75199 37.8862L5.66049 31.9828L3.69611 31.6806L2.78762 37.5838L4.75199 37.8862ZM5.66049 31.9828C5.70199 31.7132 5.93298 31.5163 6.20213 31.5163V29.5288C4.94962 29.5288 3.88646 30.4437 3.69611 31.6806L5.66049 31.9828ZM6.20213 31.5163H6.62878V29.5288H6.20213V31.5163ZM7.60504 30.7076C7.74695 29.9594 7.93258 29.5706 8.09224 29.3753C8.21295 29.2276 8.34399 29.1541 8.59256 29.1384L8.46854 27.1548C7.72323 27.2015 7.05781 27.5005 6.55339 28.1175C6.08791 28.6869 5.81964 29.455 5.65236 30.3375L7.60504 30.7076ZM8.59256 29.1384C9.17291 29.1021 9.65283 28.636 9.68118 28.0342L7.6958 27.9409C7.71607 27.5092 8.05819 27.1805 8.46854 27.1548L8.59256 29.1384ZM9.68118 28.0342C9.70702 27.4814 9.92564 27.1186 10.1362 26.9421C10.3306 26.7793 10.5238 26.7546 10.7189 26.8382L11.5021 25.0116C10.5528 24.6048 9.5716 24.8222 8.85968 25.4187C8.16405 26.0017 7.7439 26.9156 7.6958 27.9409L9.68118 28.0342ZM10.7189 26.8382C11.2677 27.0737 11.9364 26.8593 12.2226 26.293L10.4489 25.3964C10.6527 24.9932 11.1212 24.8481 11.5021 25.0116L10.7189 26.8382ZM12.2226 26.293C12.4205 25.9012 12.7211 25.7635 13.0196 25.7635V23.776C11.9926 23.776 10.9942 24.3161 10.4489 25.3964L12.2226 26.293ZM13.0196 25.7635C13.2985 25.7635 13.6796 25.9908 13.8133 26.2701L15.6059 25.4117C15.1356 24.43 14.0495 23.776 13.0196 23.776V25.7635ZM13.8133 26.2701C14.0637 26.7933 14.696 27.0924 15.296 26.8556L14.5664 25.0068C14.9968 24.8371 15.4343 25.0532 15.6059 25.4117L13.8133 26.2701ZM15.296 26.8556C15.7889 26.6605 16.0626 26.7835 16.2313 26.9369C16.45 27.1357 16.6159 27.5108 16.5986 27.938L18.5845 28.0193C18.6221 27.0897 18.2815 26.1145 17.5681 25.4662C16.8047 24.7723 15.7208 24.5501 14.5664 25.0068L15.296 26.8556ZM16.5986 27.938C16.5731 28.5487 17.0279 29.0809 17.6445 29.1425L17.8422 27.1648C18.2817 27.2088 18.6024 27.5867 18.5845 28.0193L16.5986 27.938ZM17.6461 29.1427C17.805 29.1583 17.8768 29.1867 17.9077 29.2026C17.9291 29.2138 17.9584 29.2322 18.0025 29.2952C18.1239 29.4686 18.2707 29.8462 18.4341 30.7076L20.3868 30.3374C20.2223 29.4697 20.0192 28.7104 19.6308 28.1555C19.1701 27.4973 18.5365 27.2331 17.8406 27.1647L17.6461 29.1427ZM23.9344 36.7413H22.2694V38.7288H23.9344V36.7413ZM23.2515 37.5838L22.3432 31.6806L20.3788 31.9828L21.2872 37.8862L23.2515 37.5838ZM22.3432 31.6806C22.1528 30.4438 21.0897 29.5288 19.8371 29.5288V31.5163C20.1063 31.5163 20.3373 31.713 20.3788 31.9828L22.3432 31.6806ZM19.8371 29.5288H19.4105V31.5163H19.8371V29.5288ZM12.7748 20.8162C13.7678 20.8539 13.768 20.8537 13.7678 20.8539C13.7678 20.8516 13.7681 20.8468 13.7684 20.8405C13.769 20.8276 13.7702 20.8064 13.7721 20.7774C13.7758 20.7195 13.7823 20.6303 13.7932 20.5133C13.8149 20.2791 13.8541 19.9344 13.9233 19.5066C14.0617 18.6493 14.3189 17.468 14.7915 16.1778L12.9253 15.4942C12.3997 16.9295 12.1149 18.2382 11.9612 19.1897C11.8842 19.6663 11.8397 20.0555 11.8143 20.3294C11.8014 20.4663 11.7935 20.5745 11.7887 20.6506C11.7862 20.6886 11.7846 20.7186 11.7835 20.74C11.783 20.7508 11.7825 20.7594 11.7822 20.7659C11.7821 20.7691 11.7819 20.7717 11.7819 20.7738C11.7818 20.7749 11.7818 20.7758 11.7818 20.7766C11.7818 20.777 11.7818 20.7762 11.7818 20.7766C11.7818 20.7767 11.7817 20.7785 11.7817 20.7786C11.7817 20.7789 11.7817 20.7786 12.7748 20.8162ZM14.7915 16.1778C15.2681 14.8765 16.0653 13.9584 16.8976 12.8634C17.6985 11.8098 18.5361 10.5759 18.5361 8.86091H16.5486C16.5486 9.87122 16.0858 10.6471 15.3153 11.6607C14.5761 12.6332 13.5313 13.8398 12.9253 15.4942L14.7915 16.1778ZM16.5607 9.01461C16.8334 10.7573 17.5285 11.9609 18.2404 13.0291C18.9609 14.1103 19.6253 14.9648 20.1112 16.1998L21.9607 15.4722C21.3744 13.982 20.5322 12.8842 19.8943 11.9269C19.2477 10.9566 18.7321 10.0354 18.5242 8.70734L16.5607 9.01461ZM20.1112 16.1998C20.7872 17.9181 21.1105 20.3304 21.2556 22.3868C21.3271 23.4004 21.3537 24.3008 21.3625 24.9476C21.3669 25.2706 21.3669 25.5295 21.3657 25.7065C21.365 25.795 21.3642 25.863 21.3635 25.9082C21.3631 25.9309 21.3629 25.9478 21.3626 25.9587C21.3625 25.9643 21.3625 25.9682 21.3624 25.9707C21.3624 25.9719 21.3624 25.9729 21.3624 25.9734C21.3624 25.9733 21.3624 25.9734 22.3558 25.9966C23.3493 26.0196 23.3493 26.0198 23.3493 26.0196C23.3493 26.0199 23.3493 26.0195 23.3493 26.0196C23.3493 26.0194 23.3493 26.018 23.3493 26.0175C23.3493 26.0165 23.3495 26.015 23.3495 26.013C23.3495 26.0093 23.3496 26.004 23.3497 25.9972C23.35 25.9837 23.3504 25.9641 23.3508 25.9387C23.3516 25.8879 23.3525 25.8143 23.353 25.7198C23.3544 25.5307 23.3544 25.2584 23.3499 24.9207C23.3407 24.2459 23.3129 23.3066 23.2382 22.2468C23.0905 20.1566 22.754 17.4886 21.9607 15.4722L20.1112 16.1998ZM18.5361 8.86091C18.5361 8.85918 18.5361 8.85733 18.5361 8.85561C18.5361 8.85388 18.5361 8.85203 18.5361 8.85031C18.5361 8.84845 18.5361 8.84673 18.5361 8.84488C18.5361 8.84315 18.5361 8.8413 18.5361 8.83957C18.5361 8.83772 18.5361 8.836 18.5361 8.83414C18.5361 8.83242 18.5361 8.83056 18.5361 8.82884C18.5361 8.82699 18.5361 8.82513 18.5361 8.82341C18.5361 8.82156 18.5361 8.8197 18.5361 8.81798C18.5361 8.81612 18.5361 8.81427 18.5361 8.81254C18.5361 8.81069 18.5361 8.80883 18.5361 8.80711C18.5361 8.80526 18.5361 8.8034 18.5361 8.80155C18.5361 8.79982 18.5361 8.79797 18.5361 8.79611C18.5361 8.79426 18.5361 8.79254 18.5361 8.79068C18.5361 8.78883 18.5361 8.78697 18.5361 8.78512C18.5361 8.78326 18.5361 8.78141 18.5361 8.77969C18.5361 8.77783 18.5361 8.77598 18.5361 8.77412C18.5361 8.77227 18.5361 8.77041 18.5361 8.76856C18.5361 8.7667 18.5361 8.76485 18.5361 8.76299C18.5361 8.76114 18.5361 8.75928 18.5361 8.75743C18.5361 8.75557 18.5361 8.75372 18.5361 8.75186C18.5361 8.75001 18.5361 8.74815 18.5361 8.74616C18.5361 8.74431 18.5361 8.74245 18.5361 8.7406C18.5361 8.73874 18.5361 8.73689 18.5361 8.73503C18.5361 8.73305 18.5361 8.73119 18.5361 8.72933C18.5361 8.72748 18.5361 8.72562 18.5361 8.72364C18.5361 8.72178 18.5361 8.71993 18.5361 8.71807C18.5361 8.71608 18.5361 8.71423 18.5361 8.71237C18.5361 8.71039 18.5361 8.70853 18.5361 8.70668C18.5361 8.70469 18.5361 8.70283 18.5361 8.70098C18.5361 8.69899 18.5361 8.69714 18.5361 8.69528C18.5361 8.69329 18.5361 8.69144 18.5361 8.68945C18.5361 8.6876 18.5361 8.68561 18.5361 8.68375C18.5361 8.6819 18.5361 8.67991 18.5361 8.67806C18.5361 8.67607 18.5361 8.67421 18.5361 8.67223C18.5361 8.67024 18.5361 8.66838 18.5361 8.6664C18.5361 8.66454 18.5361 8.66256 18.5361 8.6607C18.5361 8.65871 18.5361 8.65672 18.5361 8.65487C18.5361 8.65288 18.5361 8.65089 18.5361 8.64904C18.5361 8.64705 18.5361 8.64506 18.5361 8.64321C18.5361 8.64122 18.5361 8.63924 18.5361 8.63738C18.5361 8.63539 18.5361 8.6334 18.5361 8.63142C18.5361 8.62956 18.5361 8.62757 18.5361 8.62559C18.5361 8.6236 18.5361 8.62175 18.5361 8.61976C18.5361 8.61777 18.5361 8.61578 18.5361 8.61379C18.5361 8.61181 18.5361 8.60982 18.5361 8.60796C18.5361 8.60598 18.5361 8.60399 18.5361 8.602C18.5361 8.60002 18.5361 8.59803 18.5361 8.59604C18.5361 8.59405 18.5361 8.59206 18.5361 8.59008C18.5361 8.58809 18.5361 8.5861 18.5361 8.58411C18.5361 8.58213 18.5361 8.58014 18.5361 8.57815C18.5361 8.57616 18.5361 8.57418 18.5361 8.57219C18.5361 8.5702 18.5361 8.56821 18.5361 8.56623C18.5361 8.56424 18.5361 8.56225 18.5361 8.56026C18.5361 8.55814 18.5361 8.55616 18.5361 8.55417C18.5361 8.55218 18.5361 8.55019 18.5361 8.54821C18.5361 8.54609 18.5361 8.5441 18.5361 8.54211C18.5361 8.54012 18.5361 8.53814 18.5361 8.53602C18.5361 8.53403 18.5361 8.53204 18.5361 8.53005C18.5361 8.52793 18.5361 8.52595 18.5361 8.52396C18.5361 8.52184 18.5361 8.51985 18.5361 8.51786C18.5361 8.51574 18.5361 8.51376 18.5361 8.51177C18.5361 8.50965 18.5361 8.50766 18.5361 8.50567C18.5361 8.50355 18.5361 8.50157 18.5361 8.49945C18.5361 8.49746 18.5361 8.49547 18.5361 8.49335C18.5361 8.49136 18.5361 8.48924 18.5361 8.48726C18.5361 8.48514 18.5361 8.48315 18.5361 8.48103C18.5361 8.47904 18.5361 8.47692 18.5361 8.47493C18.5361 8.47281 18.5361 8.47083 18.5361 8.46871C18.5361 8.46672 18.5361 8.4646 18.5361 8.46248C18.5361 8.46049 18.5361 8.45837 18.5361 8.45638C18.5361 8.45426 18.5361 8.45214 18.5361 8.45016C18.5361 8.44804 18.5361 8.44592 18.5361 8.44393C18.5361 8.44181 18.5361 8.43969 18.5361 8.4377C18.5361 8.43558 18.5361 8.43346 18.5361 8.43147C18.5361 8.42935 18.5361 8.42724 18.5361 8.42512C18.5361 8.42313 18.5361 8.42101 18.5361 8.41889C18.5361 8.41677 18.5361 8.41478 18.5361 8.41266C18.5361 8.41054 18.5361 8.40842 18.5361 8.4063C18.5361 8.40418 18.5361 8.40219 18.5361 8.40007C18.5361 8.39795 18.5361 8.39583 18.5361 8.39371C18.5361 8.39159 18.5361 8.38947 18.5361 8.38735C18.5361 8.38536 18.5361 8.38324 18.5361 8.38112C18.5361 8.379 18.5361 8.37688 18.5361 8.37476C18.5361 8.37264 18.5361 8.37053 18.5361 8.36841C18.5361 8.36629 18.5361 8.36417 18.5361 8.36205C18.5361 8.35993 18.5361 8.3578 18.5361 8.35568C18.5361 8.35356 18.5361 8.35144 18.5361 8.34932C18.5361 8.3472 18.5361 8.34495 18.5361 8.34283C18.5361 8.34071 18.5361 8.33859 18.5361 8.33647C18.5361 8.33435 18.5361 8.33223 18.5361 8.33011C18.5361 8.32799 18.5361 8.32574 18.5361 8.32362C18.5361 8.3215 18.5361 8.31938 18.5361 8.31726C18.5361 8.31501 18.5361 8.31289 18.5361 8.31077C18.5361 8.30865 18.5361 8.30653 18.5361 8.30428C18.5361 8.30216 18.5361 8.30003 18.5361 8.29791C18.5361 8.29566 18.5361 8.29354 18.5361 8.29142C18.5361 8.28917 18.5361 8.28705 18.5361 8.28493C18.5361 8.28281 18.5361 8.28056 18.5361 8.27844C18.5361 8.27632 18.5361 8.27406 18.5361 8.27194C18.5361 8.26969 18.5361 8.26757 18.5361 8.26545C18.5361 8.2632 18.5361 8.26108 18.5361 8.25883C18.5361 8.25671 18.5361 8.25459 18.5361 8.25233C18.5361 8.25021 18.5361 8.24796 18.5361 8.24584C18.5361 8.24359 18.5361 8.24147 18.5361 8.23922C18.5361 8.2371 18.5361 8.23485 18.5361 8.23273C18.5361 8.23047 18.5361 8.22835 18.5361 8.2261C18.5361 8.22398 18.5361 8.22173 18.5361 8.21961C18.5361 8.21736 18.5361 8.21524 18.5361 8.21298C18.5361 8.21073 18.5361 8.20861 18.5361 8.20636C18.5361 8.20424 18.5361 8.20198 18.5361 8.19973C18.5361 8.19761 18.5361 8.19536 18.5361 8.19324C18.5361 8.19099 18.5361 8.18873 18.5361 8.18661C18.5361 8.18436 18.5361 8.18211 18.5361 8.17999C18.5361 8.17774 18.5361 8.17548 18.5361 8.17323C18.5361 8.17111 18.5361 8.16886 18.5361 8.16665C18.5361 8.16443 18.5361 8.16221 18.5361 8.16C18.5361 8.15777 18.5361 8.15554 18.5361 8.15333C18.5361 8.1511 18.5361 8.14888 18.5361 8.14665C18.5361 8.14443 18.5361 8.1422 18.5361 8.13997C18.5361 8.13774 18.5361 8.13551 18.5361 8.13328C18.5361 8.13104 18.5361 8.12882 18.5361 8.12658C18.5361 8.12434 18.5361 8.12211 18.5361 8.11987C18.5361 8.11763 18.5361 8.1154 18.5361 8.11316C18.5361 8.11092 18.5361 8.10868 18.5361 8.10643C18.5361 8.10419 18.5361 8.10195 18.5361 8.09969C18.5361 8.09745 18.5361 8.0952 18.5361 8.09295C18.5361 8.09071 18.5361 8.08846 18.5361 8.08621C18.5361 8.08395 18.5361 8.0817 18.5361 8.07945C18.5361 8.0772 18.5361 8.07494 18.5361 8.07268C18.5361 8.07043 18.5361 8.06816 18.5361 8.06591C18.5361 8.06364 18.5361 8.06139 18.5361 8.05912C18.5361 8.05686 18.5361 8.0546 18.5361 8.05234C18.5361 8.05007 18.5361 8.04781 18.5361 8.04554C18.5361 8.04326 18.5361 8.041 18.5361 8.03873C18.5361 8.03647 18.5361 8.03419 18.5361 8.03192C18.5361 8.02964 18.5361 8.02738 18.5361 8.0251C18.5361 8.02282 18.5361 8.02054 18.5361 8.01826C18.5361 8.01599 18.5361 8.01372 18.5361 8.01142C18.5361 8.00914 18.5361 8.00687 18.5361 8.00459C18.5361 8.00231 18.5361 8.00002 18.5361 7.99774C18.5361 7.99544 18.5361 7.99316 18.5361 7.99087C18.5361 7.98858 18.5361 7.9863 18.5361 7.98401C18.5361 7.98172 18.5361 7.97942 18.5361 7.97713C18.5361 7.97484 18.5361 7.97255 18.5361 7.97024C18.5361 7.96795 18.5361 7.96566 18.5361 7.96336C18.5361 7.96106 18.5361 7.95877 18.5361 7.95646C18.5361 7.95416 18.5361 7.95186 18.5361 7.94956C18.5361 7.94725 18.5361 7.94495 18.5361 7.94264C18.5361 7.94034 18.5361 7.93803 18.5361 7.93573C18.5361 7.93342 18.5361 7.93112 18.5361 7.92881C18.5361 7.92649 18.5361 7.92419 18.5361 7.92187C18.5361 7.91956 18.5361 7.91724 18.5361 7.91494C18.5361 7.91262 18.5361 7.9103 18.5361 7.90798C18.5361 7.90567 18.5361 7.90336 18.5361 7.90104C18.5361 7.89872 18.5361 7.8964 18.5361 7.89407C18.5361 7.89175 18.5361 7.88943 18.5361 7.88711C18.5361 7.88478 18.5361 7.88246 18.5361 7.88013C18.5361 7.87781 18.5361 7.87548 18.5361 7.87315C18.5361 7.87083 18.5361 7.8685 18.5361 7.86616C18.5361 7.86383 18.5361 7.8615 18.5361 7.85917C18.5361 7.85683 18.5361 7.8545 18.5361 7.85217C18.5361 7.84984 18.5361 7.84749 18.5361 7.84516C18.5361 7.84283 18.5361 7.84048 18.5361 7.83815C18.5361 7.83581 18.5361 7.83348 18.5361 7.83113C18.5361 7.82879 18.5361 7.82645 18.5361 7.82411C18.5361 7.82176 18.5361 7.81942 18.5361 7.81707C18.5361 7.81473 18.5361 7.81238 18.5361 7.81004C18.5361 7.80769 18.5361 7.80535 18.5361 7.80299C18.5361 7.80064 18.5361 7.7983 18.5361 7.79594C18.5361 7.79359 18.5361 7.79123 18.5361 7.78889C18.5361 7.78653 18.5361 7.78417 18.5361 7.78181C18.5361 7.77947 18.5361 7.77711 18.5361 7.77475C18.5361 7.77239 18.5361 7.77003 18.5361 7.76768C18.5361 7.76532 18.5361 7.76296 18.5361 7.7606C18.5361 7.75823 18.5361 7.75587 18.5361 7.75351C18.5361 7.75114 18.5361 7.74878 18.5361 7.74642C18.5361 7.74405 18.5361 7.74168 18.5361 7.73932C18.5361 7.73695 18.5361 7.73458 18.5361 7.73222C18.5361 7.72985 18.5361 7.72748 18.5361 7.7251C18.5361 7.72273 18.5361 7.72036 18.5361 7.71799C18.5361 7.71562 18.5361 7.71325 18.5361 7.71087C18.5361 7.7085 18.5361 7.70612 18.5361 7.70375C18.5361 7.70137 18.5361 7.69899 18.5361 7.69662C18.5361 7.69423 18.5361 7.69186 18.5361 7.68947C18.5361 7.68709 18.5361 7.68472 18.5361 7.68233C18.5361 7.67995 18.5361 7.67756 18.5361 7.67519C18.5361 7.67281 18.5361 7.67042 18.5361 7.66804C18.5361 7.66565 18.5361 7.66327 18.5361 7.66088C18.5361 7.65848 18.5361 7.6561 18.5361 7.65371C18.5361 7.65133 18.5361 7.64893 18.5361 7.64654C18.5361 7.64416 18.5361 7.64176 18.5361 7.63938C18.5361 7.63698 18.5361 7.63458 18.5361 7.63219C18.5361 7.6298 18.5361 7.6274 18.5361 7.62501C18.5361 7.62262 18.5361 7.62022 18.5361 7.61782C18.5361 7.61542 18.5361 7.61302 18.5361 7.61062C18.5361 7.60823 18.5361 7.60583 18.5361 7.60343C18.5361 7.60103 18.5361 7.59863 18.5361 7.59622C18.5361 7.59382 18.5361 7.59142 18.5361 7.58901C18.5361 7.58661 18.5361 7.58422 18.5361 7.58181C18.5361 7.57941 18.5361 7.577 18.5361 7.5746C18.5361 7.57219 18.5361 7.56977 18.5361 7.56738C18.5361 7.56496 18.5361 7.56255 18.5361 7.56014C18.5361 7.55773 18.5361 7.55532 18.5361 7.55292C18.5361 7.55051 18.5361 7.5481 18.5361 7.54569C18.5361 7.54326 18.5361 7.54085 18.5361 7.53844C18.5361 7.53603 18.5361 7.53362 18.5361 7.5312C18.5361 7.52878 18.5361 7.52637 18.5361 7.52396C18.5361 7.52153 18.5361 7.51912 18.5361 7.51669C18.5361 7.51428 18.5361 7.51186 18.5361 7.50945C18.5361 7.50702 18.5361 7.5046 18.5361 7.50219C18.5361 7.49976 18.5361 7.49734 18.5361 7.49491C18.5361 7.4925 18.5361 7.49008 18.5361 7.48765C18.5361 7.48523 18.5361 7.4828 18.5361 7.48038C18.5361 7.47795 18.5361 7.47553 18.5361 7.4731C18.5361 7.47068 18.5361 7.46825 18.5361 7.46583C18.5361 7.46339 18.5361 7.46097 18.5361 7.45854C18.5361 7.45612 18.5361 7.45368 18.5361 7.45125C18.5361 7.44883 18.5361 7.44639 18.5361 7.44397C18.5361 7.44153 18.5361 7.4391 18.5361 7.43666C18.5361 7.43424 18.5361 7.4318 18.5361 7.42936C18.5361 7.42694 18.5361 7.4245 18.5361 7.42206C18.5361 7.41963 18.5361 7.4172 18.5361 7.41476C18.5361 7.41232 18.5361 7.40989 18.5361 7.40745C18.5361 7.40501 18.5361 7.40257 18.5361 7.40013C18.5361 7.3977 18.5361 7.39526 18.5361 7.39282C18.5361 7.39038 18.5361 7.38795 18.5361 7.38551C18.5361 7.38307 18.5361 7.38063 18.5361 7.37818C18.5361 7.37574 18.5361 7.3733 18.5361 7.37085C18.5361 7.36841 18.5361 7.36598 18.5361 7.36353C18.5361 7.36109 18.5361 7.35864 18.5361 7.3562C18.5361 7.35376 18.5361 7.35131 18.5361 7.34886C18.5361 7.34642 18.5361 7.34397 18.5361 7.34153C18.5361 7.33908 18.5361 7.33663 18.5361 7.33419C18.5361 7.33174 18.5361 7.32929 18.5361 7.32684C18.5361 7.3244 18.5361 7.32195 18.5361 7.31949C18.5361 7.31704 18.5361 7.31459 18.5361 7.31214C18.5361 7.30969 18.5361 7.30724 18.5361 7.30479C18.5361 7.30234 18.5361 7.29989 18.5361 7.29743C18.5361 7.29498 18.5361 7.29253 18.5361 7.29008C18.5361 7.28763 18.5361 7.28518 18.5361 7.28273C18.5361 7.28026 18.5361 7.27781 18.5361 7.27536C18.5361 7.27291 18.5361 7.27044 18.5361 7.26799C18.5361 7.26554 18.5361 7.26308 18.5361 7.26062C18.5361 7.25817 18.5361 7.25571 18.5361 7.25326C18.5361 7.25079 18.5361 7.24834 18.5361 7.24588C18.5361 7.24343 18.5361 7.24096 18.5361 7.23851C18.5361 7.23605 18.5361 7.2336 18.5361 7.23113C18.5361 7.22867 18.5361 7.22621 18.5361 7.22375C18.5361 7.22129 18.5361 7.21884 18.5361 7.21637C18.5361 7.21391 18.5361 7.21145 18.5361 7.20899C18.5361 7.20653 18.5361 7.20406 18.5361 7.2016C18.5361 7.19915 18.5361 7.19668 18.5361 7.19422C18.5361 7.19175 18.5361 7.18929 18.5361 7.18682C18.5361 7.18436 18.5361 7.18189 18.5361 7.17943C18.5361 7.17696 18.5361 7.1745 18.5361 7.17204C18.5361 7.16957 18.5361 7.16711 18.5361 7.16464C18.5361 7.16218 18.5361 7.15971 18.5361 7.15725C18.5361 7.15478 18.5361 7.15232 18.5361 7.14985C18.5361 7.14738 18.5361 7.14491 18.5361 7.14245C18.5361 7.13998 18.5361 7.13752 18.5361 7.13504C18.5361 7.13258 18.5361 7.13011 18.5361 7.12765C18.5361 7.12517 18.5361 7.12271 18.5361 7.12024C18.5361 7.11776 18.5361 7.1153 18.5361 7.11283C18.5361 7.11036 18.5361 7.10789 18.5361 7.10543C18.5361 7.10295 18.5361 7.10049 18.5361 7.09801C18.5361 7.09554 18.5361 7.09308 18.5361 7.0906C18.5361 7.08814 18.5361 7.08566 18.5361 7.08319C18.5361 7.08072 18.5361 7.07825 18.5361 7.07577C18.5361 7.07331 18.5361 7.07083 18.5361 7.06837C18.5361 7.06589 18.5361 7.06343 18.5361 7.06095C18.5361 7.05848 18.5361 7.05601 18.5361 7.05353C18.5361 7.05106 18.5361 7.04859 18.5361 7.04612C18.5361 7.04364 18.5361 7.04117 18.5361 7.0387C18.5361 7.03622 18.5361 7.03375 18.5361 7.03128C18.5361 7.0288 18.5361 7.02633 18.5361 7.02386C18.5361 7.02138 18.5361 7.01891 18.5361 7.01644C18.5361 7.01396 18.5361 7.01149 18.5361 7.00901C18.5361 7.00654 18.5361 7.00407 18.5361 7.00159C18.5361 6.99912 18.5361 6.99665 18.5361 6.99417C18.5361 6.99169 18.5361 6.98923 18.5361 6.98675C18.5361 6.98427 18.5361 6.98179 18.5361 6.97931C18.5361 6.97685 18.5361 6.97437 18.5361 6.97189C18.5361 6.96942 18.5361 6.96694 18.5361 6.96447C18.5361 6.962 18.5361 6.95952 18.5361 6.95704C18.5361 6.95456 18.5361 6.9521 18.5361 6.94962C18.5361 6.94714 18.5361 6.94467 18.5361 6.94219C18.5361 6.93971 18.5361 6.93725 18.5361 6.93477C18.5361 6.93229 18.5361 6.92981 18.5361 6.92733C18.5361 6.92486 18.5361 6.92238 18.5361 6.91991C18.5361 6.91744 18.5361 6.91496 18.5361 6.91248C18.5361 6.91 18.5361 6.90753 18.5361 6.90505C18.5361 6.90258 18.5361 6.90011 18.5361 6.89763C18.5361 6.89515 18.5361 6.89267 18.5361 6.8902C18.5361 6.88772 18.5361 6.88525 18.5361 6.88278C18.5361 6.8803 18.5361 6.87782 18.5361 6.87534C18.5361 6.87286 18.5361 6.8704 18.5361 6.86792C18.5361 6.86544 18.5361 6.86297 18.5361 6.86049C18.5361 6.85801 18.5361 6.85553 18.5361 6.85307C18.5361 6.85059 18.5361 6.84811 18.5361 6.84564C18.5361 6.84316 18.5361 6.84069 18.5361 6.83822C18.5361 6.83574 18.5361 6.83326 18.5361 6.83078C18.5361 6.8283 18.5361 6.82584 18.5361 6.82336C18.5361 6.82088 18.5361 6.81841 18.5361 6.81594C18.5361 6.81346 18.5361 6.81099 18.5361 6.80851C18.5361 6.80604 18.5361 6.80357 18.5361 6.80109C18.5361 6.79861 18.5361 6.79615 18.5361 6.79367C18.5361 6.79119 18.5361 6.78871 18.5361 6.78625C18.5361 6.78377 18.5361 6.78129 18.5361 6.77883C18.5361 6.77635 18.5361 6.77387 18.5361 6.77141C18.5361 6.76893 18.5361 6.76645 18.5361 6.76399C18.5361 6.76151 18.5361 6.75903 18.5361 6.75657C18.5361 6.75409 18.5361 6.75161 18.5361 6.74915C18.5361 6.74667 18.5361 6.74421 18.5361 6.74173C18.5361 6.73926 18.5361 6.73679 18.5361 6.73431C18.5361 6.73184 18.5361 6.72937 18.5361 6.7269C18.5361 6.72442 18.5361 6.72196 18.5361 6.71948C18.5361 6.71702 18.5361 6.71454 18.5361 6.71208C18.5361 6.7096 18.5361 6.70713 18.5361 6.70467C18.5361 6.70219 18.5361 6.69973 18.5361 6.69725C18.5361 6.69478 18.5361 6.69232 18.5361 6.68984C18.5361 6.68738 18.5361 6.68491 18.5361 6.68243C18.5361 6.67997 18.5361 6.67751 18.5361 6.67503C18.5361 6.67256 18.5361 6.6701 18.5361 6.66764C18.5361 6.66516 18.5361 6.66269 18.5361 6.66023C18.5361 6.65776 18.5361 6.6553 18.5361 6.65282C18.5361 6.65036 18.5361 6.64789 18.5361 6.64543C18.5361 6.64296 18.5361 6.6405 18.5361 6.63803C18.5361 6.63557 18.5361 6.6331 18.5361 6.63064C18.5361 6.62818 18.5361 6.62571 18.5361 6.62325C18.5361 6.62078 18.5361 6.61832 18.5361 6.61585C18.5361 6.61339 18.5361 6.61092 18.5361 6.60846C18.5361 6.606 18.5361 6.60353 18.5361 6.60107C18.5361 6.59862 18.5361 6.59615 18.5361 6.59369C18.5361 6.59122 18.5361 6.58876 18.5361 6.58631C18.5361 6.58384 18.5361 6.58138 18.5361 6.57893C18.5361 6.57646 18.5361 6.574 18.5361 6.57155C18.5361 6.56908 18.5361 6.56662 18.5361 6.56417C18.5361 6.5617 18.5361 6.55925 18.5361 6.55679C18.5361 6.55433 18.5361 6.55187 18.5361 6.54942C18.5361 6.54695 18.5361 6.5445 18.5361 6.54205C18.5361 6.53959 18.5361 6.53714 18.5361 6.53468C18.5361 6.53222 18.5361 6.52977 18.5361 6.52732C18.5361 6.52485 18.5361 6.5224 18.5361 6.51995C18.5361 6.5175 18.5361 6.51505 18.5361 6.51258C18.5361 6.51013 18.5361 6.50768 18.5361 6.50523C18.5361 6.50278 18.5361 6.50033 18.5361 6.49788C18.5361 6.49542 18.5361 6.49297 18.5361 6.49052C18.5361 6.48807 18.5361 6.48562 18.5361 6.48317C18.5361 6.48073 18.5361 6.47828 18.5361 6.47583C18.5361 6.47338 18.5361 6.47093 18.5361 6.46849C18.5361 6.46604 18.5361 6.46358 18.5361 6.46115C18.5361 6.4587 18.5361 6.45624 18.5361 6.45381C18.5361 6.45135 18.5361 6.44892 18.5361 6.44647C18.5361 6.44403 18.5361 6.44158 18.5361 6.43914C18.5361 6.43669 18.5361 6.43425 18.5361 6.43181C18.5361 6.42936 18.5361 6.42692 18.5361 6.42448C18.5361 6.42203 18.5361 6.4196 18.5361 6.41716C18.5361 6.41472 18.5361 6.41228 18.5361 6.40984C18.5361 6.40741 18.5361 6.40497 18.5361 6.40253C18.5361 6.40008 18.5361 6.39765 18.5361 6.39521C18.5361 6.39278 18.5361 6.39034 18.5361 6.3879C18.5361 6.38546 18.5361 6.38303 18.5361 6.3806C18.5361 6.37816 18.5361 6.37572 18.5361 6.37329C18.5361 6.37086 18.5361 6.36842 18.5361 6.366C18.5361 6.36356 18.5361 6.36112 18.5361 6.3587C18.5361 6.35626 18.5361 6.35383 18.5361 6.35141C18.5361 6.34897 18.5361 6.34655 18.5361 6.34412C18.5361 6.34168 18.5361 6.33926 18.5361 6.33684C18.5361 6.33441 18.5361 6.33199 18.5361 6.32955C18.5361 6.32712 18.5361 6.3247 18.5361 6.32227C18.5361 6.31985 18.5361 6.31742 18.5361 6.315C18.5361 6.31258 18.5361 6.31016 18.5361 6.30774C18.5361 6.30531 18.5361 6.30289 18.5361 6.30048C18.5361 6.29805 18.5361 6.29563 18.5361 6.29322C18.5361 6.29079 18.5361 6.28837 18.5361 6.28596C18.5361 6.28353 18.5361 6.28112 18.5361 6.27871C18.5361 6.27628 18.5361 6.27387 18.5361 6.27146C18.5361 6.26903 18.5361 6.26662 18.5361 6.26421C18.5361 6.2618 18.5361 6.25938 18.5361 6.25696C18.5361 6.25455 18.5361 6.25214 18.5361 6.24973C18.5361 6.24732 18.5361 6.24491 18.5361 6.24251C18.5361 6.2401 18.5361 6.23769 18.5361 6.23527C18.5361 6.23286 18.5361 6.23046 18.5361 6.22805C18.5361 6.22565 18.5361 6.22324 18.5361 6.22083C18.5361 6.21843 18.5361 6.21602 18.5361 6.21362C18.5361 6.21123 18.5361 6.20881 18.5361 6.20642C18.5361 6.20402 18.5361 6.20162 18.5361 6.19921C18.5361 6.19681 18.5361 6.19441 18.5361 6.19201C18.5361 6.18961 18.5361 6.18722 18.5361 6.18482C18.5361 6.18242 18.5361 6.18002 18.5361 6.17764C18.5361 6.17524 18.5361 6.17284 18.5361 6.17044C18.5361 6.16806 18.5361 6.16566 18.5361 6.16327C18.5361 6.16088 18.5361 6.15849 18.5361 6.15609C18.5361 6.15371 18.5361 6.15131 18.5361 6.14892C18.5361 6.14654 18.5361 6.14415 18.5361 6.14176C18.5361 6.13937 18.5361 6.13699 18.5361 6.1346C18.5361 6.13222 18.5361 6.12983 18.5361 6.12745C18.5361 6.12506 18.5361 6.12268 18.5361 6.1203C18.5361 6.11792 18.5361 6.11553 18.5361 6.11316C18.5361 6.11078 18.5361 6.10839 18.5361 6.10602C18.5361 6.10364 18.5361 6.10126 18.5361 6.09889C18.5361 6.09651 18.5361 6.09413 18.5361 6.09176C18.5361 6.08938 18.5361 6.08701 18.5361 6.08463C18.5361 6.08226 18.5361 6.07989 18.5361 6.07752C18.5361 6.07515 18.5361 6.07278 18.5361 6.07042C18.5361 6.06805 18.5361 6.06567 18.5361 6.0633C18.5361 6.06094 18.5361 6.05857 18.5361 6.05621C18.5361 6.05384 18.5361 6.05148 18.5361 6.04911C18.5361 6.04675 18.5361 6.04439 18.5361 6.04202C18.5361 6.03966 18.5361 6.03731 18.5361 6.03495C18.5361 6.03259 18.5361 6.03023 18.5361 6.02787C18.5361 6.02551 18.5361 6.02316 18.5361 6.0208C18.5361 6.01844 18.5361 6.01609 18.5361 6.01373C18.5361 6.01138 18.5361 6.00903 18.5361 6.00667C18.5361 6.00433 18.5361 6.00198 18.5361 5.99962C18.5361 5.99728 18.5361 5.99493 18.5361 5.99257C18.5361 5.99023 18.5361 5.98788 18.5361 5.98554C18.5361 5.98319 18.5361 5.98085 18.5361 5.9785C18.5361 5.97617 18.5361 5.97383 18.5361 5.97148C18.5361 5.96913 18.5361 5.9668 18.5361 5.96446C18.5361 5.96213 18.5361 5.95978 18.5361 5.95745C18.5361 5.9551 18.5361 5.95277 18.5361 5.95044C18.5361 5.94811 18.5361 5.94578 18.5361 5.94344C18.5361 5.94111 18.5361 5.93878 18.5361 5.93645C18.5361 5.93411 18.5361 5.93178 18.5361 5.92945C18.5361 5.92713 18.5361 5.9248 18.5361 5.92247C18.5361 5.92015 18.5361 5.91782 18.5361 5.9155C18.5361 5.91318 18.5361 5.91085 18.5361 5.90853C18.5361 5.90621 18.5361 5.90389 18.5361 5.90157C18.5361 5.89925 18.5361 5.89694 18.5361 5.89462C18.5361 5.8923 18.5361 5.88998 18.5361 5.88767C18.5361 5.88535 18.5361 5.88304 18.5361 5.88073C18.5361 5.87841 18.5361 5.87611 18.5361 5.87379C18.5361 5.87148 18.5361 5.86918 18.5361 5.86687C18.5361 5.86455 18.5361 5.86225 18.5361 5.85994C18.5361 5.85764 18.5361 5.85534 18.5361 5.85304C18.5361 5.85073 18.5361 5.84843 18.5361 5.84613C18.5361 5.84383 18.5361 5.84152 18.5361 5.83923C18.5361 5.83694 18.5361 5.83463 18.5361 5.83234C18.5361 5.83005 18.5361 5.82776 18.5361 5.82545C18.5361 5.82316 18.5361 5.82087 18.5361 5.81857C18.5361 5.8163 18.5361 5.814 18.5361 5.81171C18.5361 5.80942 18.5361 5.80714 18.5361 5.80485C18.5361 5.80257 18.5361 5.80028 18.5361 5.798C18.5361 5.79572 18.5361 5.79344 18.5361 5.79115C18.5361 5.78887 18.5361 5.78659 18.5361 5.78431C18.5361 5.78203 18.5361 5.77977 18.5361 5.77749C18.5361 5.77521 18.5361 5.77293 18.5361 5.77066C18.5361 5.76838 18.5361 5.76612 18.5361 5.76385C18.5361 5.76157 18.5361 5.75931 18.5361 5.75704C18.5361 5.75478 18.5361 5.75251 18.5361 5.75024C18.5361 5.74798 18.5361 5.74571 18.5361 5.74345C18.5361 5.74118 18.5361 5.73893 18.5361 5.73666C18.5361 5.73441 18.5361 5.73215 18.5361 5.72989C18.5361 5.72763 18.5361 5.72537 18.5361 5.72312C18.5361 5.72087 18.5361 5.71862 18.5361 5.71636C18.5361 5.71411 18.5361 5.71186 18.5361 5.70961C18.5361 5.70737 18.5361 5.70512 18.5361 5.70286C18.5361 5.70062 18.5361 5.69838 18.5361 5.69613C18.5361 5.69389 18.5361 5.69165 18.5361 5.68941C18.5361 5.68716 18.5361 5.68492 18.5361 5.6827C18.5361 5.68046 18.5361 5.67822 18.5361 5.67598C18.5361 5.67374 18.5361 5.67151 18.5361 5.66927C18.5361 5.66705 18.5361 5.66482 18.5361 5.66258C18.5361 5.66036 18.5361 5.65813 18.5361 5.6559C18.5361 5.65368 18.5361 5.65145 18.5361 5.64923C18.5361 5.647 18.5361 5.64479 18.5361 5.64256C18.5361 5.64034 18.5361 5.63812 18.5361 5.63591C18.5361 5.63368 18.5361 5.63147 18.5361 5.62926C18.5361 5.62705 18.5361 5.62483 18.5361 5.62262C18.5361 5.62041 18.5361 5.6182 18.5361 5.61598C18.5361 5.61377 18.5361 5.61157 18.5361 5.60936C18.5361 5.60716 18.5361 5.60494 18.5361 5.60275C18.5361 5.60055 18.5361 5.59835 18.5361 5.59615C18.5361 5.59395 18.5361 5.59175 18.5361 5.58955C18.5361 5.58735 18.5361 5.58515 18.5361 5.58296C18.5361 5.58076 18.5361 5.57858 18.5361 5.57639C18.5361 5.57419 18.5361 5.57201 18.5361 5.56982C18.5361 5.56763 18.5361 5.56545 18.5361 5.56326C18.5361 5.56107 18.5361 5.55889 18.5361 5.55672C18.5361 5.55453 18.5361 5.55234 18.5361 5.55017C18.5361 5.548 18.5361 5.54581 18.5361 5.54364C18.5361 5.54146 18.5361 5.53929 18.5361 5.53712C18.5361 5.53495 18.5361 5.53277 18.5361 5.53061C18.5361 5.52844 18.5361 5.52627 18.5361 5.52411C18.5361 5.52193 18.5361 5.51977 18.5361 5.51761C18.5361 5.51545 18.5361 5.51329 18.5361 5.51114C18.5361 5.50898 18.5361 5.50682 18.5361 5.50466C18.5361 5.5025 18.5361 5.50035 18.5361 5.49819C18.5361 5.49604 18.5361 5.4939 18.5361 5.49174C18.5361 5.48959 18.5361 5.48744 18.5361 5.4853C18.5361 5.48315 18.5361 5.481 18.5361 5.47887C18.5361 5.47672 18.5361 5.47458 18.5361 5.47245C18.5361 5.4703 18.5361 5.46817 18.5361 5.46603C18.5361 5.46389 18.5361 5.46175 18.5361 5.45962C18.5361 5.45749 18.5361 5.45537 18.5361 5.45323C18.5361 5.4511 18.5361 5.44898 18.5361 5.44685C18.5361 5.44473 18.5361 5.44259 18.5361 5.44047C18.5361 5.43835 18.5361 5.43623 18.5361 5.43411C18.5361 5.43199 18.5361 5.42987 18.5361 5.42777C18.5361 5.42565 18.5361 5.42353 18.5361 5.42142C18.5361 5.41931 18.5361 5.41719 18.5361 5.41509C18.5361 5.41298 18.5361 5.41087 18.5361 5.40877C18.5361 5.40666 18.5361 5.40455 18.5361 5.40246C18.5361 5.40035 18.5361 5.39826 18.5361 5.39615C18.5361 5.39406 18.5361 5.39196 18.5361 5.38987C18.5361 5.38778 18.5361 5.38568 18.5361 5.38359C18.5361 5.3815 18.5361 5.3794 18.5361 5.37732C18.5361 5.37523 18.5361 5.37315 18.5361 5.37107C18.5361 5.36898 18.5361 5.3669 18.5361 5.36482C18.5361 5.36273 18.5361 5.36066 18.5361 5.35859C18.5361 5.35651 18.5361 5.35443 18.5361 5.35236H16.5486C16.5486 5.35443 16.5486 5.35651 16.5486 5.35859C16.5486 5.36066 16.5486 5.36273 16.5486 5.36482C16.5486 5.3669 16.5486 5.36898 16.5486 5.37107C16.5486 5.37315 16.5486 5.37523 16.5486 5.37732C16.5486 5.3794 16.5486 5.3815 16.5486 5.38359C16.5486 5.38568 16.5486 5.38778 16.5486 5.38987C16.5486 5.39196 16.5486 5.39406 16.5486 5.39615C16.5486 5.39826 16.5486 5.40035 16.5486 5.40246C16.5486 5.40455 16.5486 5.40666 16.5486 5.40877C16.5486 5.41087 16.5486 5.41298 16.5486 5.41509C16.5486 5.41719 16.5486 5.41931 16.5486 5.42142C16.5486 5.42353 16.5486 5.42565 16.5486 5.42777C16.5486 5.42987 16.5486 5.43199 16.5486 5.43411C16.5486 5.43623 16.5486 5.43835 16.5486 5.44047C16.5486 5.44259 16.5486 5.44473 16.5486 5.44685C16.5486 5.44898 16.5486 5.4511 16.5486 5.45323C16.5486 5.45537 16.5486 5.45749 16.5486 5.45962C16.5486 5.46175 16.5486 5.46389 16.5486 5.46603C16.5486 5.46817 16.5486 5.4703 16.5486 5.47245C16.5486 5.47458 16.5486 5.47672 16.5486 5.47887C16.5486 5.481 16.5486 5.48315 16.5486 5.4853C16.5486 5.48744 16.5486 5.48959 16.5486 5.49174C16.5486 5.4939 16.5486 5.49604 16.5486 5.49819C16.5486 5.50035 16.5486 5.5025 16.5486 5.50466C16.5486 5.50682 16.5486 5.50898 16.5486 5.51114C16.5486 5.51329 16.5486 5.51545 16.5486 5.51761C16.5486 5.51977 16.5486 5.52193 16.5486 5.52411C16.5486 5.52627 16.5486 5.52844 16.5486 5.53061C16.5486 5.53277 16.5486 5.53495 16.5486 5.53712C16.5486 5.53929 16.5486 5.54146 16.5486 5.54364C16.5486 5.54581 16.5486 5.548 16.5486 5.55017C16.5486 5.55234 16.5486 5.55453 16.5486 5.55672C16.5486 5.55889 16.5486 5.56107 16.5486 5.56326C16.5486 5.56545 16.5486 5.56763 16.5486 5.56982C16.5486 5.57201 16.5486 5.57419 16.5486 5.57639C16.5486 5.57858 16.5486 5.58076 16.5486 5.58296C16.5486 5.58515 16.5486 5.58735 16.5486 5.58955C16.5486 5.59175 16.5486 5.59395 16.5486 5.59615C16.5486 5.59835 16.5486 5.60055 16.5486 5.60275C16.5486 5.60494 16.5486 5.60716 16.5486 5.60936C16.5486 5.61157 16.5486 5.61377 16.5486 5.61598C16.5486 5.6182 16.5486 5.62041 16.5486 5.62262C16.5486 5.62483 16.5486 5.62705 16.5486 5.62926C16.5486 5.63147 16.5486 5.63368 16.5486 5.63591C16.5486 5.63812 16.5486 5.64034 16.5486 5.64256C16.5486 5.64479 16.5486 5.647 16.5486 5.64923C16.5486 5.65145 16.5486 5.65368 16.5486 5.6559C16.5486 5.65813 16.5486 5.66036 16.5486 5.66258C16.5486 5.66482 16.5486 5.66705 16.5486 5.66927C16.5486 5.67151 16.5486 5.67374 16.5486 5.67598C16.5486 5.67822 16.5486 5.68046 16.5486 5.6827C16.5486 5.68492 16.5486 5.68716 16.5486 5.68941C16.5486 5.69165 16.5486 5.69389 16.5486 5.69613C16.5486 5.69838 16.5486 5.70062 16.5486 5.70286C16.5486 5.70512 16.5486 5.70737 16.5486 5.70961C16.5486 5.71186 16.5486 5.71411 16.5486 5.71636C16.5486 5.71862 16.5486 5.72087 16.5486 5.72312C16.5486 5.72537 16.5486 5.72763 16.5486 5.72989C16.5486 5.73215 16.5486 5.73441 16.5486 5.73666C16.5486 5.73893 16.5486 5.74118 16.5486 5.74345C16.5486 5.74571 16.5486 5.74798 16.5486 5.75024C16.5486 5.75251 16.5486 5.75478 16.5486 5.75704C16.5486 5.75931 16.5486 5.76157 16.5486 5.76385C16.5486 5.76612 16.5486 5.76838 16.5486 5.77066C16.5486 5.77293 16.5486 5.77521 16.5486 5.77749C16.5486 5.77977 16.5486 5.78203 16.5486 5.78431C16.5486 5.78659 16.5486 5.78887 16.5486 5.79115C16.5486 5.79344 16.5486 5.79572 16.5486 5.798C16.5486 5.80028 16.5486 5.80257 16.5486 5.80485C16.5486 5.80714 16.5486 5.80942 16.5486 5.81171C16.5486 5.814 16.5486 5.8163 16.5486 5.81857C16.5486 5.82087 16.5486 5.82316 16.5486 5.82545C16.5486 5.82776 16.5486 5.83005 16.5486 5.83234C16.5486 5.83463 16.5486 5.83694 16.5486 5.83923C16.5486 5.84152 16.5486 5.84383 16.5486 5.84613C16.5486 5.84843 16.5486 5.85073 16.5486 5.85304C16.5486 5.85534 16.5486 5.85764 16.5486 5.85994C16.5486 5.86225 16.5486 5.86455 16.5486 5.86687C16.5486 5.86918 16.5486 5.87148 16.5486 5.87379C16.5486 5.87611 16.5486 5.87841 16.5486 5.88073C16.5486 5.88304 16.5486 5.88535 16.5486 5.88767C16.5486 5.88998 16.5486 5.8923 16.5486 5.89462C16.5486 5.89694 16.5486 5.89925 16.5486 5.90157C16.5486 5.90389 16.5486 5.90621 16.5486 5.90853C16.5486 5.91085 16.5486 5.91318 16.5486 5.9155C16.5486 5.91782 16.5486 5.92015 16.5486 5.92247C16.5486 5.9248 16.5486 5.92713 16.5486 5.92945C16.5486 5.93178 16.5486 5.93411 16.5486 5.93645C16.5486 5.93878 16.5486 5.94111 16.5486 5.94344C16.5486 5.94578 16.5486 5.94811 16.5486 5.95044C16.5486 5.95277 16.5486 5.9551 16.5486 5.95745C16.5486 5.95978 16.5486 5.96213 16.5486 5.96446C16.5486 5.9668 16.5486 5.96913 16.5486 5.97148C16.5486 5.97383 16.5486 5.97617 16.5486 5.9785C16.5486 5.98085 16.5486 5.98319 16.5486 5.98554C16.5486 5.98788 16.5486 5.99023 16.5486 5.99257C16.5486 5.99493 16.5486 5.99728 16.5486 5.99962C16.5486 6.00198 16.5486 6.00433 16.5486 6.00667C16.5486 6.00903 16.5486 6.01138 16.5486 6.01373C16.5486 6.01609 16.5486 6.01844 16.5486 6.0208C16.5486 6.02316 16.5486 6.02551 16.5486 6.02787C16.5486 6.03023 16.5486 6.03259 16.5486 6.03495C16.5486 6.03731 16.5486 6.03966 16.5486 6.04202C16.5486 6.04439 16.5486 6.04675 16.5486 6.04911C16.5486 6.05148 16.5486 6.05384 16.5486 6.05621C16.5486 6.05857 16.5486 6.06094 16.5486 6.0633C16.5486 6.06567 16.5486 6.06805 16.5486 6.07042C16.5486 6.07278 16.5486 6.07515 16.5486 6.07752C16.5486 6.07989 16.5486 6.08226 16.5486 6.08463C16.5486 6.08701 16.5486 6.08938 16.5486 6.09176C16.5486 6.09413 16.5486 6.09651 16.5486 6.09889C16.5486 6.10126 16.5486 6.10364 16.5486 6.10602C16.5486 6.10839 16.5486 6.11078 16.5486 6.11316C16.5486 6.11553 16.5486 6.11792 16.5486 6.1203C16.5486 6.12268 16.5486 6.12506 16.5486 6.12745C16.5486 6.12983 16.5486 6.13222 16.5486 6.1346C16.5486 6.13699 16.5486 6.13937 16.5486 6.14176C16.5486 6.14415 16.5486 6.14654 16.5486 6.14892C16.5486 6.15131 16.5486 6.15371 16.5486 6.15609C16.5486 6.15849 16.5486 6.16088 16.5486 6.16327C16.5486 6.16566 16.5486 6.16806 16.5486 6.17044C16.5486 6.17284 16.5486 6.17524 16.5486 6.17764C16.5486 6.18002 16.5486 6.18242 16.5486 6.18482C16.5486 6.18722 16.5486 6.18961 16.5486 6.19201C16.5486 6.19441 16.5486 6.19681 16.5486 6.19921C16.5486 6.20162 16.5486 6.20402 16.5486 6.20642C16.5486 6.20881 16.5486 6.21123 16.5486 6.21362C16.5486 6.21602 16.5486 6.21843 16.5486 6.22083C16.5486 6.22324 16.5486 6.22565 16.5486 6.22805C16.5486 6.23046 16.5486 6.23286 16.5486 6.23527C16.5486 6.23769 16.5486 6.2401 16.5486 6.24251C16.5486 6.24491 16.5486 6.24732 16.5486 6.24973C16.5486 6.25214 16.5486 6.25455 16.5486 6.25696C16.5486 6.25938 16.5486 6.2618 16.5486 6.26421C16.5486 6.26662 16.5486 6.26903 16.5486 6.27146C16.5486 6.27387 16.5486 6.27628 16.5486 6.27871C16.5486 6.28112 16.5486 6.28353 16.5486 6.28596C16.5486 6.28837 16.5486 6.29079 16.5486 6.29322C16.5486 6.29563 16.5486 6.29805 16.5486 6.30048C16.5486 6.30289 16.5486 6.30531 16.5486 6.30774C16.5486 6.31016 16.5486 6.31258 16.5486 6.315C16.5486 6.31742 16.5486 6.31985 16.5486 6.32227C16.5486 6.3247 16.5486 6.32712 16.5486 6.32955C16.5486 6.33199 16.5486 6.33441 16.5486 6.33684C16.5486 6.33926 16.5486 6.34168 16.5486 6.34412C16.5486 6.34655 16.5486 6.34897 16.5486 6.35141C16.5486 6.35383 16.5486 6.35626 16.5486 6.3587C16.5486 6.36112 16.5486 6.36356 16.5486 6.366C16.5486 6.36842 16.5486 6.37086 16.5486 6.37329C16.5486 6.37572 16.5486 6.37816 16.5486 6.3806C16.5486 6.38303 16.5486 6.38546 16.5486 6.3879C16.5486 6.39034 16.5486 6.39278 16.5486 6.39521C16.5486 6.39765 16.5486 6.40008 16.5486 6.40253C16.5486 6.40497 16.5486 6.40741 16.5486 6.40984C16.5486 6.41228 16.5486 6.41472 16.5486 6.41716C16.5486 6.4196 16.5486 6.42203 16.5486 6.42448C16.5486 6.42692 16.5486 6.42936 16.5486 6.43181C16.5486 6.43425 16.5486 6.43669 16.5486 6.43914C16.5486 6.44158 16.5486 6.44403 16.5486 6.44647C16.5486 6.44892 16.5486 6.45135 16.5486 6.45381C16.5486 6.45624 16.5486 6.4587 16.5486 6.46115C16.5486 6.46358 16.5486 6.46604 16.5486 6.46849C16.5486 6.47093 16.5486 6.47338 16.5486 6.47583C16.5486 6.47828 16.5486 6.48073 16.5486 6.48317C16.5486 6.48562 16.5486 6.48807 16.5486 6.49052C16.5486 6.49297 16.5486 6.49542 16.5486 6.49788C16.5486 6.50033 16.5486 6.50278 16.5486 6.50523C16.5486 6.50768 16.5486 6.51013 16.5486 6.51258C16.5486 6.51505 16.5486 6.5175 16.5486 6.51995C16.5486 6.5224 16.5486 6.52485 16.5486 6.52732C16.5486 6.52977 16.5486 6.53222 16.5486 6.53468C16.5486 6.53714 16.5486 6.53959 16.5486 6.54205C16.5486 6.5445 16.5486 6.54695 16.5486 6.54942C16.5486 6.55187 16.5486 6.55433 16.5486 6.55679C16.5486 6.55925 16.5486 6.5617 16.5486 6.56417C16.5486 6.56662 16.5486 6.56908 16.5486 6.57155C16.5486 6.574 16.5486 6.57646 16.5486 6.57893C16.5486 6.58138 16.5486 6.58384 16.5486 6.58631C16.5486 6.58876 16.5486 6.59122 16.5486 6.59369C16.5486 6.59615 16.5486 6.59862 16.5486 6.60107C16.5486 6.60353 16.5486 6.606 16.5486 6.60846C16.5486 6.61092 16.5486 6.61339 16.5486 6.61585C16.5486 6.61832 16.5486 6.62078 16.5486 6.62325C16.5486 6.62571 16.5486 6.62818 16.5486 6.63064C16.5486 6.6331 16.5486 6.63557 16.5486 6.63803C16.5486 6.6405 16.5486 6.64296 16.5486 6.64543C16.5486 6.64789 16.5486 6.65036 16.5486 6.65282C16.5486 6.6553 16.5486 6.65776 16.5486 6.66023C16.5486 6.66269 16.5486 6.66516 16.5486 6.66764C16.5486 6.6701 16.5486 6.67256 16.5486 6.67503C16.5486 6.67751 16.5486 6.67997 16.5486 6.68243C16.5486 6.68491 16.5486 6.68738 16.5486 6.68984C16.5486 6.69232 16.5486 6.69478 16.5486 6.69725C16.5486 6.69973 16.5486 6.70219 16.5486 6.70467C16.5486 6.70713 16.5486 6.7096 16.5486 6.71208C16.5486 6.71454 16.5486 6.71702 16.5486 6.71948C16.5486 6.72196 16.5486 6.72442 16.5486 6.7269C16.5486 6.72937 16.5486 6.73184 16.5486 6.73431C16.5486 6.73679 16.5486 6.73926 16.5486 6.74173C16.5486 6.74421 16.5486 6.74667 16.5486 6.74915C16.5486 6.75161 16.5486 6.75409 16.5486 6.75657C16.5486 6.75903 16.5486 6.76151 16.5486 6.76399C16.5486 6.76645 16.5486 6.76893 16.5486 6.77141C16.5486 6.77387 16.5486 6.77635 16.5486 6.77883C16.5486 6.78129 16.5486 6.78377 16.5486 6.78625C16.5486 6.78871 16.5486 6.79119 16.5486 6.79367C16.5486 6.79615 16.5486 6.79861 16.5486 6.80109C16.5486 6.80357 16.5486 6.80604 16.5486 6.80851C16.5486 6.81099 16.5486 6.81346 16.5486 6.81594C16.5486 6.81841 16.5486 6.82088 16.5486 6.82336C16.5486 6.82584 16.5486 6.8283 16.5486 6.83078C16.5486 6.83326 16.5486 6.83574 16.5486 6.83822C16.5486 6.84069 16.5486 6.84316 16.5486 6.84564C16.5486 6.84811 16.5486 6.85059 16.5486 6.85307C16.5486 6.85553 16.5486 6.85801 16.5486 6.86049C16.5486 6.86297 16.5486 6.86544 16.5486 6.86792C16.5486 6.8704 16.5486 6.87286 16.5486 6.87534C16.5486 6.87782 16.5486 6.8803 16.5486 6.88278C16.5486 6.88525 16.5486 6.88772 16.5486 6.8902C16.5486 6.89267 16.5486 6.89515 16.5486 6.89763C16.5486 6.90011 16.5486 6.90258 16.5486 6.90505C16.5486 6.90753 16.5486 6.91 16.5486 6.91248C16.5486 6.91496 16.5486 6.91744 16.5486 6.91991C16.5486 6.92238 16.5486 6.92486 16.5486 6.92733C16.5486 6.92981 16.5486 6.93229 16.5486 6.93477C16.5486 6.93725 16.5486 6.93971 16.5486 6.94219C16.5486 6.94467 16.5486 6.94714 16.5486 6.94962C16.5486 6.9521 16.5486 6.95456 16.5486 6.95704C16.5486 6.95952 16.5486 6.962 16.5486 6.96447C16.5486 6.96694 16.5486 6.96942 16.5486 6.97189C16.5486 6.97437 16.5486 6.97685 16.5486 6.97931C16.5486 6.98179 16.5486 6.98427 16.5486 6.98675C16.5486 6.98923 16.5486 6.99169 16.5486 6.99417C16.5486 6.99665 16.5486 6.99912 16.5486 7.00159C16.5486 7.00407 16.5486 7.00654 16.5486 7.00901C16.5486 7.01149 16.5486 7.01396 16.5486 7.01644C16.5486 7.01891 16.5486 7.02138 16.5486 7.02386C16.5486 7.02633 16.5486 7.0288 16.5486 7.03128C16.5486 7.03375 16.5486 7.03622 16.5486 7.0387C16.5486 7.04117 16.5486 7.04364 16.5486 7.04612C16.5486 7.04859 16.5486 7.05106 16.5486 7.05353C16.5486 7.05601 16.5486 7.05848 16.5486 7.06095C16.5486 7.06343 16.5486 7.06589 16.5486 7.06837C16.5486 7.07083 16.5486 7.07331 16.5486 7.07577C16.5486 7.07825 16.5486 7.08072 16.5486 7.08319C16.5486 7.08566 16.5486 7.08814 16.5486 7.0906C16.5486 7.09308 16.5486 7.09554 16.5486 7.09801C16.5486 7.10049 16.5486 7.10295 16.5486 7.10543C16.5486 7.10789 16.5486 7.11036 16.5486 7.11283C16.5486 7.1153 16.5486 7.11776 16.5486 7.12024C16.5486 7.12271 16.5486 7.12517 16.5486 7.12765C16.5486 7.13011 16.5486 7.13258 16.5486 7.13504C16.5486 7.13752 16.5486 7.13998 16.5486 7.14245C16.5486 7.14491 16.5486 7.14738 16.5486 7.14985C16.5486 7.15232 16.5486 7.15478 16.5486 7.15725C16.5486 7.15971 16.5486 7.16218 16.5486 7.16464C16.5486 7.16711 16.5486 7.16957 16.5486 7.17204C16.5486 7.1745 16.5486 7.17696 16.5486 7.17943C16.5486 7.18189 16.5486 7.18436 16.5486 7.18682C16.5486 7.18929 16.5486 7.19175 16.5486 7.19422C16.5486 7.19668 16.5486 7.19915 16.5486 7.2016C16.5486 7.20406 16.5486 7.20653 16.5486 7.20899C16.5486 7.21145 16.5486 7.21391 16.5486 7.21637C16.5486 7.21884 16.5486 7.22129 16.5486 7.22375C16.5486 7.22621 16.5486 7.22867 16.5486 7.23113C16.5486 7.2336 16.5486 7.23605 16.5486 7.23851C16.5486 7.24096 16.5486 7.24343 16.5486 7.24588C16.5486 7.24834 16.5486 7.25079 16.5486 7.25326C16.5486 7.25571 16.5486 7.25817 16.5486 7.26062C16.5486 7.26308 16.5486 7.26554 16.5486 7.26799C16.5486 7.27044 16.5486 7.27291 16.5486 7.27536C16.5486 7.27781 16.5486 7.28026 16.5486 7.28273C16.5486 7.28518 16.5486 7.28763 16.5486 7.29008C16.5486 7.29253 16.5486 7.29498 16.5486 7.29743C16.5486 7.29989 16.5486 7.30234 16.5486 7.30479C16.5486 7.30724 16.5486 7.30969 16.5486 7.31214C16.5486 7.31459 16.5486 7.31704 16.5486 7.31949C16.5486 7.32195 16.5486 7.3244 16.5486 7.32684C16.5486 7.32929 16.5486 7.33174 16.5486 7.33419C16.5486 7.33663 16.5486 7.33908 16.5486 7.34153C16.5486 7.34397 16.5486 7.34642 16.5486 7.34886C16.5486 7.35131 16.5486 7.35376 16.5486 7.3562C16.5486 7.35864 16.5486 7.36109 16.5486 7.36353C16.5486 7.36598 16.5486 7.36841 16.5486 7.37085C16.5486 7.3733 16.5486 7.37574 16.5486 7.37818C16.5486 7.38063 16.5486 7.38307 16.5486 7.38551C16.5486 7.38795 16.5486 7.39038 16.5486 7.39282C16.5486 7.39526 16.5486 7.3977 16.5486 7.40013C16.5486 7.40257 16.5486 7.40501 16.5486 7.40745C16.5486 7.40989 16.5486 7.41232 16.5486 7.41476C16.5486 7.4172 16.5486 7.41963 16.5486 7.42206C16.5486 7.4245 16.5486 7.42694 16.5486 7.42936C16.5486 7.4318 16.5486 7.43424 16.5486 7.43666C16.5486 7.4391 16.5486 7.44153 16.5486 7.44397C16.5486 7.44639 16.5486 7.44883 16.5486 7.45125C16.5486 7.45368 16.5486 7.45612 16.5486 7.45854C16.5486 7.46097 16.5486 7.46339 16.5486 7.46583C16.5486 7.46825 16.5486 7.47068 16.5486 7.4731C16.5486 7.47553 16.5486 7.47795 16.5486 7.48038C16.5486 7.4828 16.5486 7.48523 16.5486 7.48765C16.5486 7.49008 16.5486 7.4925 16.5486 7.49491C16.5486 7.49734 16.5486 7.49976 16.5486 7.50219C16.5486 7.5046 16.5486 7.50702 16.5486 7.50945C16.5486 7.51186 16.5486 7.51428 16.5486 7.51669C16.5486 7.51912 16.5486 7.52153 16.5486 7.52396C16.5486 7.52637 16.5486 7.52878 16.5486 7.5312C16.5486 7.53362 16.5486 7.53603 16.5486 7.53844C16.5486 7.54085 16.5486 7.54326 16.5486 7.54569C16.5486 7.5481 16.5486 7.55051 16.5486 7.55292C16.5486 7.55532 16.5486 7.55773 16.5486 7.56014C16.5486 7.56255 16.5486 7.56496 16.5486 7.56738C16.5486 7.56977 16.5486 7.57219 16.5486 7.5746C16.5486 7.577 16.5486 7.57941 16.5486 7.58181C16.5486 7.58422 16.5486 7.58661 16.5486 7.58901C16.5486 7.59142 16.5486 7.59382 16.5486 7.59622C16.5486 7.59863 16.5486 7.60103 16.5486 7.60343C16.5486 7.60583 16.5486 7.60823 16.5486 7.61062C16.5486 7.61302 16.5486 7.61542 16.5486 7.61782C16.5486 7.62022 16.5486 7.62262 16.5486 7.62501C16.5486 7.6274 16.5486 7.6298 16.5486 7.63219C16.5486 7.63458 16.5486 7.63698 16.5486 7.63938C16.5486 7.64176 16.5486 7.64416 16.5486 7.64654C16.5486 7.64893 16.5486 7.65133 16.5486 7.65371C16.5486 7.6561 16.5486 7.65848 16.5486 7.66088C16.5486 7.66327 16.5486 7.66565 16.5486 7.66804C16.5486 7.67042 16.5486 7.67281 16.5486 7.67519C16.5486 7.67756 16.5486 7.67995 16.5486 7.68233C16.5486 7.68472 16.5486 7.68709 16.5486 7.68947C16.5486 7.69186 16.5486 7.69423 16.5486 7.69662C16.5486 7.69899 16.5486 7.70137 16.5486 7.70375C16.5486 7.70612 16.5486 7.7085 16.5486 7.71087C16.5486 7.71325 16.5486 7.71562 16.5486 7.71799C16.5486 7.72036 16.5486 7.72273 16.5486 7.7251C16.5486 7.72748 16.5486 7.72985 16.5486 7.73222C16.5486 7.73458 16.5486 7.73695 16.5486 7.73932C16.5486 7.74168 16.5486 7.74405 16.5486 7.74642C16.5486 7.74878 16.5486 7.75114 16.5486 7.75351C16.5486 7.75587 16.5486 7.75823 16.5486 7.7606C16.5486 7.76296 16.5486 7.76532 16.5486 7.76768C16.5486 7.77003 16.5486 7.77239 16.5486 7.77475C16.5486 7.77711 16.5486 7.77947 16.5486 7.78181C16.5486 7.78417 16.5486 7.78653 16.5486 7.78889C16.5486 7.79123 16.5486 7.79359 16.5486 7.79594C16.5486 7.7983 16.5486 7.80064 16.5486 7.80299C16.5486 7.80535 16.5486 7.80769 16.5486 7.81004C16.5486 7.81238 16.5486 7.81473 16.5486 7.81707C16.5486 7.81942 16.5486 7.82176 16.5486 7.82411C16.5486 7.82645 16.5486 7.82879 16.5486 7.83113C16.5486 7.83348 16.5486 7.83581 16.5486 7.83815C16.5486 7.84048 16.5486 7.84283 16.5486 7.84516C16.5486 7.84749 16.5486 7.84984 16.5486 7.85217C16.5486 7.8545 16.5486 7.85683 16.5486 7.85917C16.5486 7.8615 16.5486 7.86383 16.5486 7.86616C16.5486 7.8685 16.5486 7.87083 16.5486 7.87315C16.5486 7.87548 16.5486 7.87781 16.5486 7.88013C16.5486 7.88246 16.5486 7.88478 16.5486 7.88711C16.5486 7.88943 16.5486 7.89175 16.5486 7.89407C16.5486 7.8964 16.5486 7.89872 16.5486 7.90104C16.5486 7.90336 16.5486 7.90567 16.5486 7.90798C16.5486 7.9103 16.5486 7.91262 16.5486 7.91494C16.5486 7.91724 16.5486 7.91956 16.5486 7.92187C16.5486 7.92419 16.5486 7.92649 16.5486 7.92881C16.5486 7.93112 16.5486 7.93342 16.5486 7.93573C16.5486 7.93803 16.5486 7.94034 16.5486 7.94264C16.5486 7.94495 16.5486 7.94725 16.5486 7.94956C16.5486 7.95186 16.5486 7.95416 16.5486 7.95646C16.5486 7.95877 16.5486 7.96106 16.5486 7.96336C16.5486 7.96566 16.5486 7.96795 16.5486 7.97024C16.5486 7.97255 16.5486 7.97484 16.5486 7.97713C16.5486 7.97942 16.5486 7.98172 16.5486 7.98401C16.5486 7.9863 16.5486 7.98858 16.5486 7.99087C16.5486 7.99316 16.5486 7.99544 16.5486 7.99774C16.5486 8.00002 16.5486 8.00231 16.5486 8.00459C16.5486 8.00687 16.5486 8.00914 16.5486 8.01142C16.5486 8.01372 16.5486 8.01599 16.5486 8.01826C16.5486 8.02054 16.5486 8.02282 16.5486 8.0251C16.5486 8.02738 16.5486 8.02964 16.5486 8.03192C16.5486 8.03419 16.5486 8.03647 16.5486 8.03873C16.5486 8.041 16.5486 8.04326 16.5486 8.04554C16.5486 8.04781 16.5486 8.05007 16.5486 8.05234C16.5486 8.0546 16.5486 8.05686 16.5486 8.05912C16.5486 8.06139 16.5486 8.06364 16.5486 8.06591C16.5486 8.06816 16.5486 8.07043 16.5486 8.07268C16.5486 8.07494 16.5486 8.0772 16.5486 8.07945C16.5486 8.0817 16.5486 8.08395 16.5486 8.08621C16.5486 8.08846 16.5486 8.09071 16.5486 8.09295C16.5486 8.0952 16.5486 8.09745 16.5486 8.09969C16.5486 8.10195 16.5486 8.10419 16.5486 8.10643C16.5486 8.10868 16.5486 8.11092 16.5486 8.11316C16.5486 8.1154 16.5486 8.11763 16.5486 8.11987C16.5486 8.12211 16.5486 8.12434 16.5486 8.12658C16.5486 8.12882 16.5486 8.13104 16.5486 8.13328C16.5486 8.13551 16.5486 8.13774 16.5486 8.13997C16.5486 8.1422 16.5486 8.14443 16.5486 8.14665C16.5486 8.14888 16.5486 8.1511 16.5486 8.15333C16.5486 8.15554 16.5486 8.15777 16.5486 8.16C16.5486 8.16221 16.5486 8.16443 16.5486 8.16665C16.5486 8.16886 16.5486 8.17111 16.5486 8.17323C16.5486 8.17548 16.5486 8.17774 16.5486 8.17999C16.5486 8.18211 16.5486 8.18436 16.5486 8.18661C16.5486 8.18873 16.5486 8.19099 16.5486 8.19324C16.5486 8.19536 16.5486 8.19761 16.5486 8.19973C16.5486 8.20198 16.5486 8.20424 16.5486 8.20636C16.5486 8.20861 16.5486 8.21073 16.5486 8.21298C16.5486 8.21524 16.5486 8.21736 16.5486 8.21961C16.5486 8.22173 16.5486 8.22398 16.5486 8.2261C16.5486 8.22835 16.5486 8.23047 16.5486 8.23273C16.5486 8.23485 16.5486 8.2371 16.5486 8.23922C16.5486 8.24147 16.5486 8.24359 16.5486 8.24584C16.5486 8.24796 16.5486 8.25021 16.5486 8.25233C16.5486 8.25459 16.5486 8.25671 16.5486 8.25883C16.5486 8.26108 16.5486 8.2632 16.5486 8.26545C16.5486 8.26757 16.5486 8.26969 16.5486 8.27194C16.5486 8.27406 16.5486 8.27632 16.5486 8.27844C16.5486 8.28056 16.5486 8.28281 16.5486 8.28493C16.5486 8.28705 16.5486 8.28917 16.5486 8.29142C16.5486 8.29354 16.5486 8.29566 16.5486 8.29791C16.5486 8.30003 16.5486 8.30216 16.5486 8.30428C16.5486 8.30653 16.5486 8.30865 16.5486 8.31077C16.5486 8.31289 16.5486 8.31501 16.5486 8.31726C16.5486 8.31938 16.5486 8.3215 16.5486 8.32362C16.5486 8.32574 16.5486 8.32799 16.5486 8.33011C16.5486 8.33223 16.5486 8.33435 16.5486 8.33647C16.5486 8.33859 16.5486 8.34071 16.5486 8.34283C16.5486 8.34495 16.5486 8.3472 16.5486 8.34932C16.5486 8.35144 16.5486 8.35356 16.5486 8.35568C16.5486 8.3578 16.5486 8.35993 16.5486 8.36205C16.5486 8.36417 16.5486 8.36629 16.5486 8.36841C16.5486 8.37053 16.5486 8.37264 16.5486 8.37476C16.5486 8.37688 16.5486 8.379 16.5486 8.38112C16.5486 8.38324 16.5486 8.38536 16.5486 8.38735C16.5486 8.38947 16.5486 8.39159 16.5486 8.39371C16.5486 8.39583 16.5486 8.39795 16.5486 8.40007C16.5486 8.40219 16.5486 8.40418 16.5486 8.4063C16.5486 8.40842 16.5486 8.41054 16.5486 8.41266C16.5486 8.41478 16.5486 8.41677 16.5486 8.41889C16.5486 8.42101 16.5486 8.42313 16.5486 8.42512C16.5486 8.42724 16.5486 8.42935 16.5486 8.43147C16.5486 8.43346 16.5486 8.43558 16.5486 8.4377C16.5486 8.43969 16.5486 8.44181 16.5486 8.44393C16.5486 8.44592 16.5486 8.44804 16.5486 8.45016C16.5486 8.45214 16.5486 8.45426 16.5486 8.45638C16.5486 8.45837 16.5486 8.46049 16.5486 8.46248C16.5486 8.4646 16.5486 8.46672 16.5486 8.46871C16.5486 8.47083 16.5486 8.47281 16.5486 8.47493C16.5486 8.47692 16.5486 8.47904 16.5486 8.48103C16.5486 8.48315 16.5486 8.48514 16.5486 8.48726C16.5486 8.48924 16.5486 8.49136 16.5486 8.49335C16.5486 8.49547 16.5486 8.49746 16.5486 8.49945C16.5486 8.50157 16.5486 8.50355 16.5486 8.50567C16.5486 8.50766 16.5486 8.50965 16.5486 8.51177C16.5486 8.51376 16.5486 8.51574 16.5486 8.51786C16.5486 8.51985 16.5486 8.52184 16.5486 8.52396C16.5486 8.52595 16.5486 8.52793 16.5486 8.53005C16.5486 8.53204 16.5486 8.53403 16.5486 8.53602C16.5486 8.53814 16.5486 8.54012 16.5486 8.54211C16.5486 8.5441 16.5486 8.54609 16.5486 8.54821C16.5486 8.55019 16.5486 8.55218 16.5486 8.55417C16.5486 8.55616 16.5486 8.55814 16.5486 8.56026C16.5486 8.56225 16.5486 8.56424 16.5486 8.56623C16.5486 8.56821 16.5486 8.5702 16.5486 8.57219C16.5486 8.57418 16.5486 8.57616 16.5486 8.57815C16.5486 8.58014 16.5486 8.58213 16.5486 8.58411C16.5486 8.5861 16.5486 8.58809 16.5486 8.59008C16.5486 8.59206 16.5486 8.59405 16.5486 8.59604C16.5486 8.59803 16.5486 8.60002 16.5486 8.602C16.5486 8.60399 16.5486 8.60598 16.5486 8.60796C16.5486 8.60982 16.5486 8.61181 16.5486 8.61379C16.5486 8.61578 16.5486 8.61777 16.5486 8.61976C16.5486 8.62175 16.5486 8.6236 16.5486 8.62559C16.5486 8.62757 16.5486 8.62956 16.5486 8.63142C16.5486 8.6334 16.5486 8.63539 16.5486 8.63738C16.5486 8.63924 16.5486 8.64122 16.5486 8.64321C16.5486 8.64506 16.5486 8.64705 16.5486 8.64904C16.5486 8.65089 16.5486 8.65288 16.5486 8.65487C16.5486 8.65672 16.5486 8.65871 16.5486 8.6607C16.5486 8.66256 16.5486 8.66454 16.5486 8.6664C16.5486 8.66838 16.5486 8.67024 16.5486 8.67223C16.5486 8.67421 16.5486 8.67607 16.5486 8.67806C16.5486 8.67991 16.5486 8.6819 16.5486 8.68375C16.5486 8.68561 16.5486 8.6876 16.5486 8.68945C16.5486 8.69144 16.5486 8.69329 16.5486 8.69528C16.5486 8.69714 16.5486 8.69899 16.5486 8.70098C16.5486 8.70283 16.5486 8.70469 16.5486 8.70668C16.5486 8.70853 16.5486 8.71039 16.5486 8.71237C16.5486 8.71423 16.5486 8.71608 16.5486 8.71807C16.5486 8.71993 16.5486 8.72178 16.5486 8.72364C16.5486 8.72562 16.5486 8.72748 16.5486 8.72933C16.5486 8.73119 16.5486 8.73305 16.5486 8.73503C16.5486 8.73689 16.5486 8.73874 16.5486 8.7406C16.5486 8.74245 16.5486 8.74431 16.5486 8.74616C16.5486 8.74815 16.5486 8.75001 16.5486 8.75186C16.5486 8.75372 16.5486 8.75557 16.5486 8.75743C16.5486 8.75928 16.5486 8.76114 16.5486 8.76299C16.5486 8.76485 16.5486 8.7667 16.5486 8.76856C16.5486 8.77041 16.5486 8.77227 16.5486 8.77412C16.5486 8.77598 16.5486 8.77783 16.5486 8.77969C16.5486 8.78141 16.5486 8.78326 16.5486 8.78512C16.5486 8.78697 16.5486 8.78883 16.5486 8.79068C16.5486 8.79254 16.5486 8.79426 16.5486 8.79611C16.5486 8.79797 16.5486 8.79982 16.5486 8.80155C16.5486 8.8034 16.5486 8.80526 16.5486 8.80711C16.5486 8.80883 16.5486 8.81069 16.5486 8.81254C16.5486 8.81427 16.5486 8.81612 16.5486 8.81798C16.5486 8.8197 16.5486 8.82156 16.5486 8.82341C16.5486 8.82513 16.5486 8.82699 16.5486 8.82884C16.5486 8.83056 16.5486 8.83242 16.5486 8.83414C16.5486 8.836 16.5486 8.83772 16.5486 8.83957C16.5486 8.8413 16.5486 8.84315 16.5486 8.84488C16.5486 8.84673 16.5486 8.84845 16.5486 8.85031C16.5486 8.85203 16.5486 8.85388 16.5486 8.85561C16.5486 8.85733 16.5486 8.85918 16.5486 8.86091H18.5361ZM18.5361 5.35236C18.5361 5.26082 18.6095 5.18867 18.6988 5.18867V3.20117C17.5106 3.20117 16.5486 4.16442 16.5486 5.35236H18.5361ZM18.6988 5.18867H32.5428V3.20117H18.6988V5.18867ZM32.5428 5.18867C32.6311 5.18867 32.7055 5.2607 32.7055 5.35329H34.693C34.693 4.16637 33.7322 3.20117 32.5428 3.20117V5.18867ZM32.7055 5.35329V8.86091H34.693V5.35329H32.7055ZM33.6993 7.86717H23.4578V9.85466H33.6993V7.86717ZM32.7055 8.86091C32.7055 10.004 33.1383 11.0012 33.5852 11.8553C34.0684 12.7785 34.5166 13.4621 34.8597 14.3008L36.6992 13.5482C36.3127 12.6037 35.7207 11.6495 35.3463 10.9337C34.9355 10.1489 34.693 9.50605 34.693 8.86091H32.7055ZM34.8597 14.3008C35.6455 16.2211 36.1308 19.4521 36.3334 23.4506C36.5341 27.4146 36.4532 32.0216 36.166 36.6214L38.1497 36.7452C38.44 32.0937 38.5239 27.4088 38.3182 23.35C38.1145 19.3259 37.622 15.803 36.6992 13.5482L34.8597 14.3008ZM36.166 36.6214C36.161 36.702 36.0938 36.7678 36.0081 36.7678V38.7553C37.1377 38.7553 38.079 37.8792 38.1497 36.7452L36.166 36.6214ZM36.0081 36.7678H28.7789V38.7553H36.0081V36.7678ZM33.4685 19.3247C33.4685 19.3151 33.4682 19.3509 33.4444 19.4193C33.422 19.4833 33.3884 19.5475 33.349 19.6C33.3097 19.6522 33.2753 19.679 33.2538 19.6912C33.2378 19.7004 33.2218 19.7063 33.192 19.7063V21.6938C34.0029 21.6938 34.5893 21.2576 34.9374 20.7945C35.2668 20.3566 35.456 19.8063 35.456 19.3247H33.4685ZM33.192 19.7063C33.292 19.7063 33.3276 19.7577 33.3127 19.7386C33.2958 19.7171 33.2224 19.6025 33.2224 19.3247H31.2349C31.2349 20.5332 31.9472 21.6938 33.192 21.6938V19.7063ZM33.2224 19.3247C33.2224 19.3343 33.2226 19.2987 33.2465 19.2303C33.2689 19.1663 33.3025 19.1021 33.3419 19.0495C33.3812 18.9974 33.4157 18.9705 33.4371 18.9583C33.4532 18.9492 33.4693 18.9432 33.4991 18.9432V16.9557C32.6882 16.9557 32.1017 17.3919 31.7535 17.8549C31.4243 18.2928 31.2349 18.8429 31.2349 19.3247H33.2224ZM33.4991 18.9432C33.3939 18.9432 33.3596 18.8899 33.3772 18.9125C33.3951 18.9353 33.4685 19.0499 33.4685 19.3247H35.456C35.456 18.1122 34.7344 16.9557 33.4991 16.9557V18.9432ZM28.7903 21.0525C28.8755 20.9607 28.9304 20.8686 28.9505 20.834C28.9781 20.7869 29.0012 20.7416 29.0181 20.7076C29.0496 20.644 29.0856 20.5645 29.1027 20.5276L27.2995 19.6917C27.2928 19.7061 27.286 19.7209 27.2799 19.734C27.2737 19.7475 27.2681 19.7597 27.2626 19.7716C27.2513 19.7958 27.2431 19.8133 27.2366 19.8265C27.2334 19.8327 27.2316 19.8363 27.2309 19.8377C27.23 19.8393 27.2314 19.8367 27.2349 19.8307C27.2367 19.8275 27.2395 19.8229 27.2432 19.8169C27.2469 19.8111 27.2521 19.803 27.2589 19.7933C27.2654 19.7837 27.2745 19.7709 27.2862 19.7561C27.2976 19.7414 27.3136 19.7219 27.3343 19.6997L28.7903 21.0525ZM29.1096 20.5123C29.2107 20.2841 29.2737 20.1646 29.3628 20.0787C29.4148 20.0288 29.5279 19.9356 29.8507 19.9356V17.9481C29.0415 17.9481 28.4262 18.2216 27.9844 18.6468C27.5799 19.0362 27.3841 19.5005 27.2925 19.7069L29.1096 20.5123ZM29.8507 19.9356C30.1641 19.9356 30.2739 20.0265 30.3257 20.0766C30.415 20.1631 30.4784 20.2838 30.5797 20.5125L32.3966 19.7067C32.3053 19.5008 32.1098 19.0377 31.7085 18.6489C31.2695 18.2239 30.657 17.9481 29.8507 17.9481V19.9356ZM30.5866 20.5276C30.6037 20.5645 30.6397 20.644 30.6711 20.7076C30.688 20.7416 30.7112 20.7869 30.7387 20.834C30.759 20.8686 30.8132 20.96 30.8982 21.0518L32.3549 19.6997C32.3756 19.7219 32.3917 19.7414 32.403 19.7561C32.4147 19.7709 32.4238 19.7837 32.4305 19.7933C32.4371 19.803 32.4423 19.8111 32.446 19.8169C32.4497 19.8229 32.4525 19.8275 32.4543 19.8307C32.4578 19.8367 32.4592 19.8393 32.4584 19.8377C32.4576 19.8363 32.4558 19.8327 32.4527 19.8265C32.4462 19.8133 32.4379 19.7958 32.4266 19.7716C32.4212 19.7597 32.4155 19.7475 32.4093 19.734C32.4032 19.7209 32.3966 19.7061 32.3898 19.6917L30.5866 20.5276ZM30.8982 21.0518C30.978 21.1375 31.0612 21.1993 31.0975 21.2257C31.1446 21.2596 31.1919 21.2907 31.2308 21.3155C31.3046 21.3624 31.3978 21.418 31.4534 21.4518L32.4863 19.7537C32.4676 19.7423 32.4488 19.7309 32.4311 19.7203C32.4131 19.7095 32.3966 19.6994 32.3801 19.6894C32.3469 19.6693 32.32 19.6527 32.2978 19.6386C32.287 19.6317 32.2786 19.6262 32.2725 19.6221C32.2662 19.6179 32.2638 19.6162 32.2646 19.6168C32.2648 19.617 32.2724 19.6224 32.2845 19.6325C32.2948 19.641 32.3222 19.6644 32.3549 19.6997L30.8982 21.0518ZM31.4579 21.4545L31.466 21.4594L32.4898 19.7558L32.4818 19.7509L31.4579 21.4545ZM31.4692 21.4612C31.7399 21.6225 31.9397 21.7481 32.0856 21.9021C32.2051 22.0282 32.2584 22.1415 32.2584 22.3023H34.2459C34.2459 20.7297 32.9182 20.011 32.4863 19.7537L31.4692 21.4612ZM32.2584 22.3023C32.2584 22.7021 32.1374 22.8399 32.0836 22.8883C32.0083 22.956 31.8716 23.0148 31.6748 23.0148V25.0023C32.2366 25.0023 32.8884 24.8372 33.4123 24.3664C33.9574 23.8763 34.2459 23.1612 34.2459 22.3023H32.2584ZM31.6748 23.0148C31.5295 23.0148 31.4457 22.9882 31.3913 22.9646C31.3249 22.9358 31.2666 22.8973 31.1454 22.8092L29.9766 24.4167C30.2649 24.6263 30.7861 25.0023 31.6748 25.0023V23.0148ZM31.1517 22.8137C31.0553 22.7425 30.8772 22.6076 30.6482 22.5089C30.3965 22.4004 30.1331 22.353 29.8446 22.353V24.3405C29.8793 24.3405 29.8914 24.3432 29.8882 24.3426C29.883 24.3417 29.8724 24.3387 29.8612 24.334C29.8516 24.3299 29.852 24.3287 29.8689 24.3395C29.8897 24.3531 29.916 24.3719 29.9703 24.412L31.1517 22.8137ZM29.8446 22.353C29.5562 22.353 29.2926 22.4004 29.0409 22.5089C28.8118 22.6078 28.6337 22.7426 28.5374 22.8139L29.7191 24.4119C29.7735 24.3717 29.7998 24.3529 29.8205 24.3395C29.8372 24.3287 29.8376 24.3297 29.8279 24.334C29.8166 24.3387 29.806 24.3417 29.8009 24.3426C29.7977 24.3432 29.8098 24.3405 29.8446 24.3405V22.353ZM28.5534 22.8023C28.4197 22.897 28.3627 22.9354 28.2942 22.9652C28.2408 22.9884 28.1591 23.0148 28.0144 23.0148V25.0023C28.9054 25.0023 29.4227 24.6223 29.7031 24.4235L28.5534 22.8023ZM28.0144 23.0148C27.8132 23.0148 27.6777 22.9553 27.6043 22.8892C27.5518 22.8419 27.4309 22.7044 27.4309 22.3023H25.4434C25.4434 23.1588 25.7288 23.8745 26.2737 24.3656C26.7979 24.838 27.451 25.0023 28.0144 25.0023V23.0148ZM27.4309 22.3023C27.4309 22.1399 27.4853 22.0241 27.6067 21.8962C27.7531 21.7423 27.955 21.6157 28.22 21.4611L27.2187 19.7443C26.7787 20.001 25.4434 20.7226 25.4434 22.3023H27.4309ZM28.2363 21.4514C28.2912 21.418 28.3849 21.3621 28.4583 21.3155C28.4971 21.2908 28.5445 21.2597 28.5914 21.2258C28.6277 21.1994 28.7104 21.1383 28.7903 21.0525L27.3343 19.6997C27.3671 19.6643 27.3947 19.6408 27.4049 19.6323C27.4171 19.6223 27.4246 19.6168 27.4249 19.6167C27.4256 19.616 27.4233 19.6178 27.4169 19.622C27.4107 19.6262 27.4024 19.6317 27.3915 19.6386C27.3692 19.6527 27.3422 19.6693 27.309 19.6894C27.2925 19.6995 27.2758 19.7096 27.2578 19.7205C27.2402 19.7312 27.2214 19.7424 27.2026 19.754L28.2363 21.4514ZM28.3459 17.3397C28.3459 17.0618 28.4193 16.9472 28.4361 16.9258C28.451 16.9067 28.4153 16.9581 28.3154 16.9581V14.9706C27.0707 14.9706 26.3584 16.131 26.3584 17.3397H28.3459ZM28.3154 16.9581C28.3479 16.9581 28.3648 16.9646 28.3805 16.9736C28.4014 16.9854 28.4351 17.0116 28.4736 17.063C28.5124 17.1148 28.5454 17.1786 28.5677 17.2426C28.5914 17.3108 28.5919 17.3475 28.5919 17.3397H30.5794C30.5794 16.8611 30.3937 16.3111 30.0642 15.8712C29.715 15.4053 29.1278 14.9706 28.3154 14.9706V16.9581ZM28.5919 17.3397C28.5919 17.6175 28.5184 17.7322 28.5017 17.7536C28.4869 17.7726 28.5225 17.7212 28.6226 17.7212V19.7087C29.8673 19.7087 30.5794 18.5481 30.5794 17.3397H28.5919ZM28.6226 17.7212C28.59 17.7212 28.573 17.7145 28.5574 17.7057C28.5364 17.6937 28.5026 17.6675 28.4642 17.6162C28.4253 17.5643 28.3923 17.5007 28.37 17.4367C28.3463 17.3684 28.3459 17.3317 28.3459 17.3397H26.3584C26.3584 17.8182 26.544 18.3682 26.8737 18.8081C27.2228 19.2739 27.8101 19.7087 28.6226 19.7087V17.7212ZM26.2148 19.3247C26.2148 19.0468 26.2882 18.9323 26.305 18.9107C26.32 18.8917 26.2842 18.9432 26.1842 18.9432V16.9557C24.9393 16.9557 24.2273 18.1164 24.2273 19.3247H26.2148ZM26.1842 18.9432C26.214 18.9432 26.23 18.9492 26.246 18.9583C26.2675 18.9705 26.3021 18.9974 26.3413 19.0495C26.3808 19.1021 26.4143 19.1663 26.4367 19.2303C26.4607 19.2987 26.4608 19.3343 26.4608 19.3247H28.4483C28.4483 18.8429 28.259 18.2928 27.9296 17.8549C27.5814 17.3919 26.9951 16.9557 26.1842 16.9557V18.9432ZM26.4608 19.3247C26.4608 19.6025 26.3873 19.7171 26.3705 19.7386C26.3556 19.7577 26.3913 19.7063 26.4913 19.7063V21.6938C27.736 21.6938 28.4483 20.5332 28.4483 19.3247H26.4608ZM26.4913 19.7063C26.4588 19.7063 26.4419 19.6998 26.4262 19.6908C26.4053 19.679 26.3715 19.6527 26.3331 19.6013C26.2943 19.5495 26.2611 19.4858 26.2389 19.4218C26.2153 19.3536 26.2148 19.3169 26.2148 19.3247H24.2273C24.2273 19.8033 24.4129 20.3533 24.7426 20.7932C25.0916 21.2589 25.6788 21.6938 26.4913 21.6938V19.7063ZM31.0852 17.3397C31.0852 17.3492 31.0853 17.3136 31.1093 17.2452C31.1317 17.1812 31.1652 17.117 31.2047 17.0644C31.2439 17.0123 31.2784 16.9854 31.2999 16.9732C31.316 16.9641 31.332 16.9581 31.3617 16.9581V14.9706C30.551 14.9706 29.9645 15.4068 29.6163 15.8697C29.2869 16.3077 29.0977 16.8579 29.0977 17.3397H31.0852ZM31.3617 16.9581C31.2634 16.9581 31.2294 16.9081 31.2445 16.9274C31.2604 16.9475 31.3331 17.0593 31.3313 17.3329L33.3186 17.3465C33.327 16.1247 32.6009 14.9706 31.3617 14.9706V16.9581ZM31.3313 17.3397C31.3313 17.33 31.331 17.3658 31.3071 17.434C31.2847 17.498 31.2512 17.5623 31.2116 17.6149C31.1724 17.667 31.1379 17.6939 31.1166 17.7061C31.1004 17.7152 31.0844 17.7212 31.0547 17.7212V19.7087C31.8656 19.7087 32.4519 19.2723 32.8001 18.8094C33.1294 18.3715 33.3188 17.8213 33.3188 17.3397H31.3313ZM31.0547 17.7212C31.1597 17.7212 31.194 17.7743 31.1764 17.7519C31.1586 17.7292 31.0852 17.6145 31.0852 17.3397H29.0977C29.0977 18.5525 29.8193 19.7087 31.0547 19.7087V17.7212ZM26.7612 28.1883H32.9219V26.2008H26.7612V28.1883ZM27.5312 31.3981H32.1518V29.4106H27.5312V31.3981ZM3.7698 38.7288H22.2694V36.7413H3.7698V38.7288ZM6.62878 31.5163H19.4105V29.5288H6.62878V31.5163Z" fill="#63666A"></path></svg> 