<?xml version="1.0" encoding="UTF-8"?> <svg xmlns="http://www.w3.org/2000/svg" width="41" height="41" viewBox="0 0 41 41" fill="none"><path fill-rule="evenodd" clip-rule="evenodd" d="M6.07599 7.91966C6.07599 7.41074 6.48855 6.99817 6.99748 6.99817H15.2909C16.9906 6.99817 18.6275 7.64807 19.8396 8.81531C20.2195 9.1811 20.5479 9.58843 20.8198 10.0266C21.0917 9.58843 21.4201 9.1811 21.8 8.81531C23.0121 7.64807 24.649 6.99817 26.3487 6.99817H34.6421C35.1511 6.99817 35.5636 7.41074 35.5636 7.91966V8.84115H37.1762C37.8124 8.84115 38.3281 9.35686 38.3281 9.99301V30.7265C38.3281 31.3627 37.8124 31.8784 37.1762 31.8784H24.5058C24.2695 31.8784 23.8791 31.9163 23.5306 32.0226C23.1393 32.142 23.0346 32.2737 23.0262 32.2905C22.4608 33.4213 21.3746 33.7214 20.8198 33.7214C20.265 33.7214 19.1788 33.4213 18.6134 32.2905C18.605 32.2737 18.5003 32.142 18.109 32.0226C17.7605 31.9163 17.3701 31.8784 17.1338 31.8784H4.46338C3.82723 31.8784 3.31152 31.3627 3.31152 30.7265V9.99301C3.31152 9.35686 3.82723 8.84115 4.46338 8.84115H6.07599V7.91966ZM19.8983 13.2438C19.8983 12.0876 19.4217 10.9714 18.5612 10.1428C17.6996 9.31313 16.5238 8.84115 15.2909 8.84115H7.91897V26.9638H16.6731C17.851 26.9638 18.9914 27.3616 19.8983 28.0871V13.2438ZM19.6819 30.7725C19.524 30.383 19.2825 30.0233 18.9661 29.7186C18.3637 29.1385 17.5395 28.8068 16.6731 28.8068H6.99748C6.48855 28.8068 6.07599 28.3942 6.07599 27.8853V10.6841H5.1545V30.0354H17.1338C17.5119 30.0354 18.0891 30.0897 18.6468 30.2598C18.9544 30.3537 19.3425 30.509 19.6819 30.7725ZM21.9577 30.7725C22.2971 30.509 22.6852 30.3537 22.9929 30.2598C23.5505 30.0897 24.1277 30.0354 24.5058 30.0354H36.4851V10.6841H35.5636V27.8853C35.5636 28.3942 35.1511 28.8068 34.6421 28.8068H24.9665C24.1001 28.8068 23.2759 29.1385 22.6735 29.7186C22.3571 30.0233 22.1156 30.383 21.9577 30.7725ZM21.7413 28.0871V13.2438C21.7413 12.0876 22.2179 10.9714 23.0784 10.1428C23.94 9.31313 25.1158 8.84115 26.3487 8.84115H33.7207V26.9638H24.9665C23.7886 26.9638 22.6482 27.3616 21.7413 28.0871ZM9.76195 12.5271C9.76195 12.0182 10.1745 11.6056 10.6834 11.6056H17.1338C17.6428 11.6056 18.0553 12.0182 18.0553 12.5271C18.0553 13.036 17.6428 13.4486 17.1338 13.4486H10.6834C10.1745 13.4486 9.76195 13.036 9.76195 12.5271ZM23.5843 12.5271C23.5843 12.0182 23.9968 11.6056 24.5058 11.6056H30.9562C31.4651 11.6056 31.8777 12.0182 31.8777 12.5271C31.8777 13.036 31.4651 13.4486 30.9562 13.4486H24.5058C23.9968 13.4486 23.5843 13.036 23.5843 12.5271ZM9.76195 17.1346C9.76195 16.6256 10.1745 16.2131 10.6834 16.2131H17.1338C17.6428 16.2131 18.0553 16.6256 18.0553 17.1346C18.0553 17.6435 17.6428 18.0561 17.1338 18.0561H10.6834C10.1745 18.0561 9.76195 17.6435 9.76195 17.1346ZM23.5843 17.1346C23.5843 16.6256 23.9968 16.2131 24.5058 16.2131H30.9562C31.4651 16.2131 31.8777 16.6256 31.8777 17.1346C31.8777 17.6435 31.4651 18.0561 30.9562 18.0561H24.5058C23.9968 18.0561 23.5843 17.6435 23.5843 17.1346ZM9.76195 21.742C9.76195 21.2331 10.1745 20.8205 10.6834 20.8205H17.1338C17.6428 20.8205 18.0553 21.2331 18.0553 21.742C18.0553 22.2509 17.6428 22.6635 17.1338 22.6635H10.6834C10.1745 22.6635 9.76195 22.2509 9.76195 21.742ZM23.5843 21.742C23.5843 21.2331 23.9968 20.8205 24.5058 20.8205H30.9562C31.4651 20.8205 31.8777 21.2331 31.8777 21.742C31.8777 22.2509 31.4651 22.6635 30.9562 22.6635H24.5058C23.9968 22.6635 23.5843 22.2509 23.5843 21.742Z" fill="#63666A"></path></svg> 