<?xml version="1.0" encoding="UTF-8"?> <svg xmlns="http://www.w3.org/2000/svg" width="41" height="41" viewBox="0 0 41 41" fill="none"><path fill-rule="evenodd" clip-rule="evenodd" d="M16.4684 3.44929C16.8279 3.80877 16.8279 4.39163 16.4684 4.75113C16.1912 5.02832 15.8847 5.3906 15.7135 5.78787C15.5547 6.15628 15.5236 6.51694 15.7203 6.91039C16.2094 7.88838 16.4963 8.69693 16.5676 9.43247C16.6429 10.2085 16.4719 10.8332 16.1808 11.4158C15.9535 11.8705 15.4006 12.055 14.9458 11.8277C14.4911 11.6004 14.3066 11.0475 14.5339 10.5928C14.7028 10.2548 14.7706 9.97613 14.7351 9.61013C14.6957 9.2036 14.5225 8.63134 14.0736 7.73383C13.5799 6.74647 13.7022 5.80303 14.0228 5.05912C14.331 4.34408 14.83 3.78582 15.1665 3.44932C15.526 3.08982 16.1089 3.08981 16.4684 3.44929ZM4.77063 19.2891C4.77063 18.7807 5.18277 18.3686 5.69116 18.3686H9.37332V16.9877C9.37332 14.9541 11.0218 13.3056 13.0554 13.3056C14.1552 13.3056 15.1423 13.7877 15.8171 14.5522C16.4918 13.7877 17.4789 13.3056 18.5787 13.3056C19.6784 13.3056 20.6656 13.7877 21.3403 14.5522C22.015 13.7877 23.0021 13.3056 24.1019 13.3056C25.2017 13.3056 26.1888 13.7877 26.8635 14.5522C27.5382 13.7877 28.5254 13.3056 29.6251 13.3056C31.6587 13.3056 33.3073 14.9541 33.3073 16.9877V17.9083H34.2278V15.1467C34.2278 14.6383 34.64 14.2261 35.1484 14.2261C35.6568 14.2261 36.0689 14.6383 36.0689 15.1467V18.8288C36.0689 19.3372 35.6568 19.7494 35.1484 19.7494H33.3073V30.7958H35.1484C35.6568 30.7958 36.0689 31.208 36.0689 31.7164C36.0689 32.2248 35.6568 32.6369 35.1484 32.6369H33.3073V34.478C33.3073 36.5116 31.6587 38.1601 29.6251 38.1601C28.5254 38.1601 27.5382 37.678 26.8635 36.9136C26.1888 37.678 25.2017 38.1601 24.1019 38.1601C23.0021 38.1601 22.015 37.678 21.3403 36.9136C20.6656 37.678 19.6784 38.1601 18.5787 38.1601C17.4789 38.1601 16.4918 37.678 15.8171 36.9136C15.1423 37.678 14.1552 38.1601 13.0554 38.1601C11.0218 38.1601 9.37332 36.5116 9.37332 34.478V32.6369H5.69116C5.18277 32.6369 4.77063 32.2248 4.77063 31.7164C4.77063 31.208 5.18277 30.7958 5.69116 30.7958H9.37332V20.2096H5.69116C5.18277 20.2096 4.77063 19.7975 4.77063 19.2891ZM11.2144 34.478C11.2144 35.4948 12.0386 36.3191 13.0554 36.3191C14.0722 36.3191 14.8965 35.4948 14.8965 34.478V17.448C14.8965 17.3685 14.9066 17.2914 14.9255 17.2179C14.9066 17.1443 14.8965 17.0672 14.8965 16.9877C14.8965 15.9709 14.0722 15.1467 13.0554 15.1467C12.0386 15.1467 11.2144 15.9709 11.2144 16.9877V34.478ZM16.7086 17.2179C16.7275 17.2914 16.7376 17.3685 16.7376 17.448V34.478C16.7376 35.4948 17.5619 36.3191 18.5787 36.3191C19.5955 36.3191 20.4197 35.4948 20.4197 34.478V17.448C20.4197 17.3685 20.4298 17.2914 20.4487 17.2179C20.4298 17.1443 20.4197 17.0672 20.4197 16.9877C20.4197 15.9709 19.5955 15.1467 18.5787 15.1467C17.5619 15.1467 16.7376 15.9709 16.7376 16.9877C16.7376 17.0672 16.7275 17.1443 16.7086 17.2179ZM22.2318 17.2179C22.2508 17.2914 22.2608 17.3685 22.2608 17.448V34.478C22.2608 35.4948 23.0851 36.3191 24.1019 36.3191C25.1187 36.3191 25.943 35.4948 25.943 34.478V17.448C25.943 17.3685 25.953 17.2914 25.972 17.2179C25.953 17.1443 25.943 17.0672 25.943 16.9877C25.943 15.9709 25.1187 15.1467 24.1019 15.1467C23.0851 15.1467 22.2608 15.9709 22.2608 16.9877C22.2608 17.0672 22.2508 17.1443 22.2318 17.2179ZM27.7551 17.2179C27.774 17.2914 27.7841 17.3685 27.7841 17.448V34.478C27.7841 35.4948 28.6083 36.3191 29.6251 36.3191C30.6419 36.3191 31.4662 35.4948 31.4662 34.478V16.9877C31.4662 15.9709 30.6419 15.1467 29.6251 15.1467C28.6083 15.1467 27.7841 15.9709 27.7841 16.9877C27.7841 17.0672 27.774 17.1443 27.7551 17.2179ZM22.2253 3.44929C22.5848 3.80877 22.5848 4.39163 22.2253 4.75113C21.9482 5.02832 21.6417 5.3906 21.4705 5.78787C21.3117 6.15628 21.2805 6.51694 21.4773 6.91039C21.9663 7.88838 22.2533 8.69693 22.3246 9.43247C22.3998 10.2085 22.2289 10.8332 21.9377 11.4158C21.7105 11.8705 21.1576 12.055 20.7028 11.8277C20.248 11.6004 20.0636 11.0475 20.2909 10.5928C20.4598 10.2548 20.5276 9.97613 20.4921 9.61013C20.4527 9.2036 20.2794 8.63134 19.8306 7.73383C19.3369 6.74647 19.4591 5.80303 19.7798 5.05912C20.088 4.34408 20.587 3.78582 20.9235 3.44932C21.283 3.08982 21.8658 3.08981 22.2253 3.44929ZM27.9823 3.44929C28.3418 3.80877 28.3418 4.39163 27.9823 4.75113C27.7051 5.02832 27.3987 5.3906 27.2274 5.78787C27.0686 6.15628 27.0375 6.51694 27.2342 6.91039C27.7233 7.88838 28.0102 8.69693 28.0815 9.43247C28.1568 10.2085 27.9858 10.8332 27.6947 11.4158C27.4674 11.8705 26.9145 12.055 26.4598 11.8277C26.005 11.6004 25.8206 11.0475 26.0478 10.5928C26.2167 10.2548 26.2845 9.97613 26.2491 9.61013C26.2096 9.2036 26.0364 8.63134 25.5876 7.73383C25.0938 6.74647 25.2161 5.80303 25.5367 5.05912C25.8449 4.34408 26.344 3.78582 26.6804 3.44932C27.0399 3.08982 27.6228 3.08981 27.9823 3.44929Z" fill="#63666A"></path></svg> 