<?xml version="1.0" encoding="UTF-8"?> <svg xmlns="http://www.w3.org/2000/svg" width="41" height="41" viewBox="0 0 41 41" fill="none"><path fill-rule="evenodd" clip-rule="evenodd" d="M5.22126 14.1699C5.298 13.4258 5.41976 12.5103 5.67103 11.6708C6.02969 10.4726 6.77616 9.02089 8.43397 8.68934C9.87488 8.40116 10.7071 8.57723 11.3729 8.73232C11.6847 8.80494 11.8617 8.84501 12.0588 8.85205C12.2364 8.85839 12.466 8.83717 12.8138 8.72123C13.5005 8.49234 13.8797 8.09803 14.3835 7.57409L14.4783 7.47558C15.0279 6.90599 15.7818 6.16992 17.1301 6.16992C18.0588 6.16992 18.7943 6.40424 19.3844 6.83168C19.9506 7.24187 20.3035 7.77566 20.5607 8.20664C20.6271 8.31785 20.688 8.42125 20.7446 8.51739C21.1844 9.2646 21.366 9.57312 21.8726 9.69978C22.652 9.89463 23.1033 9.79945 23.5389 9.65698C23.6166 9.63157 23.7047 9.59933 23.8025 9.56359C24.2434 9.40241 24.8792 9.16993 25.6301 9.16993C26.7073 9.16992 27.5766 9.47959 28.2437 10.0345C28.894 10.5753 29.2716 11.282 29.5044 11.9435C29.7364 12.6028 29.8453 13.2782 29.9182 13.809C29.9354 13.9341 29.9495 14.0427 29.9625 14.1426C29.9636 14.1518 29.9648 14.1609 29.966 14.1699H31.1301V11.7361C31.1301 11.0336 31.4987 10.3826 32.1011 10.0211L36.6156 7.31243C37.0891 7.02828 37.7034 7.18184 37.9876 7.65542C38.2717 8.129 38.1181 8.74326 37.6446 9.02741L33.1301 11.7361V27.1699C33.1301 28.8076 32.5765 30.9085 30.4463 31.6186C28.2863 32.3386 26.0317 31.5388 24.3301 29.2699L23.0089 27.5084L21.5533 28.7118C21.1952 29.0079 20.7451 29.1699 20.2806 29.1699H18.13C18.13 32.4836 15.4437 35.1699 12.13 35.1699C8.8163 35.1699 6.13001 32.4836 6.13001 29.1699C6.13001 27.4517 6.85227 25.9021 8.00976 24.8083L2.52318 17.3563C1.55093 16.0358 2.49302 14.1699 4.13201 14.1699H5.22126ZM13.4463 10.6186C14.6179 10.2281 15.3112 9.50029 15.798 8.98923C15.8393 8.94592 15.8791 8.90413 15.9176 8.86426C16.4133 8.35051 16.6593 8.16992 17.1301 8.16992C17.7013 8.16992 18.0106 8.30618 18.211 8.45134C18.4352 8.61376 18.6183 8.85458 18.8434 9.23169C18.888 9.3064 18.9354 9.3911 18.9869 9.48307C19.3772 10.1797 20.001 11.2934 21.3875 11.64C22.6082 11.9452 23.4497 11.7904 24.1606 11.5579C24.3468 11.497 24.5018 11.4416 24.638 11.3929C25.027 11.2539 25.262 11.1699 25.6301 11.1699C26.3028 11.1699 26.7023 11.3538 26.9648 11.5721C27.2441 11.8044 27.457 12.1505 27.6178 12.6075C27.7795 13.0669 27.8674 13.5757 27.9368 14.081C27.9408 14.1099 27.9448 14.1396 27.9488 14.1699H7.23331C7.30309 13.5355 7.40215 12.862 7.58704 12.2444C7.89434 11.2177 8.31453 10.7528 8.8262 10.6505C9.88374 10.439 10.4062 10.5607 10.917 10.6796L10.9669 10.6913C11.2377 10.7547 11.5874 10.8365 11.9874 10.8508C12.4307 10.8666 12.8988 10.8011 13.4463 10.6186ZM6.11943 16.1699C6.12735 16.17 6.13525 16.17 6.14313 16.1699H29.1069C29.1222 16.1703 29.1376 16.1703 29.153 16.1699H31.1301V18.2002L20.2806 27.1699H17.7886C16.9649 24.8395 14.7424 23.1699 12.13 23.1699C11.2543 23.1699 10.4223 23.3575 9.67225 23.6948L4.13202 16.1699H6.11943ZM25.9301 28.0699L24.5521 26.2326L31.1301 20.7943V27.1699C31.1301 28.5322 30.6837 29.4313 29.8138 29.7212C28.6363 30.1137 27.2284 29.801 25.9301 28.0699ZM8.13001 29.1699C8.13001 26.9608 9.92087 25.1699 12.13 25.1699C14.3391 25.1699 16.13 26.9608 16.13 29.1699C16.13 31.379 14.3391 33.1699 12.13 33.1699C9.92087 33.1699 8.13001 31.379 8.13001 29.1699Z" fill="#63666A"></path></svg> 