<?xml version="1.0" encoding="UTF-8"?> <svg xmlns="http://www.w3.org/2000/svg" width="41" height="41" viewBox="0 0 41 41" fill="none"><path d="M28.005 37.1347C28.512 37.186 28.9075 37.6122 28.9076 38.1299C28.9075 38.6475 28.512 39.0737 28.005 39.125L27.9018 39.1299H7.6073C7.05192 39.1299 6.60169 38.682 6.60156 38.1299C6.60164 37.5776 7.05189 37.1299 7.6073 37.1299H27.9018L28.005 37.1347Z" fill="#63666A"></path><path fill-rule="evenodd" clip-rule="evenodd" d="M29.6148 11.1504C30.2752 11.1504 30.8111 11.6827 30.8111 12.3398V14.5732H33.4974L33.6624 14.5771C35.3548 14.6626 36.7002 16.0549 36.7002 17.7588V17.7978L36.6973 17.8369L36.4439 21.0615C36.1277 25.0752 32.877 28.0927 28.9735 28.6211L28.8713 28.6299C28.8022 28.6322 28.7342 28.6265 28.668 28.6152C26.3179 31.8692 22.2754 33.9922 17.7552 33.9922C10.6405 33.992 4.70054 28.7398 4.7002 22.0791V12.3398C4.70021 11.6829 5.23579 11.1504 5.89648 11.1504H29.6148ZM6.71168 22.0791C6.71202 27.4636 11.5706 31.992 17.7552 31.9922C23.9401 31.9922 28.7993 27.4637 28.7996 22.0791V13.1504H6.71168V22.0791ZM30.8111 22.0791C30.811 23.592 30.503 25.0319 29.9458 26.3545C32.4115 25.5547 34.237 23.4607 34.4383 20.9053L34.6877 17.7412C34.679 17.1355 34.2144 16.6393 33.6191 16.5791L33.4974 16.5732H30.8111V22.0791Z" fill="#63666A"></path><path d="M11.1785 1.56054C11.4947 1.1068 12.1216 0.993459 12.5781 1.30761C13.0345 1.62206 13.1484 2.24528 12.8324 2.69921C12.657 2.95106 12.4563 3.15181 12.2991 3.30273C12.1211 3.47366 12.0178 3.56473 11.9112 3.68163C11.7534 3.85458 11.6843 3.98116 11.6843 4.22167C11.6844 4.52727 11.78 4.64933 12.1823 5.02929C12.5909 5.41521 13.3066 6.06023 13.3068 7.28612C13.3067 8.73317 12.2382 9.47208 11.9554 9.76562C11.5712 10.164 10.9342 10.1776 10.5332 9.79589C10.1324 9.41392 10.1188 8.78063 10.5028 8.38183C10.6383 8.24113 10.7999 8.09272 10.8966 7.99999C11.0097 7.89154 11.0873 7.81094 11.1461 7.73534C11.2385 7.61637 11.2953 7.50137 11.2954 7.28612C11.2952 6.98043 11.1997 6.85853 10.7974 6.47851C10.3889 6.0926 9.67312 5.4475 9.67285 4.22167C9.67292 3.34809 10.033 2.76359 10.4213 2.33788C10.5876 2.15553 10.788 1.97415 10.9025 1.86425C11.0376 1.73458 11.1199 1.64449 11.1785 1.56054Z" fill="#63666A"></path><path d="M17.4456 1.56067C17.7618 1.10674 18.3886 0.993408 18.8452 1.30774C19.3016 1.62219 19.4156 2.24538 19.0996 2.69934C18.924 2.95125 18.7234 3.15193 18.5662 3.30286C18.3881 3.47385 18.285 3.56481 18.1783 3.68176C18.0205 3.85475 17.9514 3.98115 17.9514 4.2218C17.9515 4.52743 18.047 4.64939 18.4494 5.02942C18.858 5.41536 19.5738 6.06023 19.5739 7.28625C19.5738 8.73354 18.5054 9.4721 18.2225 9.76575C17.8383 10.1642 17.2013 10.1778 16.8003 9.79602C16.3993 9.41403 16.3858 8.78077 16.7699 8.38196C16.9054 8.2413 17.067 8.09284 17.1637 8.00012C17.2769 7.89164 17.3544 7.81107 17.4132 7.73547C17.5057 7.61648 17.5624 7.50159 17.5625 7.28625C17.5624 6.98041 17.4669 6.85874 17.0645 6.47864C16.6559 6.09274 15.9402 5.44773 15.9399 4.2218C15.9399 3.34811 16.3 2.76376 16.6883 2.33801C16.8546 2.15577 17.0541 1.97432 17.1686 1.86438C17.3039 1.73452 17.387 1.6447 17.4456 1.56067Z" fill="#63666A"></path><path d="M23.7121 1.5605C24.0284 1.10682 24.6552 0.993469 25.1117 1.30757C25.5681 1.62207 25.6821 2.24529 25.3661 2.69917C25.1906 2.95098 24.99 3.15179 24.8328 3.30269C24.6547 3.47361 24.5515 3.5647 24.4448 3.68159C24.2871 3.85454 24.218 3.98106 24.2179 4.22163C24.2181 4.52724 24.3136 4.64927 24.7159 5.02925C25.1245 5.41518 25.8403 6.06015 25.8405 7.28608C25.8404 8.73326 24.7721 9.47188 24.489 9.76558C24.1048 10.1641 23.4678 10.1777 23.0668 9.79585C22.6659 9.41385 22.6524 8.78058 23.0364 8.38179C23.1719 8.24115 23.3335 8.09265 23.4302 7.99995C23.5434 7.8915 23.6209 7.81089 23.6797 7.7353C23.7722 7.61634 23.829 7.50137 23.829 7.28608C23.8289 6.98034 23.7334 6.85851 23.331 6.47847C22.9225 6.09256 22.2067 5.44749 22.2065 4.22163C22.2065 3.34804 22.5665 2.76358 22.9549 2.33784C23.1213 2.15546 23.3216 1.97415 23.4361 1.86421C23.5712 1.73457 23.6535 1.64446 23.7121 1.5605Z" fill="#63666A"></path></svg> 