<?xml version="1.0" encoding="UTF-8"?> <svg xmlns="http://www.w3.org/2000/svg" width="41" height="41" viewBox="0 0 41 41" fill="none"><path fill-rule="evenodd" clip-rule="evenodd" d="M31.4255 14.8131H31.8377C32.2025 14.8131 32.5582 14.9271 32.8552 15.1392C35.5143 17.0387 36.1492 20.5009 34.7592 23.1464H36.0047C36.3695 23.1464 36.7252 23.2604 37.0222 23.4726C40.515 25.9676 40.515 31.1587 37.0222 33.6537C36.7252 33.8657 36.3695 33.9797 36.0047 33.9797H28.8632L18.6548 33.8964L18.655 33.8734C17.513 33.7487 16.4924 33.1291 15.7483 32.1976C14.9127 33.2436 13.7284 33.8966 12.415 33.8966C11.1017 33.8966 9.91735 33.2436 9.0817 32.1976C8.24607 33.2436 7.06174 33.8966 5.74837 33.8966C3.21707 33.8966 1.16504 31.4714 1.16504 28.4799C1.16504 25.6926 2.94642 23.3969 5.23709 23.0964C4.76984 22.2477 4.49837 21.2346 4.49837 20.1466C4.49837 17.3592 6.27975 15.0636 8.57042 14.7632C8.10317 13.9144 7.8317 12.9012 7.8317 11.8132C7.8317 8.82161 9.88373 6.39648 12.415 6.39648C12.6897 6.39648 12.9588 6.42504 13.2202 6.47979H28.504C28.8688 6.47979 29.2245 6.59379 29.5215 6.80586C32.1807 8.70534 32.8155 12.1677 31.4255 14.8131ZM14.4983 11.8132C14.4983 13.8318 13.1904 14.7298 12.415 14.7298C11.6396 14.7298 10.3317 13.8318 10.3317 11.8132C10.3317 9.79454 11.6396 8.89648 12.415 8.89648C13.1904 8.89648 14.4983 9.79454 14.4983 11.8132ZM16.2596 14.7632C16.7269 13.9144 16.9983 12.9012 16.9983 11.8132C16.9983 10.7745 16.751 9.80409 16.3221 8.97979H28.252C30.1042 10.4764 30.1042 13.3166 28.252 14.8131H16.5535C16.4566 14.7928 16.3586 14.7761 16.2596 14.7632ZM19.6553 17.3131C20.0843 18.1374 20.3317 19.1079 20.3317 20.1466C20.3317 21.2346 20.0602 22.2977 19.593 23.1466C19.692 23.1596 19.79 23.1262 19.8868 23.1464H31.5857C33.4378 21.6499 33.4378 18.8097 31.5857 17.3131H19.6553ZM28.8785 31.4797L22.9255 31.4312C23.3933 30.5822 23.665 29.5686 23.665 28.4799C23.665 27.4412 23.4177 26.4707 22.9887 25.6464H35.7527C37.6048 27.1431 37.6048 29.9832 35.7527 31.4797H28.8785ZM19.5267 25.6299C19.2437 25.5027 18.9197 25.5027 18.6367 25.6299C17.8895 25.8944 16.9983 26.8137 16.9983 28.4799C16.9983 30.4984 18.3063 31.3966 19.0817 31.3966C19.857 31.3966 21.165 30.4984 21.165 28.4799C21.165 26.8137 20.274 25.8944 19.5267 25.6299ZM17.8317 20.1466C17.8317 22.1651 16.5237 23.0632 15.7483 23.0632C14.9729 23.0632 13.665 22.1651 13.665 20.1466C13.665 18.1279 14.9729 17.2299 15.7483 17.2299C16.5237 17.2299 17.8317 18.1279 17.8317 20.1466ZM5.74837 31.3966C6.52377 31.3966 7.8317 30.4984 7.8317 28.4799C7.8317 26.4612 6.52377 25.5632 5.74837 25.5632C4.97297 25.5632 3.66504 26.4612 3.66504 28.4799C3.66504 30.4984 4.97297 31.3966 5.74837 31.3966ZM12.415 31.3966C11.6396 31.3966 10.3317 30.4984 10.3317 28.4799C10.3317 26.4612 11.6396 25.5632 12.415 25.5632C13.1904 25.5632 14.4983 26.4612 14.4983 28.4799C14.4983 30.4984 13.1904 31.3966 12.415 31.3966ZM9.0817 23.0632C9.8571 23.0632 11.165 22.1651 11.165 20.1466C11.165 18.1279 9.8571 17.2299 9.0817 17.2299C8.3063 17.2299 6.99837 18.1279 6.99837 20.1466C6.99837 22.1651 8.3063 23.0632 9.0817 23.0632Z" fill="#63666A"></path></svg> 