<?xml version="1.0" encoding="UTF-8"?> <svg xmlns="http://www.w3.org/2000/svg" width="41" height="41" viewBox="0 0 41 41" fill="none"><g clip-path="url(#clip0_5587_57857)"><path fill-rule="evenodd" clip-rule="evenodd" d="M9.30136 5.74439V3.56364C9.30136 1.95281 10.6072 0.646973 12.218 0.646973H17.3844C18.9952 0.646973 20.3011 1.95281 20.3011 3.56364V5.64857C22.0287 5.69956 23.4516 6.96477 23.7459 8.62031L29.5951 11.7699C32.6992 13.4414 34.6351 16.6822 34.6351 20.2078V36.897C34.6351 38.5078 33.3291 39.8137 31.7184 39.8137H10.0517C8.44084 39.8137 7.13501 38.5078 7.13501 36.897V8.56364C7.13501 7.21222 8.05413 6.07547 9.30136 5.74439ZM11.8013 3.56364C11.8013 3.33352 11.9879 3.14697 12.218 3.14697H17.3844C17.6144 3.14697 17.8011 3.33352 17.8011 3.56364V5.64697H11.8013V3.56364ZM9.63501 8.56364C9.63501 8.33352 9.82156 8.14697 10.0517 8.14697H20.1926C20.8051 8.14697 21.3017 8.64352 21.3017 9.25607C21.3017 9.80271 21.6017 10.3052 22.0831 10.5644L28.4099 13.9711C30.7042 15.2065 32.1351 17.602 32.1351 20.2078V36.897C32.1351 37.1272 31.9484 37.3137 31.7184 37.3137H10.0517C9.82156 37.3137 9.63501 37.1272 9.63501 36.897V8.56364ZM20.8851 16.0637L16.197 22.7608C15.4515 23.8258 15.0517 25.0943 15.0517 26.3943V26.897C15.0517 30.1187 17.6634 32.7303 20.8851 32.7303C24.1066 32.7303 26.7184 30.1187 26.7184 26.897V26.3943C26.7184 25.0943 26.3184 23.8258 25.5729 22.7608L20.8851 16.0637ZM17.5517 26.3943V26.897C17.5517 28.738 19.0441 30.2303 20.8851 30.2303C22.7259 30.2303 24.2184 28.738 24.2184 26.897V26.3943C24.2184 25.6072 23.9763 24.8392 23.5249 24.1945L20.8851 20.4232L18.2451 24.1945C17.7938 24.8392 17.5517 25.6072 17.5517 26.3943Z" fill="#63666A"></path></g><defs><clipPath id="clip0_5587_57857"><rect width="40" height="40" fill="white" transform="translate(0.13501 0.22998)"></rect></clipPath></defs></svg> 