<?xml version="1.0" encoding="UTF-8"?> <svg xmlns="http://www.w3.org/2000/svg" width="41" height="41" viewBox="0 0 41 41" fill="none"><path fill-rule="evenodd" clip-rule="evenodd" d="M28.1212 3.11068C28.3036 2.70194 28.7354 2.46421 29.1784 2.52866L37.1331 3.68612C37.6797 3.76564 38.0583 4.27316 37.9787 4.81969C37.8992 5.36621 37.3917 5.7448 36.8452 5.66528L29.6392 4.61677L26.509 11.6302C29.3313 11.7839 31.0317 12.0718 32.0345 12.2977C32.5302 12.4093 32.8563 12.8713 32.8107 13.3641C32.8173 13.4345 32.8165 13.5068 32.8076 13.5799L30.0851 35.8126C30.0595 36.2355 29.8365 36.5486 29.6386 36.7428C29.4301 36.9473 29.1761 37.0966 28.9389 37.2092C28.4596 37.4366 27.8301 37.615 27.1323 37.755C25.7204 38.0385 23.8144 38.2066 21.74 38.2066C19.6655 38.2066 17.7595 38.0385 16.3476 37.755C15.6499 37.615 15.0203 37.4366 14.541 37.2092C14.3038 37.0966 14.0498 36.9473 13.8413 36.7428C13.6423 36.5475 13.418 36.232 13.3944 35.8055L11.8256 21.7566C10.3375 21.7849 8.86192 21.4373 7.53932 20.7407C5.98575 19.9224 4.71388 18.6597 3.88858 17.1148C3.06325 15.5697 2.72255 13.8135 2.91134 12.0729C3.10013 10.3323 3.80966 8.68817 4.94781 7.35288C6.08591 6.01764 7.59995 5.05291 9.29382 4.58228C10.9876 4.11166 12.7839 4.15654 14.4512 4.71069C16.1185 5.26485 17.5809 6.30317 18.6495 7.69235C19.5172 8.82049 20.0928 10.1381 20.3324 11.5293C20.9146 11.5243 21.5225 11.5218 22.1555 11.5218C22.9415 11.5218 23.6738 11.5308 24.3559 11.5472L28.1212 3.11068ZM18.2987 11.5597C18.0866 10.6029 17.6662 9.69861 17.0616 8.91259C16.2363 7.83958 15.1057 7.0364 13.8154 6.60755C12.5252 6.17869 11.1354 6.14417 9.82584 6.50803C8.51632 6.87187 7.34766 7.61717 6.47012 8.64671C5.59263 9.6762 5.04615 10.943 4.90074 12.2837C4.75533 13.6243 5.01758 14.9782 5.65449 16.1705C6.29145 17.3628 7.27397 18.339 8.47586 18.972C9.44293 19.4814 10.5158 19.7495 11.6025 19.759L10.8829 13.3147C10.8458 12.9829 10.9757 12.6709 11.2054 12.4625C11.3106 12.3459 11.4449 12.2524 11.6026 12.1945C12.3402 11.9235 13.6636 11.769 15.3584 11.6704C16.2122 11.6208 17.1946 11.5842 18.2987 11.5597ZM22.1555 13.5218C22.6129 13.5218 23.051 13.5249 23.4706 13.5308L21.1993 18.62C17.3426 18.6071 14.7338 18.5126 13.4668 18.4326L12.9622 13.9134C13.5178 13.8193 14.3455 13.7327 15.4745 13.6671C17.1655 13.5688 19.4076 13.5218 22.1555 13.5218ZM30.7317 14.0777C29.672 13.893 28.053 13.6925 25.6342 13.5902L23.3902 18.6182C26.9696 18.5995 29.0419 18.5054 30.1989 18.4288L30.7317 14.0777ZM13.692 20.4492L15.3597 35.3833C15.3716 35.3893 15.3845 35.3957 15.3985 35.4023C15.6629 35.5278 16.1093 35.6673 16.7412 35.7942C17.9886 36.0446 19.7564 36.2066 21.74 36.2066C23.7235 36.2066 25.4913 36.0446 26.7387 35.7942C27.3706 35.6673 27.8171 35.5278 28.0814 35.4023C28.0965 35.3952 28.1103 35.3884 28.1229 35.382L29.9516 20.4482C28.5384 20.5315 26.1258 20.6214 22.0936 20.6214C18.0681 20.6214 15.2317 20.534 13.692 20.4492ZM23.841 33.857C24.7989 33.857 25.5755 33.1108 25.5755 32.1903C25.5755 31.2699 24.7989 30.5237 23.841 30.5237C22.883 30.5237 22.1064 31.2699 22.1064 32.1903C22.1064 33.1108 22.883 33.857 23.841 33.857ZM21.9631 26.4801C21.9631 27.8608 20.8438 28.9801 19.4631 28.9801C18.0823 28.9801 16.9631 27.8608 16.9631 26.4801C16.9631 25.0994 18.0823 23.9801 19.4631 23.9801C20.8438 23.9801 21.9631 25.0994 21.9631 26.4801Z" fill="#63666A"></path></svg> 