<?xml version="1.0" encoding="UTF-8"?> <svg xmlns="http://www.w3.org/2000/svg" width="41" height="41" viewBox="0 0 41 41" fill="none"><path fill-rule="evenodd" clip-rule="evenodd" d="M22.7698 4.66992C22.7698 5.77449 21.8744 6.66992 20.7698 6.66992C20.0639 6.66992 19.4435 6.30425 19.0875 5.75201C17.4313 6.07584 15.9794 7.14074 15.106 8.5267C14.0611 10.1847 13.9178 12.1614 15.094 13.7824L21.4115 22.4891L21.4196 22.5009C21.8291 23.1006 23.2976 24.4661 25.5116 24.4708H25.523H25.5345C27.7484 24.4661 29.217 23.1006 29.6265 22.5009L29.6346 22.4891L35.9521 13.7824C38.0355 10.9111 36.4538 6.97286 33.3323 5.91851C32.9658 6.37655 32.402 6.66992 31.7698 6.66992C30.6652 6.66992 29.7698 5.77449 29.7698 4.66992C29.7698 3.56535 30.6652 2.66992 31.7698 2.66992C32.608 2.66992 33.3258 3.18555 33.6232 3.91693C38.1403 5.19299 40.6015 10.7803 37.5709 14.9569L31.2694 23.6416C30.6553 24.5323 28.9949 26.0637 26.523 26.403V28.575C26.523 34.2271 21.9411 38.809 16.289 38.809C10.6369 38.809 6.05493 34.2271 6.05493 28.575V25.2145C3.98569 24.7567 2.43774 22.9077 2.43774 20.6964C2.43774 18.141 4.50485 16.0695 7.05476 16.0695C9.60466 16.0695 11.6718 18.141 11.6718 20.6964C11.6718 22.9076 10.124 24.7565 8.05493 25.2144V28.575C8.05493 33.1225 11.7415 36.809 16.289 36.809C20.8365 36.809 24.523 33.1225 24.523 28.575V26.403C22.0511 26.0637 20.3908 24.5323 19.7767 23.6415L13.4752 14.9569C11.7175 12.5345 12.0331 9.65145 13.414 7.46036C14.6005 5.57763 16.6284 4.10145 19.0004 3.73675C19.3357 3.10229 20.0023 2.66992 20.7698 2.66992C21.8744 2.66992 22.7698 3.56535 22.7698 4.66992ZM9.67177 20.6964C9.67177 22.1512 8.49607 23.3233 7.05476 23.3233C5.61344 23.3233 4.43774 22.1512 4.43774 20.6964C4.43774 19.2416 5.61344 18.0695 7.05476 18.0695C8.49607 18.0695 9.67177 19.2416 9.67177 20.6964Z" fill="#63666A"></path></svg> 