<?xml version="1.0" encoding="UTF-8"?> <svg xmlns="http://www.w3.org/2000/svg" width="50" height="50" viewBox="0 0 50 50" fill="none"><circle cx="25" cy="25" r="25" fill="#62666B"></circle><path fill-rule="evenodd" clip-rule="evenodd" d="M31.1264 37.9963C29.2512 37.9273 23.9369 37.193 18.3713 31.6298C12.807 26.0654 12.0739 20.7535 12.0036 18.8774C11.8994 16.0183 14.0897 13.2413 16.6199 12.1568C16.9246 12.0253 17.2582 11.9752 17.5881 12.0115C17.918 12.0478 18.2328 12.1692 18.5016 12.3638C20.5851 13.8819 22.0227 16.1785 23.2572 17.9843C23.5288 18.381 23.6449 18.8638 23.5835 19.3406C23.522 19.8175 23.2872 20.255 22.9238 20.5699L20.3832 22.4564C20.2605 22.545 20.1741 22.6752 20.1401 22.8227C20.1061 22.9702 20.1268 23.125 20.1983 23.2584C20.7739 24.3039 21.7974 25.861 22.9694 27.0327C24.1414 28.2045 25.773 29.2955 26.8916 29.936C27.0319 30.0147 27.197 30.0367 27.353 29.9975C27.5089 29.9583 27.644 29.8608 27.7303 29.7251L29.3841 27.2085C29.6881 26.8047 30.1366 26.5342 30.6357 26.4536C31.1348 26.373 31.6457 26.4886 32.0614 26.7762C33.8936 28.0443 36.0318 29.4569 37.597 31.4606C37.8075 31.7313 37.9414 32.0535 37.9847 32.3936C38.028 32.7337 37.9791 33.0792 37.8431 33.394C36.7532 35.9366 33.9951 38.1018 31.1264 37.9963Z" fill="white"></path></svg> 