<?xml version="1.0" encoding="UTF-8"?> <svg xmlns="http://www.w3.org/2000/svg" width="41" height="41" viewBox="0 0 41 41" fill="none"><path fill-rule="evenodd" clip-rule="evenodd" d="M19.5706 5.61991H31.4705C32.4094 5.61991 33.1705 6.38103 33.1705 7.31991C33.1705 8.25879 32.4094 9.0199 31.4705 9.0199H19.5706C18.6317 9.0199 17.8706 8.25879 17.8706 7.31991C17.8706 6.38103 18.6317 5.61991 19.5706 5.61991ZM16.1706 7.31991C16.1706 5.44215 17.6928 3.91992 19.5706 3.91992H31.4705C33.3483 3.91992 34.8705 5.44215 34.8705 7.31991C34.8705 9.19767 33.3483 10.7199 31.4705 10.7199L31.4697 13.27C34.2864 13.27 36.5701 15.5533 36.5701 18.37V34.5199C36.5701 36.3977 35.0479 37.9199 33.1701 37.9199H17.8702C16.7581 37.9199 15.7708 37.386 15.1504 36.5605C12.4866 38.5638 8.6862 38.3531 6.26145 35.9283C3.60589 33.2727 3.60589 28.9672 6.26145 26.3117C8.4864 24.0867 11.8696 23.726 14.4702 25.2294V18.37C14.4702 15.5535 16.7533 13.2702 19.5697 13.27V10.7199C17.6924 10.7195 16.1706 9.19739 16.1706 7.31991ZM21.2697 13.27H29.7697V10.7199H21.2697V13.27ZM15.0799 25.6271C15.359 25.8314 15.626 26.0596 15.8781 26.3117C18.3504 28.784 18.521 32.6865 16.3898 35.3562C16.6817 35.8719 17.2353 36.2199 17.8702 36.2199H33.1701C34.109 36.2199 34.8701 35.4588 34.8701 34.5199V18.37C34.8701 16.4922 33.3479 14.97 31.4701 14.97H19.5702C17.6924 14.97 16.1702 16.4922 16.1702 18.37V26.6218C15.8441 26.2523 15.4785 25.9186 15.0799 25.6271ZM16.1642 35.6244C16.0725 35.7279 15.9771 35.8292 15.8781 35.9283C15.8045 36.0019 15.7296 36.0734 15.6536 36.1429C15.8329 35.9793 16.0033 35.8062 16.1642 35.6244ZM28.8918 30.0153L28.8984 30.0332L28.9083 30.0573C28.9172 30.0792 28.9206 30.0993 28.9205 30.1172V30.1226C28.9205 30.1513 28.9094 30.1905 28.8707 30.2294C28.8358 30.2644 28.8092 30.2691 28.8058 30.2697C28.5277 30.2697 28.1618 30.2009 27.5402 30.0763L27.5075 30.0698C26.9758 29.9632 26.2449 29.8166 25.5248 29.8166C24.8042 29.8166 24.0685 29.9633 23.5334 30.0701L23.5038 30.076C22.88 30.2004 22.5136 30.2691 22.2416 30.2698C22.2365 30.2685 22.2081 30.2611 22.1724 30.2254C22.1286 30.1816 22.1206 30.1423 22.1206 30.1226V30.1164V30.1102C22.1204 30.093 22.1236 30.0737 22.1322 30.0524L22.1404 30.0321L22.1458 30.0177C22.1523 30.0096 22.1676 29.9929 22.199 29.9663C22.2394 29.932 22.2983 29.8884 22.388 29.8307C22.4808 29.7709 22.582 29.7114 22.7192 29.6311L22.7896 29.5901C23.2082 29.3471 23.9699 28.9045 24.4799 28.0838L24.5537 27.9649C24.7232 27.6916 24.8516 27.4845 24.9765 27.3023C25.1154 27.0996 25.2054 26.9951 25.2655 26.9379C25.2925 26.9121 25.3087 26.9006 25.3151 26.8965C25.3207 26.8928 25.3229 26.8919 25.3251 26.891C25.3276 26.89 25.3401 26.8853 25.3683 26.8804C25.3975 26.8754 25.4468 26.8698 25.5222 26.8698C25.5976 26.8698 25.6468 26.8754 25.676 26.8804C25.7041 26.8853 25.7164 26.89 25.7187 26.8909C25.7207 26.8916 25.7227 26.8925 25.728 26.896C25.7342 26.9 25.7502 26.9113 25.777 26.9369C25.8367 26.9939 25.9264 27.098 26.0649 27.3006C26.1895 27.4829 26.3176 27.6901 26.4868 27.9638L26.5601 28.0822L26.562 28.0854C27.0723 28.9055 27.8317 29.3464 28.2511 29.5899L28.3199 29.6299C28.4569 29.71 28.5577 29.7692 28.6504 29.8289C28.74 29.8866 28.7988 29.9302 28.8391 29.9644C28.87 29.9907 28.8852 30.0071 28.8918 30.0153ZM28.8952 30.0205L28.896 30.0214C28.8962 30.0215 28.8954 30.0199 28.8929 30.0166C28.8938 30.0184 28.8946 30.0197 28.8952 30.0205ZM30.4824 29.4153C30.2489 28.7885 29.705 28.4705 29.1796 28.1633L29.1779 28.1623C28.7203 27.8946 28.2881 27.6416 28.0055 27.1873L27.9331 27.0703C27.1987 25.8821 26.7584 25.1698 25.5222 25.1698C24.286 25.1698 23.8445 25.8822 23.1085 27.0697L23.0357 27.1871C22.7535 27.6411 22.3207 27.8945 21.8639 28.162L21.8574 28.1658C21.3323 28.473 20.7902 28.7902 20.5561 29.4153C20.4648 29.6411 20.4189 29.8809 20.4206 30.1226C20.4206 31.141 21.2826 31.9698 22.2375 31.9698C22.7009 31.9698 23.2356 31.8631 23.7861 31.7532C24.37 31.6366 24.9718 31.5165 25.5248 31.5165C26.0762 31.5165 26.6713 31.6359 27.2507 31.7521C27.8004 31.8624 28.3359 31.9698 28.8066 31.9698C29.7735 31.9698 30.6205 31.141 30.6205 30.1226C30.6213 29.8808 30.5744 29.641 30.4824 29.4153ZM26.0329 22.3421C26.2201 22.1237 26.3705 21.7764 26.3705 21.3448C26.3705 20.9133 26.2201 20.566 26.0329 20.3475C25.8488 20.1327 25.6623 20.0698 25.5205 20.0698C25.3788 20.0698 25.1923 20.1327 25.0082 20.3475C24.821 20.566 24.6706 20.9133 24.6706 21.3448C24.6706 21.7764 24.821 22.1237 25.0082 22.3421C25.1923 22.557 25.3788 22.6198 25.5205 22.6198C25.6623 22.6198 25.8488 22.557 26.0329 22.3421ZM28.0705 21.3448C28.0705 22.9879 26.9289 24.3198 25.5205 24.3198C24.1122 24.3198 22.9706 22.9879 22.9706 21.3448C22.9706 19.7018 24.1122 18.3698 25.5205 18.3698C26.9289 18.3698 28.0705 19.7018 28.0705 21.3448ZM20.6621 24.332C20.9096 24.6856 20.9856 25.0563 20.9575 25.3426C20.9299 25.6242 20.8132 25.7827 20.6971 25.864C20.581 25.9453 20.3922 26.0008 20.1181 25.9304C19.8395 25.8589 19.5171 25.6607 19.2695 25.3071C19.022 24.9536 18.946 24.5828 18.9741 24.2965C19.0017 24.0149 19.1184 23.8565 19.2345 23.7752C19.3506 23.6939 19.5394 23.6384 19.8135 23.7088C20.0921 23.7803 20.4145 23.9785 20.6621 24.332ZM21.6722 27.2566C22.8258 26.4488 22.997 24.7029 22.0546 23.357C21.1122 22.0111 19.413 21.5748 18.2594 22.3826C17.1058 23.1904 16.9346 24.9363 17.877 26.2822C18.8194 27.6281 20.5186 28.0643 21.6722 27.2566ZM30.8623 25.9302C31.1409 25.8587 31.4633 25.6605 31.7109 25.307C31.9584 24.9534 32.0344 24.5827 32.0063 24.2964C31.9787 24.0148 31.862 23.8563 31.7459 23.775C31.6298 23.6937 31.441 23.6382 31.1669 23.7086C30.8883 23.7801 30.5659 23.9783 30.3183 24.3319C30.0708 24.6854 29.9948 25.0562 30.0229 25.3425C30.0505 25.6241 30.1672 25.7825 30.2833 25.8638C30.3994 25.9452 30.5882 26.0006 30.8623 25.9302ZM33.1034 26.282C32.161 27.6279 30.4618 28.0642 29.3082 27.2564C28.1546 26.4486 27.9834 24.7027 28.9258 23.3568C29.8682 22.0109 31.5674 21.5747 32.721 22.3825C33.8746 23.1902 34.0458 24.9361 33.1034 26.282ZM14.676 34.7262C12.8891 36.5131 10.1061 36.6968 8.11436 35.2774L15.2271 28.1646C16.6466 30.1563 16.4629 32.9393 14.676 34.7262ZM7.46352 27.5138C5.67666 29.3006 5.49292 32.0835 6.9123 34.0753L14.025 26.9625C12.0333 25.5432 9.25039 25.7269 7.46352 27.5138Z" fill="#63666A"></path></svg> 