<?xml version="1.0" encoding="UTF-8"?> <svg xmlns="http://www.w3.org/2000/svg" width="41" height="41" viewBox="0 0 41 41" fill="none"><path fill-rule="evenodd" clip-rule="evenodd" d="M13.6723 4.3261C13.8283 4.07361 14.104 3.91992 14.4008 3.91992H24.678C24.9748 3.91992 25.2504 4.07361 25.4065 4.3261C25.5625 4.57859 25.5767 4.89387 25.444 5.15936L24.3509 7.34552H24.678C25.151 7.34552 25.5344 7.72895 25.5344 8.20195V11.6277C25.5344 12.1006 25.151 12.4841 24.678 12.4841H23.822V13.8223C25.0228 13.4697 26.611 13.2788 28.3526 13.8055C31.562 14.7762 33.8791 18.0847 32.7782 21.7246C32.4659 22.7572 31.8429 23.7756 31.0882 24.4805C31.0295 24.5353 30.9651 24.5803 30.8971 24.6155C31.3047 25.6916 31.5299 26.8506 31.5299 28.0714C31.5299 31.9972 29.0013 35.644 25.8045 37.6555C25.2125 38.0279 24.5418 38.1773 23.9028 38.1773H15.1768C14.5378 38.1773 13.8671 38.0279 13.2752 37.6555C10.0783 35.644 7.5498 31.9972 7.5498 28.0714C7.5498 23.3791 10.8763 19.6001 15.0998 17.9353C15.213 17.8907 15.2577 17.7989 15.2577 17.7351V12.4841H14.4008C13.9278 12.4841 13.5444 12.1006 13.5444 11.6277V8.20195C13.5444 7.72895 13.9278 7.34552 14.4008 7.34552H14.7279L13.6348 5.15936C13.502 4.89387 13.5162 4.57859 13.6723 4.3261ZM22.4359 7.34552H16.6429L15.7865 5.63278H23.2922L22.4359 7.34552ZM16.099 9.05838H15.2572V10.7712H23.8215V9.05838H22.9797C22.9749 9.05846 22.97 9.0585 22.9651 9.0585H16.1137C16.1088 9.0585 16.1039 9.05846 16.099 9.05838ZM23.822 17.7351V15.6258C24.8347 15.2499 26.2758 14.9669 27.8567 15.445C30.3101 16.187 31.9226 18.6368 31.1387 21.2287C30.9399 21.8859 30.5628 22.5384 30.126 23.0184C28.7658 20.7266 26.5373 18.9434 23.9798 17.9353C23.8666 17.8907 23.822 17.7989 23.822 17.7351ZM16.9705 12.4844V17.7351C16.9705 18.5594 16.4411 19.2477 15.728 19.5288C11.9839 21.0047 9.26266 24.2536 9.26266 28.0714C9.26266 31.2773 11.3667 34.4309 14.1874 36.2057C14.4573 36.3755 14.7976 36.4645 15.1768 36.4645H23.9028C24.282 36.4645 24.6224 36.3755 24.8923 36.2057C27.7129 34.4309 29.817 31.2773 29.817 28.0714C29.817 24.2536 27.0958 21.0047 23.3517 19.5288C22.6386 19.2477 22.1091 18.5594 22.1091 17.7351V12.4844H16.9705ZM12.6663 23.618C12.3654 23.618 12.0867 23.7758 11.9319 24.0338C11.6678 24.4739 11.359 25.1967 11.1485 26.0315C10.9375 26.8686 10.8092 27.8816 10.9634 28.8864C11.2676 30.8701 12.4447 32.759 14.7008 34.5639C14.8527 34.6854 15.0414 34.7516 15.2359 34.7516H23.7999C23.9329 34.7516 24.064 34.7206 24.1829 34.6612C25.1797 34.1628 26.1405 33.3134 26.8548 32.3015C27.5687 31.2902 28.0821 30.0503 28.0818 28.7564C28.0812 26.072 27.6302 24.9111 27.1038 24.0338C26.9491 23.7758 26.6703 23.618 26.3694 23.618H12.6663ZM12.8094 26.4502C12.9204 26.01 13.0607 25.6244 13.1904 25.3308H25.857C26.1222 25.9085 26.3685 26.839 26.369 28.7568C26.3692 29.6039 26.0263 30.5051 25.4555 31.3137C24.9303 32.0577 24.2509 32.6673 23.5875 33.0387H15.541C13.6787 31.4868 12.8691 30.013 12.6564 28.6267C12.5478 27.9186 12.6336 27.1475 12.8094 26.4502Z" fill="#63666A"></path></svg> 