<?xml version="1.0" encoding="UTF-8"?> <svg xmlns="http://www.w3.org/2000/svg" width="41" height="41" viewBox="0 0 41 41" fill="none"><path fill-rule="evenodd" clip-rule="evenodd" d="M23.4851 4.85999C23.4851 5.96456 22.5897 6.85999 21.4851 6.85999C20.7792 6.85999 20.1588 6.49432 19.8028 5.94208C18.1466 6.26591 16.6947 7.33081 15.8213 8.71677C14.7764 10.3747 14.6331 12.3515 15.8093 13.9725L22.1268 22.6792L22.1349 22.691C22.5444 23.2907 24.0129 24.6562 26.2269 24.6609H26.2383H26.2498C28.4637 24.6562 29.9323 23.2907 30.3418 22.691L30.3499 22.6792L36.6674 13.9725C38.7508 11.1012 37.1691 7.16293 34.0476 6.10858C33.6811 6.56662 33.1173 6.85999 32.4851 6.85999C31.3805 6.85999 30.4851 5.96456 30.4851 4.85999C30.4851 3.75542 31.3805 2.85999 32.4851 2.85999C33.3233 2.85999 34.0411 3.37562 34.3385 4.107C38.8556 5.38306 41.3168 10.9704 38.2862 15.147L31.9847 23.8317C31.3706 24.7224 29.7102 26.2538 27.2383 26.5931V28.7651C27.2383 34.4172 22.6564 38.9991 17.0043 38.9991C11.3522 38.9991 6.77027 34.4172 6.77027 28.7651V25.4046C4.70103 24.9468 3.15308 23.0978 3.15308 20.8865C3.15308 18.3311 5.22019 16.2596 7.7701 16.2596C10.32 16.2596 12.3871 18.3311 12.3871 20.8865C12.3871 23.0977 10.8393 24.9466 8.77027 25.4045V28.7651C8.77027 33.3126 12.4568 36.9991 17.0043 36.9991C21.5518 36.9991 25.2383 33.3126 25.2383 28.7651V26.5931C22.7664 26.2538 21.1061 24.7224 20.492 23.8316L14.1905 15.147C12.4328 12.7246 12.7484 9.84152 14.1293 7.65043C15.3158 5.7677 17.3437 4.29152 19.7157 3.92682C20.051 3.29236 20.7176 2.85999 21.4851 2.85999C22.5897 2.85999 23.4851 3.75542 23.4851 4.85999ZM10.3871 20.8865C10.3871 22.3413 9.21141 23.5134 7.7701 23.5134C6.32878 23.5134 5.15308 22.3413 5.15308 20.8865C5.15308 19.4317 6.32878 18.2596 7.7701 18.2596C9.21141 18.2596 10.3871 19.4317 10.3871 20.8865Z" fill="#63666A"></path></svg> 