<?xml version="1.0" encoding="UTF-8"?> <svg xmlns="http://www.w3.org/2000/svg" width="41" height="41" viewBox="0 0 41 41" fill="none"><path fill-rule="evenodd" clip-rule="evenodd" d="M4.03641 7.29895C3.56831 7.29895 3.18884 7.67842 3.18884 8.14652C3.18884 8.61462 3.56831 8.99409 4.03641 8.99409H4.88447V32.7259H4.03641C3.56831 32.7259 3.18884 33.1054 3.18884 33.5735C3.18884 34.0416 3.56831 34.421 4.0364 34.421H34.5195C34.5292 34.4214 34.539 34.4215 34.5488 34.4215C34.5585 34.4215 34.5683 34.4214 34.578 34.421H36.244C36.712 34.421 37.0915 34.0416 37.0915 33.5735C37.0915 33.1054 36.712 32.7259 36.244 32.7259H35.3963V20.8597H36.2441C36.7122 20.8597 37.0916 20.4802 37.0916 20.0121C37.0916 19.544 36.7122 19.1646 36.2441 19.1646H26.9208V8.99409H27.7683C28.2364 8.99409 28.6158 8.61462 28.6158 8.14652C28.6158 7.67842 28.2364 7.29895 27.7683 7.29895H4.03641ZM25.2257 13.2318V8.99409H6.5796V13.2318H9.62159C10.5251 12.3596 12.5212 10.689 15.9023 10.689C19.2749 10.689 21.1733 12.3674 22.1036 13.1898L22.1511 13.2318H25.2257ZM25.2257 14.9269H21.5284L21.2927 14.7305C21.1968 14.6505 21.0943 14.5607 20.984 14.4641C20.0672 13.6606 18.6107 12.3842 15.9023 12.3842C12.8631 12.3842 11.2354 14.0119 10.5686 14.6787L10.3204 14.9269H6.5796V26.7924H10.3204L10.5686 27.0407C11.2354 27.7075 12.8631 29.3351 15.9023 29.3351C18.6107 29.3351 20.0672 28.0588 20.984 27.2552C21.0943 27.1586 21.1968 27.0688 21.2927 26.9889L21.5284 26.7924H25.2257V20.0121V14.9269ZM6.5796 32.7259V28.4876H9.62159C10.5251 29.3597 12.5212 31.0303 15.9023 31.0303C19.2749 31.0303 21.1733 29.3519 22.1036 28.5296L22.1511 28.4876H25.2257V32.7259H6.5796ZM26.9208 20.8597H33.7012V22.5548H26.9208V20.8597ZM26.9208 24.2499H33.7012V25.9455H26.9208V24.2499ZM26.9208 31.0308V32.7259H33.7012V31.0308H26.9208ZM26.9208 29.3357H33.7012V27.6406H26.9208V29.3357ZM15.9028 25.9452C18.7113 25.9452 20.9882 23.6684 20.9882 20.8598C20.9882 18.0512 18.7113 15.7744 15.9028 15.7744C13.0942 15.7744 10.8173 18.0512 10.8173 20.8598C10.8173 23.6684 13.0942 25.9452 15.9028 25.9452ZM15.9028 27.6403C19.6475 27.6403 22.6833 24.6046 22.6833 20.8598C22.6833 17.115 19.6475 14.0793 15.9028 14.0793C12.158 14.0793 9.12222 17.115 9.12222 20.8598C9.12222 24.6046 12.158 27.6403 15.9028 27.6403Z" fill="#63666A"></path></svg> 