<?xml version="1.0" encoding="UTF-8"?> <svg xmlns="http://www.w3.org/2000/svg" width="41" height="41" viewBox="0 0 41 41" fill="none"><path fill-rule="evenodd" clip-rule="evenodd" d="M8.80564 17.3596C10.4698 17.8129 12.2354 17.7209 13.8436 17.0974L13.7893 16.9574L22.6275 27.7596V37.4152H17.3819C16.7133 37.4152 16.1714 37.9572 16.1714 38.6257C16.1714 39.2942 16.7133 39.8362 17.3819 39.8362H30.2941C30.9626 39.8362 31.5046 39.2942 31.5046 38.6257C31.5046 37.9572 30.9626 37.4152 30.2941 37.4152H25.0485V27.7752L34.467 16.7872L38.7516 11.0742C39.5896 9.95703 38.7925 8.36269 37.3958 8.36269H18.905C18.7108 7.08224 18.2101 5.86094 17.4379 4.80611C16.4191 3.41438 14.9812 2.38568 13.335 1.87084C11.6889 1.356 9.92104 1.3821 8.29081 1.94533C6.66057 2.50856 5.25366 3.57928 4.27639 5.00049C3.29912 6.42171 2.80289 8.11863 2.86046 9.84246C2.91804 11.5663 3.52639 13.2263 4.59631 14.5791C5.66624 15.932 7.14146 16.9064 8.80564 17.3596ZM16.4183 8.36269H10.3335C8.90381 8.36269 8.11652 10.024 9.02187 11.1306L12.2246 15.0451C11.3139 15.2612 10.3593 15.2475 9.44839 14.9994C8.28864 14.6836 7.26059 14.0045 6.51497 13.0617C5.76936 12.119 5.34541 10.9621 5.30527 9.76081C5.26516 8.55949 5.61097 7.37693 6.29202 6.38651C6.97306 5.39609 7.95352 4.64991 9.08961 4.25741C10.2257 3.86491 11.4577 3.84671 12.6048 4.20549C13.752 4.56428 14.7541 5.28118 15.4641 6.25104C15.9279 6.88469 16.2512 7.60454 16.4183 8.36269ZM23.8596 25.4422L11.8662 10.7837H35.9433L32.917 14.8188H21.417C20.7485 14.8188 20.2065 15.3608 20.2065 16.0293C20.2065 16.6979 20.7485 17.2398 21.417 17.2398H30.8903L23.8596 25.4422Z" fill="#63666A"></path></svg> 