<?xml version="1.0" encoding="UTF-8"?> <svg xmlns="http://www.w3.org/2000/svg" width="41" height="41" viewBox="0 0 41 41" fill="none"><path fill-rule="evenodd" clip-rule="evenodd" d="M27.0367 5.88107C27.3145 5.74221 27.6207 5.66992 27.9312 5.66992H32.2809C32.8113 5.66992 33.32 5.88063 33.6951 6.25571L34.1093 6.66992H36.6951C37.7997 6.66992 38.6951 7.56535 38.6951 8.66992V10.6699C38.6951 11.7745 37.7997 12.6699 36.6951 12.6699H34.1093L33.6951 13.0841C33.32 13.4592 32.8113 13.6699 32.2809 13.6699H27.9312C27.6207 13.6699 27.3145 13.5976 27.0367 13.4588L25.8007 12.8407C25.1231 12.5019 24.6951 11.8094 24.6951 11.0519V10.5866H11.9868C10.7822 10.5866 9.62702 11.0651 8.77529 11.9168C7.92356 12.7685 7.44507 13.9237 7.44507 15.1282C7.44507 16.3328 7.92356 17.488 8.77529 18.3397C9.62702 19.1914 10.7822 19.6699 11.9868 19.6699H29.4034C31.1384 19.6699 32.8023 20.3591 34.0291 21.5859C35.2559 22.8127 35.9451 24.4766 35.9451 26.2116C35.9451 27.9465 35.2559 29.6104 34.0291 30.8372C32.8023 32.064 31.1384 32.7532 29.4034 32.7532H16.6951V33.0519C16.6951 33.8094 16.2671 34.5019 15.5895 34.8407L14.3535 35.4588C14.0757 35.5976 13.7695 35.6699 13.459 35.6699H9.10928C8.57885 35.6699 8.07014 35.4592 7.69507 35.0841L7.28086 34.6699H4.69507C3.5905 34.6699 2.69507 33.7745 2.69507 32.6699V30.6699C2.69507 29.5653 3.5905 28.6699 4.69507 28.6699H7.28086L7.69507 28.2557C8.07014 27.8806 8.57885 27.6699 9.10928 27.6699H13.459C13.7695 27.6699 14.0757 27.7422 14.3535 27.881L15.5895 28.4991C16.2671 28.8379 16.6951 29.5304 16.6951 30.2879V30.7532H29.4034C30.608 30.7532 31.7631 30.2747 32.6149 29.423C33.4666 28.5713 33.9451 27.4161 33.9451 26.2116C33.9451 25.007 33.4666 23.8519 32.6149 23.0001C31.7631 22.1484 30.608 21.6699 29.4034 21.6699H11.9868C10.2518 21.6699 8.58788 20.9807 7.36108 19.7539C6.13428 18.5271 5.44507 16.8632 5.44507 15.1282C5.44507 13.3933 6.13428 11.7294 7.36108 10.5026C8.58788 9.2758 10.2518 8.58659 11.9868 8.58659H24.6951V8.28795C24.6951 7.53041 25.1231 6.83788 25.8007 6.4991L27.0367 5.88107ZM32.2809 7.66992H27.9312L26.6951 8.28795V11.0519L27.9312 11.6699H32.2809L32.6951 11.2557C33.0702 10.8806 33.5789 10.6699 34.1093 10.6699H36.6951V8.66992H34.1093C33.5789 8.66992 33.0702 8.45921 32.6951 8.08413L32.2809 7.66992ZM13.459 29.6699H9.10928L8.69507 30.0841C8.32 30.4592 7.81129 30.6699 7.28086 30.6699H4.69507V32.6699H7.28086C7.81129 32.6699 8.32 32.8806 8.69507 33.2557L9.10928 33.6699H13.459L14.6951 33.0519V30.2879L13.459 29.6699Z" fill="#63666A"></path></svg> 