<?xml version="1.0" encoding="UTF-8"?> <svg xmlns="http://www.w3.org/2000/svg" width="41" height="41" viewBox="0 0 41 41" fill="none"><path fill-rule="evenodd" clip-rule="evenodd" d="M25.0264 18.3107V4.21018H25.9764C26.5011 4.21018 26.9264 3.78485 26.9264 3.26018C26.9264 2.73551 26.5011 2.31018 25.9764 2.31018H25.0264H15.5264H14.5764C14.0518 2.31018 13.6264 2.7355 13.6264 3.26018C13.6264 3.78485 14.0518 4.21018 14.5764 4.21018H15.5264V18.3107C15.5264 18.8494 15.3737 19.3771 15.0861 19.8325L5.19361 35.4956C4.39456 36.7608 5.30368 38.4102 6.80003 38.4102H33.7528C35.2492 38.4102 36.1583 36.7608 35.3592 35.4956L25.4668 19.8325C25.1791 19.3771 25.0264 18.8494 25.0264 18.3107ZM17.4264 4.21018V18.3107C17.4264 19.2085 17.1719 20.088 16.6925 20.8471L11.8957 28.4421C12.2195 28.611 12.6446 28.8207 13.1236 29.0272C14.2379 29.5077 15.4924 29.9033 16.4339 29.8612C17.5247 29.8123 18.2057 29.2065 19.1417 28.2915L19.2364 28.1988C20.1065 27.3461 21.2313 26.2437 23.0326 26.0649C24.5772 25.9115 26.3715 26.4333 27.7073 26.9381L23.8604 20.8471C23.3809 20.088 23.1264 19.2085 23.1264 18.3107V4.21018H17.4264ZM10.8922 30.0611L10.8779 30.0535L6.80003 36.5102H33.7528L29.5329 29.8287C29.4607 29.8095 29.3895 29.7814 29.321 29.7439L29.3137 29.74L29.2847 29.7245C29.2583 29.7104 29.2178 29.689 29.1646 29.6615C29.0582 29.6065 28.9011 29.527 28.7034 29.4319C28.3071 29.2412 27.7524 28.9898 27.1194 28.7473C25.8108 28.2458 24.3276 27.8457 23.2203 27.9556C22.1111 28.0657 21.4205 28.7209 20.4699 29.6502L20.445 29.6745C19.5507 30.5489 18.3988 31.6751 16.5189 31.7593C15.1164 31.8221 13.5209 31.2677 12.3712 30.7719C11.7762 30.5154 11.2599 30.2562 10.8922 30.0611ZM16.4764 27.0102C17.0011 27.0102 17.4264 26.5849 17.4264 26.0602C17.4264 25.5355 17.0011 25.1102 16.4764 25.1102C15.9518 25.1102 15.5264 25.5355 15.5264 26.0602C15.5264 26.5849 15.9518 27.0102 16.4764 27.0102ZM22.1764 23.2102C22.1764 23.7349 21.7511 24.1602 21.2264 24.1602C20.7018 24.1602 20.2764 23.7349 20.2764 23.2102C20.2764 22.6855 20.7018 22.2602 21.2264 22.2602C21.7511 22.2602 22.1764 22.6855 22.1764 23.2102ZM19.3264 20.3602C19.8511 20.3602 20.2764 19.9349 20.2764 19.4102C20.2764 18.8855 19.8511 18.4602 19.3264 18.4602C18.8018 18.4602 18.3764 18.8855 18.3764 19.4102C18.3764 19.9349 18.8018 20.3602 19.3264 20.3602Z" fill="#63666A"></path></svg> 