<?xml version="1.0" encoding="UTF-8"?> <svg xmlns="http://www.w3.org/2000/svg" width="41" height="41" viewBox="0 0 41 41" fill="none"><path fill-rule="evenodd" clip-rule="evenodd" d="M22.3241 23.1935H20.3241V26.5268H16.9908V28.5268H20.3241V31.8602H22.3241V28.5268H25.6575V26.5268H22.3241V23.1935ZM20.325 8.19348V5.19348H17.9908C17.4385 5.19348 16.9908 4.74576 16.9908 4.19348C16.9908 3.64119 17.4385 3.19348 17.9908 3.19348H30.4908C30.6882 3.19348 30.8812 3.25191 31.0455 3.36143L33.5455 5.02809C34.005 5.33444 34.1292 5.95531 33.8229 6.41484C33.5165 6.87437 32.8956 6.99855 32.4361 6.69219L30.188 5.19348H22.325V8.19348H22.9904C23.5427 8.19348 23.9904 8.64119 23.9904 9.19348V11.527H26.325C26.8773 11.527 27.325 11.9747 27.325 12.527V14.8624C30.9702 14.9563 33.8084 18.0993 33.5054 21.7562L32.4455 34.5513C32.2594 36.7981 30.3815 38.5269 28.1269 38.5269H14.5206C12.2661 38.5269 10.3881 36.7981 10.202 34.5513L9.14205 21.7562C8.83905 18.0985 11.6786 14.9549 15.325 14.8623V12.527C15.325 11.9747 15.7727 11.527 16.325 11.527H18.6571V9.19348C18.6571 8.64119 19.1048 8.19348 19.6571 8.19348H20.325ZM21.9904 10.1935V11.527H20.6571V10.1935H21.9904ZM26.3095 16.8602L26.325 16.8603L26.3405 16.8602H27.1571C29.7129 16.8602 31.7233 19.044 31.5123 21.5911L30.4523 34.3862C30.3521 35.596 29.3409 36.5269 28.1269 36.5269H14.5206C13.3066 36.5269 12.2954 35.596 12.1952 34.3862L11.1353 21.5911C10.9243 19.044 12.9346 16.8602 15.4904 16.8602H16.3095L16.325 16.8603L16.3405 16.8602H26.3095ZM25.325 14.8602V13.527H17.325V14.8602H25.325Z" fill="#63666A"></path></svg> 