<?xml version="1.0" encoding="UTF-8"?> <svg xmlns="http://www.w3.org/2000/svg" width="41" height="41" viewBox="0 0 41 41" fill="none"><path fill-rule="evenodd" clip-rule="evenodd" d="M13.9223 15.5221C13.232 15.5221 12.6723 16.0818 12.6723 16.7721C12.6723 17.4625 13.232 18.0221 13.9223 18.0221H15.9223V26.7512C15.9223 27.4415 16.482 28.0012 17.1723 28.0012C17.8627 28.0012 18.4223 27.4415 18.4223 26.7512V18.0221H20.4254C21.1157 18.0221 21.6754 17.4625 21.6754 16.7721C21.6754 16.0818 21.1157 15.5221 20.4254 15.5221H17.1723H13.9223ZM24.7671 19.2184C25.4574 19.2184 26.0171 19.778 26.0171 20.4684V26.7509C26.0171 27.4413 25.4574 28.0009 24.7671 28.0009C24.0767 28.0009 23.5171 27.4413 23.5171 26.7509V20.4684C23.5171 19.778 24.0767 19.2184 24.7671 19.2184ZM24.6245 18.36C25.453 18.36 26.1245 17.6885 26.1245 16.86C26.1245 16.0316 25.453 15.36 24.6245 15.36C23.7961 15.36 23.1245 16.0316 23.1245 16.86C23.1245 17.6885 23.7961 18.36 24.6245 18.36ZM6.56494 13.7114C6.56494 9.92679 9.57695 6.81458 13.3464 6.81458H27.3518C31.1214 6.81458 34.1334 9.92679 34.1334 13.7114V28.0085C34.1334 31.7931 31.1214 34.9053 27.3518 34.9053H13.3464C9.57695 34.9053 6.56494 31.7931 6.56494 28.0085V13.7114ZM13.3464 9.31458C11.006 9.31458 9.06494 11.2587 9.06494 13.7114V28.0085C9.06494 30.4613 11.006 32.4053 13.3464 32.4053H27.3518C29.6923 32.4053 31.6334 30.4612 31.6334 28.0085V13.7114C31.6334 11.2587 29.6923 9.31458 27.3518 9.31458H13.3464Z" fill="#63666A"></path></svg> 