<?xml version="1.0" encoding="UTF-8"?> <svg xmlns="http://www.w3.org/2000/svg" width="41" height="41" viewBox="0 0 41 41" fill="none"><path fill-rule="evenodd" clip-rule="evenodd" d="M33.3528 20.8862C33.3528 27.6085 30.2218 33.058 26.3596 33.058C22.4974 33.058 19.3665 27.6085 19.3665 20.8862C19.3665 14.1639 22.4974 8.71443 26.3596 8.71443C30.2218 8.71443 33.3528 14.1639 33.3528 20.8862ZM31.3528 20.8862C31.3528 23.962 30.6322 26.6484 29.5703 28.4966C28.4771 30.3994 27.2687 31.058 26.3596 31.058C25.4505 31.058 24.2421 30.3994 23.1489 28.4966C22.087 26.6484 21.3665 23.962 21.3665 20.8862C21.3665 17.8104 22.087 15.1241 23.1489 13.2758C24.2421 11.373 25.4505 10.7144 26.3596 10.7144C27.2687 10.7144 28.4771 11.373 29.5703 13.2758C30.6322 15.1241 31.3528 17.8104 31.3528 20.8862ZM26.0553 39.0515V39.045C26.1563 39.0493 26.2579 39.0515 26.3599 39.0515C29.6329 39.0515 32.4122 36.7891 34.3181 33.5285C36.2381 30.2438 37.3936 25.7718 37.3936 20.8862C37.3936 16.0005 36.2381 11.5285 34.3181 8.2438C32.4122 4.98327 29.6329 2.72083 26.3599 2.72083C26.2579 2.72083 26.1563 2.72303 26.0553 2.72739V2.72083H15.4135C12.1405 2.72083 9.36122 4.98327 7.45534 8.2438C5.53533 11.5285 4.37988 16.0005 4.37988 20.8862C4.37988 25.7718 5.53533 30.2438 7.45534 33.5285C9.36122 36.7891 12.1405 39.0515 15.4135 39.0515H26.0553ZM6.44411 18.9661C6.40174 19.5951 6.37988 20.2358 6.37988 20.8862C6.37988 22.4901 6.5128 24.0351 6.75864 25.4913L10.9645 23.6441L15.5804 24.8079C15.4137 23.5427 15.3263 22.2301 15.3263 20.8862C15.3263 19.9733 15.3666 19.0749 15.4447 18.196L11.1176 16.7622L6.44411 18.9661ZM15.9501 26.9637L11.1407 25.7511L7.18004 27.4906C7.66465 29.3928 8.34996 31.0958 9.182 32.5193C9.23984 32.6182 9.29825 32.7156 9.35722 32.8115L13.2229 31.2898L17.6595 32.1197C16.9292 30.5794 16.3492 28.8404 15.9501 26.9637ZM15.4135 37.0515C13.7154 37.0515 12.0345 36.166 10.5728 34.4823L13.4204 33.3614L18.9447 34.3948C19.6342 35.4206 20.4174 36.3219 21.2802 37.0515H15.4135ZM6.70163 16.6335L10.9877 14.6122L15.6961 16.1723C16.0578 13.9185 16.6739 11.8313 17.4961 10.0063L13.3311 8.62619L8.62611 10.2903C7.74043 12.0934 7.07055 14.25 6.70163 16.6335ZM21.2802 4.72083C20.1919 5.64113 19.2301 6.83469 18.4235 8.20664L13.31 6.51225L10.3453 7.56083C11.8587 5.70142 13.6265 4.72083 15.4135 4.72083H21.2802ZM20.1284 9.25308C18.4169 12.181 17.3263 16.2917 17.3263 20.8862C17.3263 25.4807 18.4169 29.5914 20.1284 32.5193C21.854 35.4714 24.0915 37.0515 26.3599 37.0515C28.6283 37.0515 30.8659 35.4714 32.5915 32.5193C34.3029 29.5914 35.3936 25.4807 35.3936 20.8862C35.3936 16.2917 34.3029 12.181 32.5915 9.25308C30.8659 6.30098 28.6283 4.72083 26.3599 4.72083C24.0915 4.72083 21.854 6.30098 20.1284 9.25308Z" fill="#63666A"></path></svg> 