<?xml version="1.0" encoding="UTF-8"?> <svg xmlns="http://www.w3.org/2000/svg" width="41" height="41" viewBox="0 0 41 41" fill="none"><path fill-rule="evenodd" clip-rule="evenodd" d="M29.421 5.35999C30.0293 5.35999 30.5185 5.86101 30.5049 6.46997L30.4414 9.30914L33.862 15.0181C34.4479 15.996 34.4943 17.2058 33.985 18.2257C33.2659 19.6658 31.6222 20.386 30.078 19.9374L28.5654 19.4979C28.8153 23.8367 30.6129 28.5964 31.9197 31.307C33.0244 30.6661 33.9496 29.9913 34.6619 29.3619C35.0989 28.9758 35.7656 29.0176 36.1511 29.4552C36.5366 29.8927 36.4949 30.5604 36.0579 30.9464C35.0867 31.8045 33.7718 32.7311 32.1796 33.571C32.1206 33.6229 32.0549 33.6689 31.9829 33.7077C31.8979 33.7535 31.8094 33.7865 31.7198 33.8072C25.6627 36.836 15.9285 38.4886 5.84197 31.003C5.37383 30.6556 5.27557 29.9939 5.62251 29.5251C5.96944 29.0563 6.63019 28.9579 7.09833 29.3053C7.9505 29.9377 8.79935 30.4993 9.64255 30.9955C10.3677 29.5918 11.3039 27.6016 12.0555 25.3664C12.845 23.0184 13.409 20.4631 13.3488 18.0641C11.7158 18.6471 9.73523 20.0428 8.79186 23.1137C8.62053 23.6714 8.03017 23.9844 7.47324 23.8129C6.91631 23.6413 6.60372 23.0501 6.77504 22.4924C8.52858 16.7841 13.2572 15.5778 15.3126 15.5778H18.5577C19.4766 15.5778 20.2786 14.9538 20.5057 14.0621L21.0663 11.8607C22.0402 8.03624 25.4798 5.35999 29.421 5.35999ZM28.2036 27.7786C28.8076 29.5384 29.4734 31.0968 30.0431 32.2739C25.4399 34.3676 18.7504 35.4924 11.5035 31.9918C12.0546 30.9266 12.7287 29.5258 13.363 27.9272C13.3795 27.915 13.3957 27.9023 13.4116 27.8889L13.4186 27.8833C13.4284 27.8756 13.4479 27.8605 13.4771 27.8391C13.5356 27.7963 13.6332 27.7283 13.7711 27.6431C14.0468 27.4729 14.4841 27.2337 15.0929 26.9904C16.3077 26.5049 18.2202 25.997 20.9155 25.997C23.6076 25.997 25.5173 26.5158 26.7304 27.0116C27.3384 27.2602 27.7752 27.5045 28.0507 27.6785C28.1088 27.7152 28.1597 27.7487 28.2036 27.7786ZM27.3576 24.9871C26.7679 22.7332 26.3737 20.3259 26.4317 18.0574C26.44 17.73 26.5996 17.4249 26.8636 17.2316C27.1276 17.0383 27.4662 16.9785 27.7803 17.0697L30.6659 17.908C31.2318 18.0724 31.8342 17.8085 32.0977 17.2807C32.2843 16.907 32.2673 16.4636 32.0526 16.1053L28.4751 10.1344C28.3726 9.96332 28.3206 9.76664 28.325 9.56717L28.3699 7.55811C25.8485 7.96985 23.7584 9.84041 23.111 12.3828L22.5503 14.5843C22.0849 16.4119 20.4412 17.6909 18.5577 17.6909H15.4469C15.5595 20.1601 15.0775 22.7001 14.3875 24.9975C15.8461 24.4254 17.9993 23.8839 20.9155 23.8839C23.7733 23.8839 25.8994 24.4152 27.3576 24.9871Z" fill="#63666A"></path></svg> 