<?xml version="1.0" encoding="UTF-8"?> <svg xmlns="http://www.w3.org/2000/svg" width="41" height="41" viewBox="0 0 41 41" fill="none"><path fill-rule="evenodd" clip-rule="evenodd" d="M10.98 1.12988C12.8438 1.12988 14.41 2.40465 14.854 4.12988H14.98L15.0825 4.13476C15.5867 4.18609 15.98 4.6122 15.98 5.12988C15.98 5.64756 15.5867 6.07367 15.0825 6.125L14.98 6.12988V7.4209C17.8713 8.28154 19.98 10.959 19.98 14.1299V36.1299C19.98 37.7868 18.6369 39.1299 16.98 39.1299H4.97998C3.32313 39.1299 1.97998 37.7868 1.97998 36.1299V14.1299C1.97998 10.959 4.08865 8.28154 6.97998 7.4209V5.12988C6.97998 2.92074 8.77084 1.12988 10.98 1.12988ZM3.97998 36.1299C3.97998 36.6822 4.4277 37.1299 4.97998 37.1299H16.98C17.5323 37.1299 17.98 36.6822 17.98 36.1299V32.1299H3.97998V36.1299ZM3.97998 30.1299H17.98V17.1299H3.97998V30.1299ZM8.97998 9.12988C6.21856 9.12988 3.97998 11.3685 3.97998 14.1299V15.1299H17.98V14.1299C17.98 11.3685 15.7414 9.12988 12.98 9.12988H8.97998ZM10.98 3.12988C9.87541 3.12988 8.97998 4.02531 8.97998 5.12988V7.12988H12.98V5.12988C12.98 4.02531 12.0846 3.12988 10.98 3.12988Z" fill="#63666A"></path><path d="M36.0825 11.1348C36.5867 11.1861 36.98 11.6122 36.98 12.1299C36.98 12.6476 36.5867 13.0737 36.0825 13.125L35.98 13.1299H25.98C25.4277 13.1299 24.98 12.6822 24.98 12.1299C24.98 11.5776 25.4277 11.1299 25.98 11.1299H35.98L36.0825 11.1348Z" fill="#63666A"></path><path fill-rule="evenodd" clip-rule="evenodd" d="M36.98 7.12988C38.6369 7.12988 39.98 8.47303 39.98 10.1299V14.1299C39.98 15.7868 38.6369 17.1299 36.98 17.1299H31.98V18.3037C33.1447 18.7158 33.98 19.824 33.98 21.1299V36.1299C33.98 37.7868 32.6369 39.1299 30.98 39.1299C29.3231 39.1299 27.98 37.7868 27.98 36.1299V21.1299C27.98 19.824 28.8153 18.7158 29.98 18.3037V17.1299H24.98C23.3231 17.1299 21.98 15.7868 21.98 14.1299V10.1299C21.98 8.47303 23.3231 7.12988 24.98 7.12988H36.98ZM30.98 20.1299C30.4277 20.1299 29.98 20.5776 29.98 21.1299V36.1299C29.98 36.6822 30.4277 37.1299 30.98 37.1299C31.5323 37.1299 31.98 36.6822 31.98 36.1299V21.1299C31.98 20.5776 31.5323 20.1299 30.98 20.1299ZM24.98 9.12988C24.4277 9.12988 23.98 9.5776 23.98 10.1299V14.1299C23.98 14.6822 24.4277 15.1299 24.98 15.1299H36.98C37.5323 15.1299 37.98 14.6822 37.98 14.1299V10.1299C37.98 9.5776 37.5323 9.12988 36.98 9.12988H24.98Z" fill="#63666A"></path></svg> 