<?xml version="1.0" encoding="UTF-8"?> <svg xmlns="http://www.w3.org/2000/svg" width="41" height="41" viewBox="0 0 41 41" fill="none"><path fill-rule="evenodd" clip-rule="evenodd" d="M26.5742 1.13379C28.1593 1.21409 29.4199 2.52477 29.4199 4.12988C29.4199 5.43596 28.5849 6.54607 27.4199 6.958V9.12988L27.7285 9.13769C30.8988 9.29831 33.4199 11.9197 33.4199 15.1299V33.1299L33.4121 33.4385C33.2566 36.5066 30.7966 38.9666 27.7285 39.1221L27.4199 39.1299H13.4199L13.1113 39.1221C10.0432 38.9666 7.58317 36.5066 7.42773 33.4385L7.41992 33.1299V15.1299C7.41992 11.9197 9.94103 9.29831 13.1113 9.13769L13.4199 9.12988V6.958C12.2549 6.54607 11.4199 5.43596 11.4199 4.12988C11.4199 2.52477 12.6805 1.21409 14.2656 1.13379L14.4199 1.12988H26.4199L26.5742 1.13379ZM13.4199 11.1299C11.2108 11.1299 9.41992 12.9208 9.41992 15.1299V33.1299C9.41992 35.339 11.2108 37.1299 13.4199 37.1299H27.4199C27.4549 37.1299 27.4897 37.1279 27.5244 37.127C26.7685 36.5519 26.0098 35.7645 25.5869 34.7471C24.0303 35.184 22.3419 35.2493 20.6523 35.0069C17.768 34.5929 14.801 33.2825 12.2754 31.3008L11.7763 30.8955C11.5942 30.7424 11.4727 30.5287 11.4336 30.294C10.8886 27.023 11.7159 24.0628 12.8828 21.4697C13.4658 20.1741 14.1419 18.9518 14.7851 17.8223C15.4369 16.6777 16.0412 15.6509 16.5254 14.6826L16.6084 14.5449C16.7024 14.4146 16.8275 14.308 16.9726 14.2354C18.1538 13.6447 19.8187 13.3848 21.2041 13.2588C22.627 13.1295 23.9158 13.1298 24.4199 13.1299L24.5439 13.1377C24.83 13.1735 25.0897 13.3321 25.2519 13.5752L27.2519 16.5752C27.4109 16.8138 27.4593 17.1097 27.3857 17.3867C27.3212 17.6291 27.1689 17.8376 26.9599 17.9717L26.8672 18.0244L25.4199 18.7481V20.1299C25.4199 20.4377 25.2777 20.7285 25.0351 20.918C24.7924 21.1074 24.4754 21.1743 24.1767 21.0996L20.8857 20.2764C20.7174 20.757 20.5617 21.2261 20.4707 21.5459L20.4013 21.8233C20.2886 22.3959 20.4767 22.9968 20.8174 23.6885C20.9124 23.8815 21.0287 24.1125 21.1465 24.3487C22.095 23.8007 23.0907 23.5049 24.1074 23.5049C25.0822 23.5049 26.0049 23.7787 26.8564 24.2842C27.6451 23.5255 28.4648 22.9832 29.373 22.6338C30.0302 22.3811 30.709 22.2398 31.4199 22.1748V15.1299C31.4199 12.9208 29.629 11.1299 27.4199 11.1299H13.4199ZM23.8857 15.1319C23.2734 15.1381 22.3598 15.1624 21.3847 15.251C20.1659 15.3618 18.9702 15.5653 18.1455 15.8994C17.6605 16.8355 17.0864 17.8223 16.5224 18.8125C15.8845 19.9328 15.2479 21.0859 14.706 22.2901C13.6715 24.5891 13.0149 27.0097 13.3545 29.6006C15.6639 31.4564 18.3716 32.6593 20.9365 33.0274C23.6113 33.4111 26.0396 32.8828 27.7607 31.377L27.8418 31.3135C28.2548 31.0204 28.831 31.0825 29.1719 31.4717C29.5355 31.8873 29.4938 32.5192 29.0781 32.8828L28.8623 33.0654C28.4155 33.4311 27.9401 33.7441 27.4424 34.0088L27.4463 34.0166C27.8228 34.8834 28.6917 35.5776 29.5 36.0391L29.8672 36.2354L29.9092 36.2588C30.8291 35.5259 31.4199 34.3975 31.4199 33.1299V24.1846C30.9339 24.2417 30.498 24.3448 30.0918 24.501C29.5279 24.7179 28.9836 25.0511 28.4219 25.5576C28.6102 25.758 28.7938 25.9709 28.9707 26.1973L29.2334 26.5488L29.289 26.6348C29.5403 27.0748 29.4222 27.6425 29.001 27.9434C28.5796 28.2443 28.0046 28.1716 27.6699 27.791L27.6064 27.711L27.3945 27.4268C26.3291 26.0605 25.1818 25.5049 24.1074 25.5049C23.0112 25.5049 21.7376 26.0824 20.4394 27.4883L20.1787 27.7803C19.8193 28.1996 19.1888 28.2481 18.7695 27.8887C18.3502 27.5293 18.3017 26.8988 18.6611 26.4795L18.9658 26.1358C19.1479 25.9385 19.3333 25.7513 19.5215 25.5742C19.3494 25.2307 19.1645 24.8597 19.0224 24.5713C18.6437 23.8023 18.1917 22.6897 18.4385 21.4365L18.4804 21.251C18.5964 20.782 18.8342 20.08 19.0303 19.5235C19.1482 19.1886 19.2621 18.8774 19.3457 18.6504C19.3874 18.5369 19.4212 18.4436 19.4453 18.3789C19.4573 18.3467 19.4671 18.3211 19.4736 18.3037L19.4834 18.2793L19.4844 18.2774L19.5254 18.1826C19.7514 17.7293 20.2882 17.5118 20.7724 17.6944C21.0737 17.808 21.2881 18.0513 21.376 18.3369L23.4199 18.8487V18.1299C23.42 17.7513 23.634 17.4048 23.9726 17.2354L24.959 16.7412L23.8857 15.1319ZM15.4199 7.12988V9.12988H25.4199V7.12988H15.4199ZM14.4199 3.12988C13.8676 3.12988 13.4199 3.5776 13.4199 4.12988C13.4199 4.68216 13.8676 5.12988 14.4199 5.12988H26.4199C26.9722 5.12988 27.4199 4.68216 27.4199 4.12988C27.4199 3.5776 26.9722 3.12988 26.4199 3.12988H14.4199Z" fill="#63666A"></path></svg> 