<?xml version="1.0" encoding="UTF-8"?> <svg xmlns="http://www.w3.org/2000/svg" width="50" height="50" viewBox="0 0 50 50" fill="none"> <path d="M29.7037 2C29.3151 2 29 2.3151 29 2.7037V6.92593C29 7.11253 29.0741 7.2916 29.2061 7.42354C29.338 7.55549 29.5171 7.62963 29.7037 7.62963C33.062 7.63308 36.2818 8.96884 38.6564 11.3436C41.0311 13.7182 42.3669 16.938 42.3704 20.2963C42.3704 20.4829 42.4445 20.662 42.5765 20.7939C42.7084 20.9259 42.8875 21 43.0741 21H47.2963C47.4829 21 47.662 20.9259 47.7939 20.7939C47.9259 20.662 48 20.4829 48 20.2963C47.9947 15.4455 46.0654 10.7951 42.6355 7.36423C39.2053 3.93434 34.5548 2.00531 29.7037 2Z" stroke="#DADADA" stroke-width="1.5"></path> <path fill-rule="evenodd" clip-rule="evenodd" d="M17.3403 15.6587C19.1292 14.9023 21.0526 14.5135 22.9955 14.5161C23.2097 14.5161 23.4153 14.4311 23.5668 14.2799C23.7183 14.1287 23.8034 13.9235 23.8034 13.7096V8.8709C23.8034 8.65705 23.7183 8.45184 23.5668 8.30063C23.4153 8.14942 23.2097 8.06445 22.9955 8.06445C21.0836 8.06517 19.1811 8.32691 17.3403 8.84282L15.7243 9.36078C14.8945 9.66859 14.0847 10.0293 13.3007 10.4398L11.685 11.3778C7.57161 14.0042 4.50348 17.9792 3.00846 22.6193C1.51345 27.2594 1.68518 32.2746 3.49356 36.8018C5.30231 41.3294 8.63488 45.0863 12.9177 47.4257C17.201 49.7659 22.1674 50.5432 26.9621 49.6233C31.7575 48.7035 36.0816 46.1448 39.1912 42.3865C42.3006 38.6286 44.0011 33.9061 44 29.0326C44 28.8187 43.9149 28.6135 43.7634 28.4623C43.6119 28.3111 43.4063 28.2261 43.1921 28.2261H38.3448C37.8986 28.2261 37.5369 28.5872 37.5369 29.0326C37.5437 33.7467 35.2564 38.1706 31.4034 40.8971C27.5504 43.6228 22.611 44.3112 18.1577 42.7429C13.7042 41.1746 10.2905 37.5452 9.00356 33.0093C7.71666 28.4733 8.71647 23.5964 11.6847 19.93L13.3007 18.2429C14.0458 17.574 14.858 16.9828 15.7243 16.4791L17.3403 15.6587ZM42.3675 29.8382H39.1319C38.9246 33.8278 37.242 37.5981 34.4104 40.421C31.5793 43.244 27.7995 44.918 23.8026 45.12V48.3653C28.659 48.1572 33.2603 46.1385 36.6975 42.7082C40.1349 39.2787 42.1583 34.6855 42.3675 29.8382ZM22.1875 48.366V45.1193C18.1934 44.9162 14.4165 43.2412 11.5885 40.4186C8.76052 37.596 7.08196 33.8258 6.87855 29.8389H3.62602C3.83451 34.6855 5.85673 39.2783 9.29354 42.709C12.7301 46.1396 17.3318 48.1583 22.1875 48.366ZM3.62621 28.2253H6.87725C7.07779 24.2348 8.75442 20.4598 11.5828 17.6322C14.4115 14.8045 18.1902 13.125 22.1878 12.9187V9.69294C17.3312 9.90133 12.7298 11.9211 9.29298 15.3525C5.85617 18.7838 3.83395 23.3775 3.62621 28.2253Z" fill="#DADADA"></path> <path d="M9.5 18.1821C9.5 16.3194 10.7856 14.7033 12.6006 14.2845L14.6905 13.8022C15.5386 13.6065 16.2958 13.1302 16.8395 12.4506C17.573 11.5337 18.6835 11 19.8577 11H23.2959C25.386 11 27.1238 9.39078 27.2841 7.30679L27.5 4.5H36V21C36 23.2091 34.2091 25 32 25H9.5V18.1821Z" fill="white"></path> <path d="M30.5 7.25C29.8096 7.25 29.25 7.80965 29.25 8.5V28.5C29.25 29.1904 29.8096 29.75 30.5 29.75H32.5C33.1904 29.75 33.75 29.1904 33.75 28.5V8.5C33.75 7.80964 33.1904 7.25 32.5 7.25H30.5Z" fill="#F0EE0E" stroke="#484848" stroke-width="1.5"></path> <path d="M13.5 18.75C12.8096 18.75 12.25 19.3096 12.25 20V28C12.25 28.6904 12.8096 29.25 13.5 29.25H15.5C16.1904 29.25 16.75 28.6904 16.75 28V20C16.75 19.3096 16.1904 18.75 15.5 18.75H13.5Z" fill="#F0EE0E" stroke="#484848" stroke-width="1.5"></path> <path d="M22 13.75C21.3096 13.75 20.75 14.3096 20.75 15V28C20.75 28.6904 21.3096 29.25 22 29.25H24C24.6904 29.25 25.25 28.6904 25.25 28V15C25.25 14.3096 24.6904 13.75 24 13.75H22Z" fill="#F0EE0E" stroke="#484848" stroke-width="1.5"></path> <mask id="path-7-inside-1_1371_120273" fill="white"> <rect x="10" y="28" width="26" height="6" rx="1"></rect> </mask> <rect x="10" y="28" width="26" height="6" rx="1" fill="#F0EE0E" stroke="#484848" stroke-width="3.2" mask="url(#path-7-inside-1_1371_120273)"></rect> </svg> 