<?xml version="1.0" encoding="UTF-8"?> <svg xmlns="http://www.w3.org/2000/svg" width="977" height="257" viewBox="0 0 977 257" fill="none"><g clip-path="url(#clip0_5413_2555)"><path d="M17.0688 96.0404C31.8494 39.4672 82.9527 0 141.425 0H835.575C919.755 0 981.21 79.5742 959.931 161.02V161.02C945.151 217.593 894.047 257.06 835.575 257.06H141.425C57.2451 257.06 -4.21008 177.486 17.0688 96.0404V96.0404Z" fill="white"></path><path d="M657.187 202.077C651.746 202.077 646.895 201.076 642.635 199.074C638.4 197.072 635.038 194.313 632.548 190.797C630.059 187.281 628.763 183.252 628.66 178.709H644.829C645.009 181.763 646.292 184.24 648.679 186.139C651.066 188.038 653.902 188.988 657.187 188.988C659.805 188.988 662.115 188.41 664.117 187.255C666.144 186.075 667.723 184.445 668.852 182.366C670.007 180.262 670.584 177.849 670.584 175.128C670.584 172.357 669.994 169.918 668.813 167.814C667.658 165.709 666.054 164.067 664.001 162.886C661.948 161.706 659.6 161.102 656.956 161.077C654.646 161.077 652.4 161.552 650.219 162.501C648.063 163.451 646.382 164.747 645.176 166.389L630.354 163.733L634.088 122.155H682.288V135.784H647.832L645.792 155.533H646.254C647.64 153.582 649.731 151.966 652.529 150.682C655.326 149.399 658.457 148.757 661.922 148.757C666.67 148.757 670.905 149.874 674.627 152.107C678.348 154.34 681.287 157.407 683.443 161.308C685.598 165.183 686.664 169.649 686.638 174.705C686.664 180.018 685.432 184.74 682.942 188.872C680.478 192.979 677.026 196.212 672.586 198.574C668.172 200.909 663.039 202.077 657.187 202.077ZM705.463 202C702.923 202 700.741 201.102 698.919 199.305C697.122 197.483 696.224 195.301 696.224 192.76C696.224 190.245 697.122 188.089 698.919 186.293C700.741 184.496 702.923 183.598 705.463 183.598C707.927 183.598 710.083 184.496 711.931 186.293C713.779 188.089 714.703 190.245 714.703 192.76C714.703 194.454 714.267 196.007 713.394 197.419C712.547 198.805 711.431 199.921 710.045 200.768C708.659 201.589 707.132 202 705.463 202ZM755.751 202.731C749.13 202.706 743.432 201.076 738.658 197.842C733.91 194.608 730.253 189.924 727.686 183.79C725.145 177.656 723.888 170.278 723.913 161.654C723.913 153.056 725.184 145.729 727.725 139.672C730.291 133.615 733.949 129.008 738.697 125.851C743.47 122.669 749.155 121.077 755.751 121.077C762.347 121.077 768.019 122.669 772.767 125.851C777.541 129.034 781.211 133.653 783.778 139.71C786.344 145.742 787.615 153.056 787.589 161.654C787.589 170.303 786.306 177.695 783.739 183.829C781.198 189.963 777.554 194.647 772.806 197.881C768.058 201.115 762.373 202.731 755.751 202.731ZM755.751 188.911C760.268 188.911 763.874 186.639 766.569 182.097C769.264 177.554 770.599 170.74 770.573 161.654C770.573 155.674 769.957 150.695 768.725 146.717C767.519 142.739 765.799 139.749 763.566 137.747C761.359 135.745 758.754 134.744 755.751 134.744C751.26 134.744 747.667 136.99 744.972 141.481C742.277 145.973 740.917 152.697 740.891 161.654C740.891 167.711 741.494 172.767 742.7 176.822C743.932 180.852 745.665 183.88 747.898 185.908C750.131 187.91 752.748 188.911 755.751 188.911Z" fill="black"></path><path d="M626.566 98.2812V56.7176H641.381C644.615 56.7176 647.294 57.3062 649.418 58.4833C651.542 59.6603 653.132 61.2704 654.187 63.3134C655.243 65.3429 655.77 67.6294 655.77 70.173C655.77 72.7302 655.236 75.0302 654.167 77.0732C653.112 79.1027 651.515 80.7128 649.378 81.9034C647.253 83.0805 644.581 83.669 641.361 83.669H631.173V78.3518H640.793C642.836 78.3518 644.493 78 645.765 77.2965C647.037 76.5794 647.971 75.6053 648.566 74.374C649.161 73.1428 649.459 71.7425 649.459 70.173C649.459 68.6036 649.161 67.21 648.566 65.9923C647.971 64.7746 647.03 63.8208 645.745 63.1308C644.473 62.4407 642.795 62.0957 640.712 62.0957H632.837V98.2812H626.566ZM675.68 98.9104C672.608 98.9104 669.963 98.2542 667.744 96.9418C665.539 95.6159 663.834 93.7555 662.63 91.3607C661.439 88.9524 660.844 86.1315 660.844 82.8978C660.844 79.7048 661.439 76.8906 662.63 74.4552C663.834 72.0198 665.512 70.1189 667.663 68.7524C669.828 67.3859 672.358 66.7026 675.253 66.7026C677.012 66.7026 678.717 66.9935 680.368 67.5753C682.018 68.1571 683.5 69.0703 684.812 70.3151C686.125 71.5598 687.16 73.1766 687.917 75.1655C688.675 77.1409 689.054 79.5424 689.054 82.3702V84.5214H664.274V79.9754H683.107C683.107 78.3789 682.783 76.965 682.133 75.7338C681.484 74.489 680.571 73.5081 679.394 72.791C678.23 72.074 676.863 71.7154 675.294 71.7154C673.589 71.7154 672.101 72.1349 670.829 72.9737C669.571 73.799 668.597 74.8814 667.907 76.2209C667.23 77.5468 666.892 78.9877 666.892 80.5436V84.0952C666.892 86.1788 667.257 87.9512 667.988 89.4124C668.732 90.8737 669.767 91.9899 671.093 92.7611C672.419 93.5187 673.968 93.8976 675.74 93.8976C676.891 93.8976 677.939 93.7352 678.886 93.4105C679.833 93.0723 680.652 92.5717 681.342 91.9087C682.032 91.2457 682.56 90.4272 682.925 89.453L688.668 90.4881C688.208 92.1793 687.383 93.6608 686.192 94.9326C685.015 96.1909 683.534 97.1718 681.748 97.8754C679.975 98.5654 677.953 98.9104 675.68 98.9104ZM701.733 89.7778L715.473 67.1085H722.007V98.2812H716.061V75.5917L702.382 98.2812H695.787V67.1085H701.733V89.7778ZM712.875 56.5553H717.867C717.867 58.8418 717.056 60.7021 715.432 62.1363C713.822 63.5569 711.644 64.2673 708.897 64.2673C706.164 64.2673 703.992 63.5569 702.382 62.1363C700.772 60.7021 699.967 58.8418 699.967 56.5553H704.94C704.94 57.57 705.237 58.4697 705.833 59.2545C706.428 60.0257 707.449 60.4113 708.897 60.4113C710.318 60.4113 711.332 60.0257 711.941 59.2545C712.564 58.4833 712.875 57.5835 712.875 56.5553ZM726.3 72.3446V67.1085H752.602V72.3446H742.434V98.2812H736.508V72.3446H726.3ZM764.966 89.7778L778.706 67.1085H785.241V98.2812H779.294V75.5917L765.616 98.2812H759.02V67.1085H764.966V89.7778ZM814.526 80.0769V85.3332H797.641V80.0769H814.526ZM799.346 67.1085V98.2812H793.399V67.1085H799.346ZM818.768 67.1085V98.2812H812.842V67.1085H818.768ZM846.815 67.1085V72.3446H832.873V98.2812H826.886V67.1085H846.815ZM857.226 98.6669C856.117 98.6669 855.163 98.2745 854.365 97.4898C853.566 96.6915 853.167 95.7309 853.167 94.6079C853.167 93.4985 853.566 92.5514 854.365 91.7666C855.163 90.9684 856.117 90.5692 857.226 90.5692C858.336 90.5692 859.29 90.9684 860.088 91.7666C860.886 92.5514 861.285 93.4985 861.285 94.6079C861.285 95.352 861.096 96.0353 860.717 96.6577C860.352 97.2665 859.865 97.7536 859.256 98.1189C858.647 98.4842 857.97 98.6669 857.226 98.6669ZM857.226 75.9773C856.117 75.9773 855.163 75.5782 854.365 74.7799C853.566 73.9817 853.167 73.0278 853.167 71.9184C853.167 70.8089 853.566 69.8618 854.365 69.0771C855.163 68.2789 856.117 67.8797 857.226 67.8797C858.336 67.8797 859.29 68.2789 860.088 69.0771C860.886 69.8618 861.285 70.8089 861.285 71.9184C861.285 72.6625 861.096 73.3458 860.717 73.9681C860.352 74.577 859.865 75.0641 859.256 75.4294C858.647 75.7947 857.97 75.9773 857.226 75.9773Z" fill="black"></path><circle cx="202.5" cy="104.5" r="28.5" fill="#00AAFF"></circle><circle cx="210.5" cy="155.5" r="21.5" fill="#FF4053"></circle><circle cx="157.5" cy="95.5" r="13.5" fill="#965EEB"></circle><circle cx="151.5" cy="146.5" r="34.5" fill="#04E061"></circle><path d="M273.242 172.867H252.933L283.878 83.2253H308.302L339.204 172.867H318.895L296.44 103.71H295.74L273.242 172.867ZM271.973 137.632H319.945V152.426H271.973V137.632ZM403.897 105.636L380.392 172.867H359.382L335.878 105.636H355.574L369.537 153.739H370.237L384.157 105.636H403.897ZM413.439 172.867V105.636H432.085V172.867H413.439ZM422.806 96.9692C420.034 96.9692 417.656 96.05 415.671 94.2116C413.716 92.3441 412.739 90.1118 412.739 87.5148C412.739 84.9469 413.716 82.7438 415.671 80.9054C417.656 79.0379 420.034 78.1041 422.806 78.1041C425.578 78.1041 427.942 79.0379 429.897 80.9054C431.881 82.7438 432.873 84.9469 432.873 87.5148C432.873 90.1118 431.881 92.3441 429.897 94.2116C427.942 96.05 425.578 96.9692 422.806 96.9692ZM482.782 105.636V119.642H442.295V105.636H482.782ZM451.486 89.5282H470.133V152.208C470.133 153.929 470.395 155.271 470.921 156.234C471.446 157.168 472.175 157.825 473.109 158.204C474.072 158.583 475.181 158.773 476.436 158.773C477.311 158.773 478.186 158.7 479.062 158.554C479.937 158.379 480.608 158.248 481.075 158.16L484.008 172.036C483.074 172.327 481.761 172.663 480.069 173.042C478.376 173.451 476.319 173.699 473.897 173.786C469.403 173.961 465.464 173.363 462.079 171.992C458.723 170.62 456.112 168.49 454.244 165.601C452.376 162.712 451.457 159.065 451.486 154.659V89.5282ZM524.583 174.18C517.784 174.18 511.904 172.736 506.944 169.847C502.012 166.929 498.204 162.873 495.52 157.679C492.835 152.456 491.493 146.401 491.493 139.514C491.493 132.569 492.835 126.5 495.52 121.306C498.204 116.082 502.012 112.026 506.944 109.137C511.904 106.219 517.784 104.76 524.583 104.76C531.382 104.76 537.247 106.219 542.179 109.137C547.14 112.026 550.962 116.082 553.647 121.306C556.331 126.5 557.674 132.569 557.674 139.514C557.674 146.401 556.331 152.456 553.647 157.679C550.962 162.873 547.14 166.929 542.179 169.847C537.247 172.736 531.382 174.18 524.583 174.18ZM524.671 159.736C527.764 159.736 530.346 158.861 532.418 157.11C534.49 155.33 536.051 152.908 537.101 149.844C538.181 146.78 538.721 143.293 538.721 139.383C538.721 135.473 538.181 131.986 537.101 128.922C536.051 125.858 534.49 123.436 532.418 121.656C530.346 119.876 527.764 118.986 524.671 118.986C521.548 118.986 518.922 119.876 516.792 121.656C514.691 123.436 513.101 125.858 512.021 128.922C510.971 131.986 510.445 135.473 510.445 139.383C510.445 143.293 510.971 146.78 512.021 149.844C513.101 152.908 514.691 155.33 516.792 157.11C518.922 158.861 521.548 159.736 524.671 159.736Z" fill="black"></path></g><defs><clipPath id="clip0_5413_2555"><rect width="977" height="257" fill="white"></rect></clipPath></defs></svg> 