<?xml version="1.0" encoding="UTF-8"?> <svg xmlns="http://www.w3.org/2000/svg" width="407" height="137" viewBox="0 0 407 137" fill="none"><rect width="407" height="137" fill="white"></rect><g clip-path="url(#clip0_5406_2180)"><path d="M52.7771 29H90.0034C97.5766 29 100.32 29.7833 103.08 31.25C105.82 32.6848 108.06 34.9033 109.509 37.6167C110.989 40.35 111.78 43.0667 111.78 50.5667V87.4333C111.78 94.9333 110.989 97.65 109.509 100.383C108.06 103.097 105.82 105.315 103.08 106.75C100.32 108.217 97.5766 109 90.0034 109H52.7771C45.2039 109 42.4607 108.217 39.7007 106.75C36.9609 105.315 34.7207 103.097 33.2719 100.383C31.791 97.6667 31 94.9333 31 87.4333V50.5667C31 43.0667 31.791 40.35 33.2719 37.6167C34.7207 34.9033 36.9609 32.6848 39.7007 31.25C42.4607 29.7833 45.2039 29 52.7771 29V29Z" fill="#EAE60E"></path><path d="M247.71 52.45H244.933V56.0333H243.25V47.5H244.933V50.9833H247.71V47.5H249.393V56.05H247.71V52.45Z" fill="#63666A"></path><path d="M256.175 54.1344H253.617L253.011 56.0344H251.328L254.122 47.4844H255.805L258.582 56.0344H256.798L256.175 54.1344ZM254.004 52.801H255.855L254.98 49.9344H254.862L254.004 52.801Z" fill="#63666A"></path><path d="M267.215 57.6833H265.701V56.0333H260.248V47.5H261.981V54.5667H264.422V47.5H266.155V54.5667H267.215V57.6833Z" fill="#63666A"></path><path d="M273.341 51.501L273.425 50.401H273.374L272.869 51.551L270.446 56.051H268.881V47.4844H270.564V51.9177L270.446 53.0677H270.513L271.035 51.8844L273.458 47.4844H275.007V56.0344H273.324L273.341 51.501Z" fill="#63666A"></path><path d="M277.516 52.0344C277.516 51.3344 277.583 50.701 277.718 50.1177C277.852 49.551 278.054 49.0844 278.34 48.6844C278.626 48.301 278.963 48.0177 279.384 47.801C279.804 47.5844 280.292 47.4844 280.865 47.4844C281.471 47.4844 281.975 47.601 282.413 47.8177C282.834 48.051 283.17 48.351 283.423 48.7677C283.709 49.1677 283.894 49.6344 284.029 50.201C284.146 50.751 284.197 51.3677 284.197 52.0344C284.197 53.4677 283.928 54.5844 283.372 55.3677C282.817 56.201 281.975 56.5844 280.848 56.5844C280.259 56.5844 279.737 56.4677 279.316 56.251C278.894 56.0325 278.535 55.7113 278.273 55.3177C277.991 54.8748 277.797 54.3827 277.701 53.8677C277.583 53.3177 277.532 52.701 277.532 52.0344M279.333 52.0344C279.333 52.4677 279.367 52.8677 279.401 53.2177C279.434 53.5844 279.501 53.9177 279.619 54.1844C279.72 54.451 279.872 54.6677 280.074 54.8177C280.276 54.9844 280.528 55.0677 280.865 55.0677C281.151 55.0677 281.403 55.001 281.588 54.8844C281.79 54.751 281.942 54.5677 282.06 54.3177C282.177 54.0677 282.261 53.7677 282.312 53.3844C282.44 52.2272 282.383 51.0573 282.144 49.9177C282.052 49.6567 281.889 49.426 281.672 49.251C281.439 49.0828 281.153 49.0003 280.865 49.0177C280.276 49.0177 279.855 49.2677 279.653 49.7677C279.451 50.2677 279.333 51.0344 279.333 52.0344" fill="#63666A"></path><path d="M290.608 52.45H287.831V56.0333H286.148V47.5H287.831V50.9833H290.608V47.5H292.291V56.05H290.608V52.45Z" fill="#63666A"></path><path d="M299.091 54.1344H296.516L295.927 56.0344H294.244L297.021 47.4844H298.704L301.481 56.0344H299.697L299.091 54.1344ZM296.903 52.801H298.754L297.879 49.9344H297.761L296.903 52.801Z" fill="#63666A"></path><path d="M308.093 49.001H306.461C306.381 50.3081 306.28 51.6139 306.158 52.9177C306.074 53.4344 305.99 53.901 305.889 54.2844C305.788 54.6844 305.636 55.001 305.468 55.2844C305.232 55.6677 304.963 55.951 304.643 56.101C304.366 56.2335 304.063 56.3051 303.755 56.3109C303.447 56.3166 303.142 56.2564 302.859 56.1344L303.061 54.6677C303.105 54.6834 303.15 54.6946 303.196 54.701C303.391 54.7322 303.591 54.7031 303.768 54.6177C303.903 54.551 304.037 54.4344 304.138 54.2844C304.256 54.101 304.357 53.8177 304.441 53.451C304.525 53.101 304.593 52.6344 304.643 52.0844C304.694 51.5344 304.744 50.8677 304.778 50.1177L304.862 47.4844H309.827V56.2177H308.093V49.001Z" fill="#63666A"></path><path d="M312.334 47.4844H314.067V50.601C314.234 50.5733 314.403 50.5566 314.572 50.551L314.943 50.5177C315.45 50.4881 315.96 50.5274 316.457 50.6344C316.844 50.7177 317.181 50.8677 317.484 51.0677C317.787 51.2844 318.022 51.5677 318.191 51.9344C318.376 52.2844 318.46 52.751 318.46 53.301C318.46 54.301 318.157 55.051 317.517 55.551C316.895 56.051 316.003 56.3177 314.825 56.3177H314.353C313.675 56.3042 312.999 56.2317 312.334 56.101V47.4844ZM314.926 54.801C315.161 54.801 315.38 54.7677 315.599 54.7177C315.792 54.6755 315.975 54.5962 316.137 54.4844C316.306 54.3844 316.423 54.2344 316.508 54.051C316.609 53.8677 316.642 53.6344 316.642 53.3844C316.642 53.101 316.609 52.8677 316.508 52.6844C316.418 52.5144 316.284 52.3708 316.121 52.2677C315.957 52.1648 315.774 52.0967 315.582 52.0677C315.292 52.026 314.999 52.0148 314.707 52.0344L314.454 52.0677C314.324 52.074 314.195 52.0908 314.067 52.1177V54.7177C314.351 54.7678 314.638 54.7957 314.926 54.801V54.801Z" fill="#63666A"></path><path d="M324.855 52.45H322.095V56.0333H320.412V47.5H322.095V50.9833H324.855V47.5H326.538V56.05H324.855V52.45Z" fill="#63666A"></path><path d="M333.337 54.1344H330.762L330.173 56.0344H328.49L331.284 47.4844H332.967L335.727 56.0344H333.96L333.337 54.1344ZM331.166 52.801H333.017L332.142 49.9344H332.024L331.166 52.801Z" fill="#63666A"></path><path d="M343.806 56.3149H342.107V53.0649H341.265L339.414 56.3149H337.395L339.599 52.7649C339.414 52.6982 339.229 52.5982 339.027 52.4649C338.832 52.3267 338.662 52.1578 338.522 51.9649C338.366 51.7466 338.246 51.5045 338.169 51.2482C338.073 50.9349 338.028 50.6088 338.034 50.2816C338.034 49.7316 338.152 49.2649 338.421 48.8816C338.647 48.547 338.937 48.2599 339.275 48.0368C339.612 47.8137 339.992 47.659 340.39 47.5816C340.979 47.4799 341.578 47.4519 342.174 47.4982C342.722 47.5256 343.268 47.5924 343.806 47.6982V56.3149ZM342.107 49.0649C341.896 49.0238 341.682 49.0015 341.467 48.9982C341.265 48.9982 341.063 49.0149 340.878 49.0649C340.692 49.1071 340.519 49.1928 340.373 49.3149C340.218 49.4272 340.086 49.5688 339.986 49.7316C339.888 49.9117 339.832 50.112 339.824 50.3168C339.817 50.5216 339.857 50.7254 339.941 50.9124C340.026 51.0995 340.153 51.2646 340.313 51.3951C340.472 51.5256 340.66 51.6179 340.861 51.6649C341.114 51.7316 341.366 51.7649 341.602 51.7649H342.107V49.0649Z" fill="#63666A"></path><path d="M248.282 70.8492H249.662V73.3492C249.393 73.5492 249.056 73.6826 248.652 73.7992C247.712 74.0552 246.715 74.0262 245.791 73.7159C245.303 73.5492 244.866 73.2992 244.495 72.9326C244.125 72.5659 243.822 72.0992 243.587 71.5159C243.368 70.9326 243.25 70.2326 243.25 69.4159C243.25 68.5492 243.385 67.8326 243.637 67.2492C243.833 66.7376 244.144 66.2767 244.547 65.9014C244.949 65.5261 245.432 65.2461 245.96 65.0826C246.846 64.8238 247.783 64.7895 248.686 64.9826C249.022 65.0659 249.309 65.1492 249.527 65.2826V67.8826H248.164V66.4492C247.897 66.4046 247.627 66.3823 247.356 66.3826C247.02 66.3826 246.734 66.4492 246.448 66.5659C246.178 66.6826 245.943 66.8826 245.724 67.1326C245.505 67.3826 245.354 67.6826 245.219 68.0659C245.118 68.4492 245.051 68.8992 245.051 69.3992C245.051 69.8659 245.118 70.2826 245.219 70.6492C245.337 71.0159 245.488 71.3326 245.69 71.5992C245.899 71.8733 246.172 72.0925 246.486 72.2378C246.8 72.3831 247.145 72.4499 247.491 72.4326C247.76 72.4326 248.03 72.4159 248.282 72.3659V70.8492Z" fill="#63666A"></path><path d="M256.345 68.9005L256.446 67.7839H256.378L255.873 68.9339L253.45 73.4172H251.885V64.8672H253.568V69.3005L253.45 70.4505H253.517L254.056 69.2672L256.479 64.8672H258.027V73.4172H256.345V68.9005Z" fill="#63666A"></path><path d="M265.263 70.8497H266.66V73.3497C266.391 73.5497 266.054 73.6831 265.65 73.7997C264.71 74.0558 263.713 74.0267 262.789 73.7164C262.284 73.5497 261.864 73.2997 261.493 72.9331C261.106 72.5664 260.82 72.0997 260.585 71.5164C260.366 70.9331 260.248 70.2331 260.248 69.4164C260.248 68.5497 260.383 67.8331 260.635 67.2497C260.83 66.7375 261.141 66.276 261.543 65.9006C261.946 65.5251 262.43 65.2455 262.958 65.0831C263.843 64.8236 264.781 64.7893 265.684 64.9831C266.02 65.0664 266.307 65.1497 266.525 65.2831V67.8831H265.145V66.4497C264.884 66.4063 264.619 66.384 264.354 66.3831C264.018 66.3831 263.732 66.4497 263.446 66.5664C263.16 66.6831 262.924 66.8831 262.705 67.1331C262.482 67.409 262.316 67.7263 262.217 68.0664C262.099 68.4497 262.049 68.8997 262.049 69.3997C262.049 69.8664 262.099 70.2831 262.217 70.6497C262.318 71.0164 262.47 71.3331 262.688 71.5997C262.897 71.8693 263.168 72.0855 263.478 72.2305C263.789 72.3754 264.129 72.4449 264.472 72.4331C264.758 72.4331 265.011 72.4164 265.28 72.3664L265.263 70.8497Z" fill="#63666A"></path><path d="M269.487 72.0672H270.952V66.2005H269.723V67.7005H268.326V64.8672H275.293V67.7005H273.897V66.2005H272.685V72.0672H274.115V73.4005H269.487V72.0672Z" fill="#63666A"></path><path d="M277.246 64.8672H283.019V66.3672H278.98V68.3505H282.716V69.8339H278.963V71.9172H283.086V73.4172H277.246V64.8672Z" fill="#63666A"></path><path d="M290.036 68.8505L290.104 67.5172H290.02L288.64 69.7672H288.353L286.906 67.5172H286.839L286.923 68.7172V73.4172H285.324V64.8672H287.024L288.505 67.2339H288.555L290.02 64.8672H291.719V73.4172H290.036V68.8505Z" fill="#63666A"></path><path d="M298.249 71.5172H295.674L295.085 73.4172H293.402L296.179 64.8672H297.862L300.639 73.4172H298.872L298.249 71.5172ZM296.061 70.1839H297.913L297.037 67.3172H296.937L296.061 70.1839Z" fill="#63666A"></path><path d="M314.001 75.0672H312.487V73.4172H307.051V64.8672H308.784V71.9339H311.208V64.8672H312.941V71.9339H314.001V75.0672Z" fill="#63666A"></path><path d="M320.681 68.9005L320.782 67.7839H320.715L320.21 68.9339L317.787 73.4172H316.238V64.8672H317.921V69.3005L317.787 70.4505H317.871L318.392 69.2672L320.816 64.8672H322.364V73.4172H320.681V68.9005Z" fill="#63666A"></path><path d="M327.396 64.8672H329.029V65.8005C329.382 65.8005 329.719 65.8839 330.055 65.9839C330.392 66.1005 330.695 66.2839 330.964 66.5505C331.233 66.8005 331.435 67.1505 331.604 67.6005C331.755 68.0339 331.839 68.6005 331.839 69.2839C331.839 69.9505 331.755 70.5172 331.604 70.9505C331.452 71.4172 331.267 71.7839 330.998 72.0672C330.745 72.3505 330.459 72.5672 330.106 72.6839C329.769 72.8005 329.416 72.8839 329.029 72.9005V73.9672H327.396V72.9005C327.028 72.882 326.665 72.809 326.319 72.6839C325.983 72.5505 325.68 72.3505 325.427 72.0672C325.175 71.7839 324.973 71.4005 324.822 70.9672C324.653 70.5172 324.586 69.9672 324.586 69.3005C324.586 68.6339 324.67 68.0839 324.838 67.6505C324.943 67.2747 325.136 66.9289 325.402 66.6419C325.669 66.355 326 66.1351 326.37 66.0005C326.706 65.8839 327.043 65.8172 327.38 65.8005L327.396 64.8672ZM327.481 67.1505C327.287 67.1557 327.098 67.2088 326.93 67.3049C326.763 67.4009 326.622 67.5369 326.521 67.7005C326.336 68.0339 326.235 68.5672 326.235 69.3172C326.235 69.7672 326.269 70.1339 326.319 70.4172C326.387 70.7005 326.471 70.9172 326.589 71.0839C326.69 71.2505 326.824 71.3839 326.976 71.4505C327.144 71.5172 327.295 71.5672 327.481 71.5839V67.1505ZM328.945 71.5839C329.113 71.5672 329.281 71.5172 329.45 71.4505C329.601 71.3839 329.736 71.2672 329.853 71.1005C329.954 70.9339 330.039 70.7005 330.106 70.4172C330.173 70.1339 330.207 69.7505 330.207 69.3172C330.207 68.5672 330.106 68.0339 329.904 67.7005C329.802 67.5379 329.661 67.4027 329.494 67.3068C329.326 67.2109 329.138 67.1572 328.945 67.1505V71.5839Z" fill="#63666A"></path><path d="M334.617 65.0652C335.855 64.8406 337.121 64.8068 338.37 64.9652C338.808 65.0318 339.212 65.1818 339.548 65.3818C339.902 65.5985 340.188 65.8818 340.423 66.2652C340.642 66.6485 340.76 67.1485 340.76 67.7485C340.76 68.2818 340.659 68.7318 340.457 69.1152C340.272 69.4818 340.019 69.7818 339.7 70.0318C339.363 70.2818 339.026 70.4652 338.606 70.5818C338.202 70.6818 337.764 70.7485 337.344 70.7485H337.142C336.877 70.7518 336.613 70.7351 336.351 70.6985V73.6985H334.617V65.0652ZM337.192 66.3318C336.91 66.335 336.629 66.3572 336.351 66.3985V69.2152C336.401 69.2236 336.451 69.2291 336.502 69.2318L336.704 69.2485H337.091C337.31 69.2485 337.545 69.2485 337.764 69.1985C337.974 69.1592 338.174 69.08 338.353 68.9652C338.522 68.8652 338.69 68.6985 338.774 68.4985C338.892 68.2985 338.942 68.0485 338.942 67.7152C338.942 67.4485 338.892 67.2152 338.774 67.0485C338.682 66.8757 338.549 66.7272 338.387 66.6152C338.218 66.5076 338.029 66.434 337.832 66.3985C337.621 66.3555 337.407 66.3332 337.192 66.3318V66.3318Z" fill="#63666A"></path><path d="M342.981 69.4182C342.973 68.7738 343.041 68.1306 343.183 67.5016C343.318 66.9349 343.52 66.4516 343.806 66.0682C344.075 65.6849 344.428 65.3849 344.849 65.1849C345.27 64.9682 345.758 64.8516 346.313 64.8516C346.936 64.8516 347.441 64.9849 347.862 65.2016C348.282 65.4349 348.636 65.7349 348.888 66.1349C349.157 66.5349 349.359 67.0182 349.477 67.5849C349.595 68.1349 349.662 68.7516 349.662 69.4182C349.662 70.8349 349.393 71.9516 348.821 72.7516C348.282 73.5682 347.441 73.9682 346.313 73.9682C345.707 73.9682 345.203 73.8516 344.765 73.6349C344.349 73.4147 343.995 73.0936 343.738 72.7016C343.451 72.2597 343.251 71.7676 343.149 71.2516C343.032 70.7016 342.981 70.0849 342.981 69.4182M344.799 69.4182C344.799 69.8349 344.815 70.2516 344.866 70.6016C344.9 70.9682 344.967 71.2849 345.068 71.5682C345.186 71.8349 345.337 72.0516 345.522 72.2016C345.724 72.3682 345.993 72.4349 346.313 72.4349C346.571 72.4509 346.828 72.393 347.054 72.2682C347.239 72.1349 347.39 71.9516 347.525 71.7016C347.643 71.4516 347.727 71.1349 347.761 70.7682C347.884 69.6054 347.827 68.4308 347.592 67.2849C347.498 67.03 347.335 66.8053 347.121 66.6349C346.89 66.4607 346.604 66.3723 346.313 66.3849C345.724 66.3849 345.32 66.6516 345.118 67.1516C344.9 67.6516 344.799 68.4182 344.799 69.4182" fill="#63666A"></path><path d="M357.942 67.6163C357.833 68.0483 357.562 68.4234 357.185 68.6663C357 68.7996 356.747 68.8996 356.478 68.9663V69.0496C356.714 69.083 356.949 69.1496 357.185 69.2496C357.41 69.3476 357.612 69.4897 357.78 69.6673C357.948 69.8449 358.077 70.0543 358.161 70.283C358.245 70.533 358.296 70.8163 358.296 71.1496C358.304 71.5335 358.213 71.9131 358.03 72.2518C357.847 72.5905 357.579 72.8767 357.252 73.083C356.916 73.2996 356.579 73.4496 356.158 73.5496C355.755 73.633 355.334 73.683 354.913 73.683H354.358C353.625 73.6809 352.894 73.6252 352.17 73.5163V65.0496C353.433 64.8464 354.718 64.8128 355.99 64.9496C356.377 65.0163 356.714 65.1163 357.017 65.283C357.32 65.4496 357.572 65.6496 357.757 65.933C357.926 66.1996 358.027 66.5663 358.027 66.983C358.027 67.1996 357.993 67.3996 357.942 67.6163ZM354.341 68.583C354.611 68.5784 354.88 68.5617 355.149 68.533C355.468 68.4496 355.738 68.2996 355.99 68.0996C356.209 67.9163 356.327 67.6496 356.327 67.333C356.328 67.1574 356.281 66.9847 356.192 66.833C356.11 66.6956 355.994 66.581 355.856 66.4996C355.709 66.418 355.55 66.3616 355.384 66.333C355.216 66.283 355.014 66.2663 354.829 66.2663C354.481 66.2704 354.133 66.2871 353.786 66.3163V68.583H354.341ZM355.502 72.2163C355.683 72.1684 355.854 72.0894 356.007 71.983C356.166 71.8844 356.296 71.7464 356.385 71.5827C356.473 71.419 356.517 71.2353 356.512 71.0496C356.523 70.8264 356.464 70.6052 356.344 70.4163C356.236 70.2661 356.091 70.1456 355.923 70.0663C355.755 69.983 355.553 69.9163 355.334 69.8996C355.122 69.876 354.908 69.8648 354.694 69.8663H353.786V72.1996C353.819 72.233 353.887 72.233 353.988 72.2496H354.274L354.61 72.283H354.896C355.098 72.283 355.3 72.2496 355.502 72.2163V72.2163Z" fill="#63666A"></path><path d="M360.803 69.4182C360.803 68.7016 360.87 68.0682 361.005 67.5016C361.139 66.9349 361.341 66.4516 361.627 66.0682C361.897 65.6849 362.25 65.3849 362.671 65.1849C363.091 64.9682 363.58 64.8516 364.152 64.8516C364.758 64.8516 365.262 64.9849 365.683 65.2016C366.121 65.4349 366.457 65.7349 366.727 66.1349C366.996 66.5349 367.181 67.0182 367.299 67.5849C367.433 68.1349 367.484 68.7516 367.484 69.4182C367.484 70.8349 367.215 71.9516 366.659 72.7516C366.104 73.5682 365.263 73.9682 364.135 73.9682C363.546 73.9682 363.024 73.8516 362.603 73.6349C362.181 73.417 361.822 73.0957 361.56 72.7016C361.278 72.2587 361.084 71.7665 360.988 71.2516C360.87 70.7016 360.82 70.0849 360.82 69.4182M362.62 69.4182C362.62 69.8349 362.654 70.2516 362.688 70.6016C362.721 70.9682 362.789 71.2849 362.906 71.5682C363.007 71.8349 363.159 72.0516 363.361 72.2016C363.546 72.3682 363.815 72.4349 364.152 72.4349C364.404 72.4477 364.655 72.3899 364.875 72.2682C365.077 72.1349 365.229 71.9516 365.347 71.7016C365.464 71.4516 365.549 71.1349 365.599 70.7682C365.724 69.6054 365.667 68.4306 365.431 67.2849C365.336 67.03 365.173 66.8053 364.96 66.6349C364.728 66.4607 364.442 66.3723 364.152 66.3849C363.563 66.3849 363.142 66.6516 362.94 67.1516C362.738 67.6516 362.62 68.4182 362.62 69.4182" fill="#63666A"></path><path d="M374.452 69.0651L374.553 67.9318H374.486L373.981 69.0984L371.557 73.6818H369.992V64.9484H371.675V69.4818L371.557 70.6484H371.625L372.146 69.4484L374.587 64.9484H376.118V73.6818H374.435L374.452 69.0651ZM372.331 62.6484C372.365 62.9151 372.449 63.1151 372.618 63.2318C372.786 63.3484 372.988 63.3984 373.24 63.3984C373.779 63.3984 374.082 63.1651 374.149 62.6651L375.495 62.8818C375.471 63.1114 375.397 63.3331 375.278 63.5316C375.158 63.7301 374.997 63.9008 374.805 64.0318C374.418 64.2651 373.897 64.3818 373.223 64.3818C372.887 64.3818 372.584 64.3651 372.298 64.3151C372.029 64.2651 371.793 64.1818 371.574 64.0651C371.356 63.9509 371.171 63.7841 371.036 63.5801C370.901 63.3762 370.819 63.1417 370.8 62.8984L372.331 62.6484Z" fill="#63666A"></path><path d="M247.979 86.499L248.03 85.1656H247.962L246.582 87.4156H246.279L244.849 85.1823H244.781L244.866 86.3823V91.0656H243.25V82.5156H244.967L246.448 84.8823H246.498L247.962 82.5156H249.662V91.0656H247.979V86.499Z" fill="#63666A"></path><path d="M256.747 89.1656H254.172L253.583 91.0656H251.9L254.677 82.5156H256.36L259.137 91.0656H257.353L256.747 89.1656ZM254.559 87.8323H256.411L255.536 84.9656H255.418L254.559 87.8323Z" fill="#63666A"></path><path d="M261.645 82.448C262.876 82.2127 264.138 82.1789 265.381 82.348C265.818 82.4146 266.222 82.5646 266.559 82.7646C266.929 82.9813 267.215 83.2646 267.434 83.648C267.653 84.0313 267.77 84.5146 267.77 85.1313C267.77 85.648 267.669 86.1146 267.484 86.4813C267.302 86.8469 267.037 87.1662 266.71 87.4146C266.39 87.6646 266.037 87.848 265.616 87.948C265.212 88.0646 264.792 88.1146 264.354 88.1146H264.152C263.956 88.1232 263.759 88.1176 263.563 88.098L263.361 88.0646V91.0646H261.645V82.448ZM264.203 83.698C263.921 83.7 263.64 83.7223 263.361 83.7646V86.598H263.529C263.669 86.616 263.809 86.6271 263.95 86.6313H264.118C264.337 86.6313 264.556 86.6313 264.792 86.5813C265.002 86.5428 265.202 86.4635 265.381 86.348C265.561 86.2332 265.707 86.0719 265.801 85.8813C265.915 85.6362 265.967 85.3674 265.953 85.098C265.966 84.8825 265.921 84.6675 265.823 84.4745C265.726 84.2815 265.579 84.1172 265.397 83.998C265.23 83.8849 265.041 83.8056 264.842 83.7646C264.632 83.7217 264.417 83.6994 264.203 83.698V83.698Z" fill="#63666A"></path><path d="M272.922 87.499H272.013V91.0656H270.279V82.5156H272.013V86.0156H272.922L274.941 82.5156H276.927L274.419 86.649L277.247 91.0656H275.092L272.922 87.499Z" fill="#63666A"></path><path d="M283.641 86.549L283.742 85.4323H283.675L283.17 86.599L280.747 91.0656H279.182V82.5156H280.865V86.949L280.747 88.099H280.814L281.353 86.9156L283.776 82.5156H285.324V91.0656H283.641V86.549Z" fill="#63666A"></path><path d="M288.387 82.448C289.618 82.2127 290.88 82.1789 292.123 82.348C292.56 82.4146 292.964 82.5646 293.301 82.7646C293.671 82.9813 293.957 83.2646 294.176 83.648C294.395 84.0313 294.513 84.5146 294.513 85.1313C294.513 85.648 294.412 86.1146 294.226 86.4813C294.044 86.8469 293.779 87.1662 293.452 87.4146C293.133 87.6646 292.779 87.848 292.358 87.948C291.955 88.0646 291.534 88.1146 291.096 88.1146H290.894C290.63 88.123 290.365 88.1063 290.103 88.0646V91.0646H288.387V82.448ZM290.945 83.698C290.663 83.7003 290.382 83.7226 290.103 83.7646V86.598H290.255C290.4 86.6166 290.546 86.6277 290.692 86.6313H290.861C291.079 86.6313 291.298 86.6313 291.534 86.5813C291.744 86.5428 291.944 86.4635 292.123 86.348C292.303 86.2332 292.449 86.0719 292.544 85.8813C292.663 85.6376 292.721 85.3687 292.712 85.098C292.712 84.8313 292.645 84.598 292.544 84.4313C292.452 84.2581 292.319 84.1095 292.156 83.998C291.984 83.882 291.789 83.8026 291.584 83.7646C291.374 83.7218 291.16 83.6995 290.945 83.698V83.698Z" fill="#63666A"></path><path d="M297.02 86.7998C297.012 86.1554 297.08 85.5122 297.222 84.8832C297.357 84.3165 297.559 83.8332 297.845 83.4498C298.114 83.0665 298.467 82.7665 298.888 82.5498C299.309 82.3498 299.797 82.2332 300.352 82.2332C300.858 82.1987 301.364 82.2997 301.817 82.5254C302.27 82.7512 302.654 83.0935 302.927 83.5165C303.196 83.9165 303.398 84.3998 303.516 84.9498C303.634 85.5165 303.701 86.1165 303.701 86.7832C303.701 88.2165 303.432 89.3332 302.86 90.1332C302.321 90.9332 301.48 91.3498 300.352 91.3498C299.746 91.3498 299.242 91.2332 298.804 91.0165C298.386 90.791 298.033 90.4641 297.777 90.0665C297.491 89.6299 297.291 89.1435 297.188 88.6332C297.071 88.0665 297.02 87.4665 297.02 86.7998M298.838 86.7998C298.838 87.2165 298.854 87.6165 298.888 87.9665C298.939 88.3498 299.006 88.6665 299.107 88.9332C299.225 89.2165 299.376 89.4332 299.561 89.5832C299.763 89.7498 300.033 89.8165 300.352 89.8165C300.655 89.8165 300.891 89.7498 301.093 89.6498C301.295 89.5165 301.429 89.3165 301.564 89.0832C301.682 88.8332 301.766 88.5165 301.816 88.1332C301.934 86.9757 301.878 85.8074 301.648 84.6665C301.555 84.4063 301.392 84.176 301.177 83.9998C300.939 83.8278 300.646 83.7451 300.352 83.7665C299.763 83.7665 299.359 84.0165 299.157 84.5332C298.939 85.0332 298.838 85.7998 298.838 86.7998Z" fill="#63666A"></path><path d="M311.981 85.001C311.872 85.4331 311.601 85.8081 311.224 86.051C311.039 86.1844 310.787 86.2844 310.517 86.351V86.4177C310.753 86.4677 310.989 86.5344 311.224 86.6344C311.448 86.7332 311.65 86.8756 311.818 87.0531C311.986 87.2306 312.116 87.4396 312.2 87.6677C312.284 87.901 312.335 88.201 312.335 88.5344C312.343 88.9183 312.252 89.2979 312.069 89.6365C311.886 89.9752 311.618 90.2615 311.291 90.4677C310.955 90.6677 310.618 90.8177 310.198 90.9177C309.785 91.0241 309.361 91.0801 308.935 91.0844H308.397C307.663 91.0754 306.932 91.0085 306.209 90.8844V82.4344C307.084 82.3031 307.967 82.2363 308.851 82.2344C309.255 82.2344 309.642 82.2677 310.029 82.3344C310.416 82.401 310.753 82.501 311.056 82.6677C311.359 82.8177 311.611 83.0344 311.796 83.3177C311.965 83.5844 312.066 83.9344 312.066 84.3677C312.066 84.5844 312.032 84.7844 311.981 85.001V85.001ZM308.38 85.9677C308.65 85.9645 308.92 85.9478 309.188 85.9177C309.508 85.8177 309.777 85.6844 310.012 85.4844C310.248 85.2844 310.349 85.0344 310.349 84.7177C310.357 84.5381 310.317 84.3596 310.231 84.201C310.149 84.0637 310.033 83.949 309.895 83.8677C309.749 83.7845 309.589 83.7281 309.423 83.701C308.891 83.6665 308.357 83.6665 307.825 83.701V85.9677H308.38ZM309.541 89.5844C309.721 89.5413 309.892 89.468 310.046 89.3677C310.205 89.2691 310.335 89.1312 310.424 88.9675C310.512 88.8038 310.556 88.62 310.551 88.4344C310.562 88.2111 310.503 87.9899 310.383 87.801C310.274 87.6513 310.13 87.531 309.962 87.451C309.794 87.3677 309.592 87.301 309.373 87.2844C309.161 87.2614 308.947 87.2503 308.733 87.251H307.825V89.5844L308.027 89.6177L308.313 89.651C308.52 89.6485 308.728 89.6485 308.935 89.651C309.137 89.651 309.339 89.651 309.541 89.5844V89.5844Z" fill="#63666A"></path><path d="M317.771 87.499H316.862V91.0656H315.129V82.5156H316.862V86.0156H317.754L319.774 82.5156H321.776L319.269 86.649L322.079 91.0656H319.942L317.771 87.499Z" fill="#63666A"></path><path d="M328.491 86.549L328.575 85.4323H328.525L328.02 86.599L325.596 91.0656H324.031V82.5156H325.714V86.949L325.596 88.099H325.664L326.185 86.9156L328.626 82.5156H330.157V91.0656H328.474L328.491 86.549Z" fill="#63666A"></path><path d="M91.5692 45.2313C92.5884 45.2357 93.5644 45.6397 94.2835 46.355C95.0026 47.0703 95.4063 48.0386 95.4063 49.0479V58.5146H103.417V49.0479C103.417 42.5479 98.099 37.2812 91.5692 37.2812H81.9766V45.2313H91.5692Z" fill="#63666A"></path><path d="M95.4063 89C95.4063 90.0078 95.0021 90.9744 94.2825 91.687C93.5629 92.3996 92.5869 92.8 91.5692 92.8H81.9766V100.717H91.5692C94.7072 100.712 97.7156 99.477 99.9361 97.2811C102.157 95.0852 103.408 92.1076 103.417 89V79.5H95.4063V89Z" fill="#63666A"></path><path d="M47.374 49.0479C47.3718 48.5467 47.4693 48.05 47.6609 47.5861C47.8526 47.1222 48.1346 46.7002 48.4909 46.3442C48.8472 45.9883 49.2708 45.7053 49.7375 45.5115C50.2043 45.3177 50.705 45.2168 51.2111 45.2146H60.8038V37.2812H51.2111C48.0658 37.2901 45.0523 38.5337 42.8314 40.7394C40.6104 42.9451 39.3633 45.933 39.3633 49.0479V58.5146H47.374V49.0479Z" fill="#63666A"></path><path d="M51.2111 92.8C50.1948 92.7956 49.2214 92.3938 48.5028 91.6822C47.7841 90.9705 47.3784 90.0065 47.374 89V79.5H39.3633V89C39.3722 92.1076 40.6238 95.0852 42.8443 97.2811C45.0647 99.477 48.0731 100.712 51.2111 100.717H60.8038V92.8H51.2111Z" fill="#63666A"></path><path d="M66.7794 88.0302L49.6641 71.0802L55.3187 65.4635L66.7626 76.7969L87.4626 56.2969L93.1172 61.9135L66.7794 88.0302Z" fill="#63666A"></path><path d="M144.092 80.1172C145.203 81.3839 145.775 82.9172 145.775 84.7172C145.775 86.1839 145.371 87.5505 144.564 88.8005C143.673 90.1421 142.411 91.2011 140.928 91.8505C139.296 92.6172 137.276 93.0005 134.87 93.0005C133.106 93.0008 131.348 92.7881 129.636 92.3672C128.05 91.9936 126.534 91.3749 125.143 90.5339L127.717 85.2505C129.783 86.5796 132.188 87.2966 134.651 87.3172C135.863 87.3172 136.839 87.0839 137.546 86.6505C138.253 86.1839 138.623 85.5505 138.623 84.7172C138.623 83.1172 137.344 82.3005 134.803 82.3005H131.824V77.8505L136.3 73.0505H126.438V67.6172H144.513V72.0339L139.33 77.5672C141.4 78.0005 142.998 78.8505 144.109 80.1172" fill="#63666A"></path><path d="M173.612 67.6172V92.4505H166.493V82.7672H156.783V92.4339H149.664V67.6339H156.783V76.9672H166.493V67.6339L173.612 67.6172Z" fill="#63666A"></path><path d="M196.33 68.4665C198.117 69.3826 199.584 70.8116 200.537 72.5665C201.547 74.3498 202.035 76.4998 202.035 79.0165V92.4498H194.916V86.9498H185.088V92.4498H178.07V78.9998C178.07 76.4998 178.575 74.3331 179.568 72.5498C180.522 70.7949 181.988 69.3659 183.775 68.4498C185.722 67.485 187.877 67.0045 190.053 67.0498C192.426 67.0498 194.513 67.5165 196.33 68.4498V68.4665ZM194.916 81.4998V78.3998C194.916 76.5831 194.462 75.2165 193.57 74.2831C193.11 73.8184 192.555 73.455 191.943 73.2167C191.332 72.9783 190.676 72.8703 190.019 72.8998C188.504 72.8998 187.31 73.3665 186.418 74.2831C185.543 75.2165 185.088 76.5831 185.088 78.3998V81.4998H194.916Z" fill="#63666A"></path><path d="M213.547 80.6672V92.4505H206.479V67.6172H213.547V79.3839H213.715L222.534 67.6172H230.999L221.339 79.6172L231.268 92.4505H222.079L213.547 80.6672Z" fill="#63666A"></path><path d="M137.967 47.2031V59.9031H133.642V55.8365C132.784 56.0865 131.993 56.2198 131.286 56.2198C129.385 56.2198 127.92 55.7865 126.911 54.8865C125.935 54.0198 125.43 52.7198 125.43 51.0365V47.2031H129.738V50.5698C129.738 51.3365 129.906 51.9031 130.26 52.2698C130.596 52.6531 131.135 52.8365 131.842 52.8365C132.582 52.8365 133.188 52.7365 133.642 52.5365V47.2031H137.967Z" fill="#63666A"></path><path d="M151.33 56.6698V59.9031H140.744V47.2031H151.094V50.4365H144.968V51.9365H150.354V55.0031H144.968V56.6698H151.33Z" fill="#63666A"></path><path d="M156.816 59.0474C155.739 58.512 154.837 57.6872 154.212 56.6673C153.587 55.6473 153.264 54.4737 153.282 53.2807C153.265 52.0858 153.588 50.9102 154.213 49.8877C154.837 48.8653 155.739 48.0371 156.816 47.4974C157.927 46.9307 159.172 46.6641 160.535 46.6641C161.798 46.6641 162.925 46.8641 163.918 47.2974C164.928 47.7307 165.736 48.3641 166.375 49.1807L163.615 51.5974C163.29 51.1427 162.862 50.7699 162.365 50.5093C161.868 50.2488 161.316 50.1076 160.754 50.0974C159.845 50.0974 159.105 50.3974 158.549 50.9641C157.994 51.5474 157.708 52.2974 157.708 53.2807C157.708 54.2307 157.994 55.0141 158.549 55.5807C159.105 56.1474 159.845 56.4307 160.754 56.4307C161.848 56.4307 162.807 55.9307 163.615 54.9641L166.375 57.3641C165.736 58.1807 164.911 58.8141 163.918 59.2474C162.925 59.6807 161.798 59.8974 160.552 59.8974C159.155 59.8974 157.927 59.6141 156.816 59.0641" fill="#63666A"></path><path d="M179.468 50.5365H175.732V59.9031H171.508V50.5365H167.771V47.2031H179.468V50.5365Z" fill="#63666A"></path><path d="M194.244 47.2031V59.9031H189.851V55.2365H185.812V59.9031H181.42V47.2031H185.796V51.7031H189.835V47.2031H194.244Z" fill="#63666A"></path><path d="M209.356 55.3031C209.356 56.7865 208.851 57.9198 207.841 58.7198C206.831 59.5031 205.485 59.8865 203.735 59.8865H197.289V47.2198H201.597V51.1031H204.29C205.906 51.1031 207.151 51.4531 208.043 52.1698C208.918 52.8698 209.356 53.9198 209.356 55.3031V55.3031ZM204.946 55.3698C204.946 54.5198 204.442 54.1031 203.432 54.1031H201.597V56.9031H203.449C203.847 56.9153 204.234 56.7715 204.526 56.5031C204.671 56.3534 204.784 56.1753 204.856 55.9802C204.929 55.7851 204.959 55.5773 204.946 55.3698V55.3698ZM210.534 47.2031H214.842V59.9031H210.534V47.2031Z" fill="#63666A"></path><path d="M217.637 47.2016H221.911V53.8016L226.354 47.2016H230.444V59.9016H226.169V53.3016L221.743 59.9016H217.637V47.2016ZM220.952 45.7016C220.313 45.1682 220.01 44.3849 220.01 43.3516H222.904C222.904 43.7516 222.988 44.0516 223.157 44.2349C223.325 44.4016 223.611 44.5182 224.032 44.5182C224.453 44.5182 224.739 44.4182 224.924 44.2349C225.092 44.0682 225.193 43.7516 225.193 43.3516H228.088C228.088 44.3849 227.751 45.1682 227.128 45.6849C226.489 46.2016 225.446 46.4682 224.032 46.4682C222.601 46.4682 221.575 46.2016 220.952 45.6849V45.7016Z" fill="#63666A"></path></g><defs><clipPath id="clip0_5406_2180"><rect width="345" height="80" fill="white" transform="translate(31 29)"></rect></clipPath></defs></svg> 