<?xml version="1.0" encoding="UTF-8"?> <svg xmlns="http://www.w3.org/2000/svg" width="80" height="80" viewBox="0 0 80 80" fill="none"> <g clip-path="url(#clip0_392_119768)"> <path d="M3.65625 70.9721H75.8469H76.0422V48.127H77.3699L78.5884 47.5178L74.9331 37.7705H35.9441L34.1165 45.6902H3.65625V70.9721Z" fill="#F0EE0E"></path> <path d="M26.0078 45.2V23.124C26.0078 22.504 26.5118 22 27.1318 22H45.6078" stroke="#EDEDED" stroke-width="1.41593" stroke-miterlimit="10" stroke-linecap="round"></path> <path d="M10.8047 45.2005V17.1245C10.8047 16.5045 11.3087 16.0005 11.9287 16.0005H30.8807C31.5007 16.0005 32.0047 16.5045 32.0047 17.1245V21.6005" stroke="#EDEDED" stroke-width="1.41593" stroke-miterlimit="10" stroke-linecap="round"></path> <path d="M44.8047 37.2V22.624C44.8047 22.28 45.1047 22 45.4733 22H56.1361C56.5047 22 56.8047 22.28 56.8047 22.624V37.2" stroke="#EDEDED" stroke-width="1.41593" stroke-miterlimit="10" stroke-linecap="round"></path> <path d="M61.2031 9.60059H40.1649C39.4872 9.60059 38.9045 10.0766 38.7618 10.7446L37.22 17.8966C37.1209 18.3606 37.4697 18.8006 37.9414 18.8006H57.8817C58.2067 18.8006 58.4921 18.5846 58.5872 18.2726L61.2031 9.60059Z" stroke="#EDEDED" stroke-width="1.41593" stroke-miterlimit="10" stroke-linecap="round"></path> <path d="M72.0055 9.60059L73.5884 17.8573C73.6884 18.3415 73.3365 18.8006 72.8608 18.8006H71.6055" stroke="#EDEDED" stroke-width="1.41593" stroke-miterlimit="10" stroke-linecap="round"></path> <path d="M38.8042 22.0003V18.8003" stroke="#EDEDED" stroke-width="1.41593" stroke-miterlimit="10" stroke-linecap="round"></path> <path d="M61.606 37.2006V9.60059H71.206V19.162V37.2006" stroke="#EDEDED" stroke-width="1.41593" stroke-miterlimit="10" stroke-linecap="round"></path> <path d="M23.6062 16.0005V20.1765C23.6062 20.5205 23.3029 20.8005 22.9302 20.8005H19.0823C18.7096 20.8005 18.4062 20.5205 18.4062 20.1765V16.0005" stroke="#EDEDED" stroke-width="1.41593" stroke-miterlimit="10" stroke-linecap="round"></path> <path d="M52.8047 22.4004V26.9764C52.8047 27.3204 52.5247 27.6004 52.1807 27.6004H49.4287C49.0847 27.6004 48.8047 27.3204 48.8047 26.9764V22.4004" stroke="#EDEDED" stroke-width="1.41593" stroke-miterlimit="10" stroke-linecap="round"></path> <path d="M36.8008 70.0001V37.6001H51.2008V70.0001" stroke="#484848" stroke-width="1.41593" stroke-miterlimit="10" stroke-linecap="round"></path> <path d="M75.9995 48.2007V70.2007" stroke="#484848" stroke-width="1.41593" stroke-miterlimit="10" stroke-linecap="round"></path> <path d="M3.60205 70.3996V45.7996C3.60205 45.6876 3.69005 45.5996 3.80205 45.5996H21.2021" stroke="#484848" stroke-width="1.41593" stroke-miterlimit="10" stroke-linecap="round"></path> <path d="M21.2031 69.9996V45.5996H33.6031" stroke="#484848" stroke-width="1.41593" stroke-miterlimit="10" stroke-linecap="round"></path> <path d="M15.2 54.4002H9.6C8.716 54.4002 8 53.6842 8 52.8002C8 51.9162 8.716 51.2002 9.6 51.2002H15.2C16.084 51.2002 16.8 51.9162 16.8 52.8002C16.8 53.6842 16.084 54.4002 15.2 54.4002Z" fill="white" stroke="#484848" stroke-width="1.41593" stroke-miterlimit="10" stroke-linecap="round"></path> <path d="M50.8013 37.6001L54.0675 47.1081C54.189 47.6321 54.6587 48.0001 55.2013 48.0001H77.2341C77.9953 48.0001 78.5541 47.2881 78.3638 46.5601L75.3472 38.2841C75.1974 37.8721 74.8046 37.6001 74.3592 37.6001H50.8013ZM50.8013 37.6001V70.0001" stroke="#484848" stroke-width="1.41593" stroke-miterlimit="10" stroke-linecap="round"></path> <path d="M36.6033 48.2001H34.8913C34.1393 48.2001 33.5873 47.4881 33.7753 46.7601L36.0031 37.6001" stroke="#484848" stroke-width="1.41593" stroke-miterlimit="10" stroke-linecap="round"></path> <path d="M78.7992 70.8003H67.1992" stroke="#484848" stroke-width="1.41593" stroke-miterlimit="10" stroke-linecap="round"></path> <path d="M56.4 70.8008H34" stroke="#484848" stroke-width="1.41593" stroke-miterlimit="10" stroke-linecap="round"></path> <path d="M28.0008 70.8003H0.800781" stroke="#484848" stroke-width="1.41593" stroke-miterlimit="10" stroke-linecap="round"></path> <path d="M64.4016 70.8008H61.6016" stroke="#484848" stroke-width="1.41593" stroke-miterlimit="10" stroke-linecap="round"></path> </g> <defs> <clipPath id="clip0_392_119768"> <rect width="79.6" height="62.8" fill="white" transform="translate(0 8.79883)"></rect> </clipPath> </defs> </svg> 