<?xml version="1.0" encoding="UTF-8"?> <svg xmlns="http://www.w3.org/2000/svg" width="80" height="81" viewBox="0 0 80 81" fill="none"> <path d="M7.71074 69.7959C3.31074 62.9959 3.07074 57.3639 3.23874 53.0279C3.27074 52.1919 3.54274 51.7959 4.18674 51.7959H7.04274C7.44674 51.7959 7.81074 52.0439 7.95474 52.4199L8.46274 53.7199C9.09474 55.3399 10.6467 56.4119 12.3827 56.4359L23.3107 56.5959H59.8147C60.9467 56.5959 61.9507 55.8719 62.3107 54.7959L63.0307 52.6399C63.1987 52.1359 63.6707 51.7959 64.2027 51.7959H76.8307C77.6627 51.7959 78.2587 52.6039 78.0107 53.3999C78.0107 53.3999 78.0107 61.7985 72.9107 69.7959" stroke="#484848" stroke-width="1.41593" stroke-miterlimit="10" stroke-linecap="round"></path> <path d="M7.23997 51.3982L7.20315 39.2262C7.19906 38.6582 7.66953 38.1982 8.25045 38.1982H22.1558C22.7368 38.1982 23.2031 38.6582 23.2031 39.2222V56.1982" stroke="#484848" stroke-width="1.41593" stroke-miterlimit="10" stroke-linecap="round"></path> <path d="M71.6 58.1985C72.4837 58.1985 73.2 57.4822 73.2 56.5985C73.2 55.7149 72.4837 54.9985 71.6 54.9985C70.7163 54.9985 70 55.7149 70 56.5985C70 57.4822 70.7163 58.1985 71.6 58.1985Z" stroke="#484848" stroke-width="1.41593" stroke-miterlimit="10" stroke-linecap="round"></path> <path d="M39.565 56.5983H27.6375C27.1734 56.5983 26.8013 56.2221 26.8013 55.7618V50.6348C26.8013 50.1706 27.1774 49.7983 27.6375 49.7983H39.565C40.0292 49.7983 40.4013 50.1746 40.4013 50.6348V55.7618C40.4013 56.2221 40.0292 56.5983 39.565 56.5983Z" stroke="#484848" stroke-width="1.41593" stroke-miterlimit="10" stroke-linecap="round"></path> <path d="M39.565 49.7985H27.6375C27.1734 49.7985 26.8013 49.4225 26.8013 48.9625V43.8345C26.8013 43.3705 27.1774 42.9985 27.6375 42.9985H39.565C40.0292 42.9985 40.4013 43.3745 40.4013 43.8345V48.9585C40.4013 49.4225 40.0292 49.7985 39.565 49.7985Z" stroke="#484848" stroke-width="1.41593" stroke-miterlimit="10" stroke-linecap="round"></path> <path d="M55.9635 56.5988H44.036C43.5718 56.5988 43.1997 56.2226 43.1997 55.7623V50.6353C43.1997 50.171 43.5758 49.7988 44.036 49.7988H55.9635C56.4276 49.7988 56.7997 50.175 56.7997 50.6353V55.7623C56.7997 56.2226 56.4276 56.5988 55.9635 56.5988Z" stroke="#484848" stroke-width="1.41593" stroke-miterlimit="10" stroke-linecap="round"></path> <path d="M55.9635 49.798H44.036C43.5718 49.798 43.1997 49.422 43.1997 48.962V43.834C43.1997 43.37 43.5758 42.998 44.036 42.998H55.9635C56.4276 42.998 56.7997 43.374 56.7997 43.834V48.958C56.7997 49.422 56.4276 49.798 55.9635 49.798Z" stroke="#484848" stroke-width="1.41593" stroke-miterlimit="10" stroke-linecap="round"></path> <path d="M59.6011 56.5988V49.7988" stroke="#484848" stroke-width="1.41593" stroke-miterlimit="10" stroke-linecap="round"></path> <path d="M61.2015 49.798H60.4373C59.9732 49.798 59.6011 49.422 59.6011 48.962V43.834C59.6011 43.37 59.9772 42.998 60.4373 42.998H72.3648C72.829 42.998 73.2011 43.374 73.2011 43.834V48.598" stroke="#484848" stroke-width="1.41593" stroke-miterlimit="10" stroke-linecap="round"></path> <path d="M19.1773 45.0002H17.2253C16.9893 45.0002 16.8013 44.8082 16.8013 44.5762V42.6242C16.8013 42.3882 16.9933 42.2002 17.2253 42.2002H19.1773C19.4133 42.2002 19.6013 42.3922 19.6013 42.6242V44.5762C19.6013 44.8082 19.4133 45.0002 19.1773 45.0002Z" stroke="#484848" stroke-width="1.41593" stroke-miterlimit="10" stroke-linecap="round"></path> <path d="M19.1773 51.3986H17.2253C16.9893 51.3986 16.8013 51.2066 16.8013 50.9746V49.0226C16.8013 48.7866 16.9933 48.5986 17.2253 48.5986H19.1773C19.4133 48.5986 19.6013 48.7906 19.6013 49.0226V50.9746C19.6013 51.2066 19.4133 51.3986 19.1773 51.3986Z" stroke="#484848" stroke-width="1.41593" stroke-miterlimit="10" stroke-linecap="round"></path> <path d="M13.5762 44.9992H11.6242C11.3882 44.9992 11.2002 44.8072 11.2002 44.5752V42.6232C11.2002 42.3872 11.3922 42.1992 11.6242 42.1992H13.5762C13.8122 42.1992 14.0002 42.3912 14.0002 42.6232V44.5752C14.0002 44.8072 13.8122 44.9992 13.5762 44.9992Z" stroke="#484848" stroke-width="1.41593" stroke-miterlimit="10" stroke-linecap="round"></path> <path d="M13.5762 51.3986H11.6242C11.3882 51.3986 11.2002 51.2066 11.2002 50.9746V49.0226C11.2002 48.7866 11.3922 48.5986 11.6242 48.5986H13.5762C13.8122 48.5986 14.0002 48.7906 14.0002 49.0226V50.9746C14.0002 51.2066 13.8122 51.3986 13.5762 51.3986Z" stroke="#484848" stroke-width="1.41593" stroke-miterlimit="10" stroke-linecap="round"></path> <path d="M9.71387 38.1973V33.2773C9.71387 32.6813 10.1979 32.1973 10.7939 32.1973H13.2819C13.7699 32.1973 14.1979 32.5253 14.3259 33.0013L15.7139 38.1973" stroke="#484848" stroke-width="1.41593" stroke-miterlimit="10" stroke-linecap="round"></path> <path d="M37.5997 71.1988C35.1535 72.0824 32.1979 72.5988 29.0137 72.5988C25.8296 72.5988 22.846 72.0824 20.3997 71.1988C17.9534 70.3153 14.9658 69.7988 11.7857 69.7988C8.60554 69.7988 5.64998 70.3153 3.19971 71.1988" stroke="#EDEDED" stroke-width="1.41593" stroke-miterlimit="10" stroke-linecap="round"></path> <path d="M78.3995 71.5987C75.9533 72.4823 72.9977 72.9987 69.8136 72.9987C66.6294 72.9987 63.6458 72.4823 61.1995 71.5987C58.7533 70.7152 55.7656 70.1987 52.5855 70.1987C49.4053 70.1987 46.4498 70.7152 43.9995 71.5987" stroke="#EDEDED" stroke-width="1.41593" stroke-miterlimit="10" stroke-linecap="round"></path> <path d="M70.5161 37.7964H68.5161" stroke="#EDEDED" stroke-width="1.41593" stroke-miterlimit="10" stroke-linecap="round"></path> <path d="M64.4613 37.799H32.8013C29.4893 37.799 26.8013 35.111 26.8013 31.799C26.8013 28.487 29.4893 25.799 32.8013 25.799H67.8013C70.7853 25.799 73.2013 23.383 73.2013 20.399C73.2013 17.415 70.7853 14.999 67.8013 14.999L26.8013 14.999" stroke="#EDEDED" stroke-width="1.41593" stroke-miterlimit="10" stroke-linecap="round" stroke-dasharray="3.49 3.49"></path> <path d="M17.9246 23.9759C19.3686 22.7279 22.2966 19.6119 22.4446 14.6919C22.5326 11.7719 20.3686 9.17989 17.4486 9.00789C14.3766 8.82789 11.8086 11.2679 11.8086 14.3039C11.8086 19.4519 14.8526 22.7039 16.3366 23.9799C16.7926 24.3719 17.4686 24.3679 17.9246 23.9759Z" fill="#F0EE0E" stroke="#484848" stroke-width="1.41593" stroke-miterlimit="10" stroke-linecap="round"></path> <path d="M17.1141 16.5968C18.3291 16.5968 19.3141 15.6118 19.3141 14.3968C19.3141 13.1818 18.3291 12.1968 17.1141 12.1968C15.899 12.1968 14.9141 13.1818 14.9141 14.3968C14.9141 15.6118 15.899 16.5968 17.1141 16.5968Z" stroke="#484848" stroke-width="1.41593" stroke-miterlimit="10" stroke-linecap="round"></path> <path d="M4.51123 60.9961L63.3112 61.0961" stroke="#484848" stroke-width="1.41593" stroke-miterlimit="10" stroke-linecap="round"></path> </svg> 