<?xml version="1.0" encoding="UTF-8"?> <svg xmlns="http://www.w3.org/2000/svg" width="80" height="80" viewBox="0 0 80 80" fill="none"> <path d="M52.152 66.3861H57.3289L60.3741 65.4725L60.9832 63.0363L50.9339 31.0612L49.1067 29.8431L27.79 29.5386L25.6584 31.0612L15 71.563L16.8271 73.6946H51.2384L53.0655 72.4765L52.152 66.3861Z" fill="#F0EE0E"></path> <path d="M25.5602 70.5838L25.2002 66.4038" stroke="#484848" stroke-width="1.41593" stroke-miterlimit="10" stroke-linecap="round"></path> <path d="M33.125 61.9114L27.277 31.7474C27.209 31.2034 26.425 31.1914 26.341 31.7354L23.429 63.0754C23.173 64.8314 24.533 66.4074 26.305 66.4074H33.801H58.493C60.277 66.4074 61.637 64.8194 61.369 63.0594L51.469 31.6194C51.045 30.4154 49.905 29.6074 48.625 29.6074H28.749C27.429 29.6074 26.261 30.4674 25.869 31.7274L15.665 70.8354C15.265 72.2234 16.305 73.6074 17.749 73.6074H25.601H26.001H51.281C52.609 73.6074 53.625 72.4234 53.425 71.1114L52.6009 66.4074" stroke="#484848" stroke-width="1.41593" stroke-miterlimit="10" stroke-linecap="round"></path> <path d="M35.9998 19.2025C35.7238 19.9225 35.5998 20.4025 35.6598 21.5145L36.1998 24.7185C36.3198 25.0105 36.6038 25.2025 36.9198 25.2025H41.7598C42.1318 25.2025 42.4518 24.9385 42.5238 24.5745L43.4598 21.8905C43.5518 21.4345 43.5358 20.9665 43.4158 20.5185L41.9958 15.1985L43.1958 7.99854" stroke="#484848" stroke-width="1.41593" stroke-miterlimit="10" stroke-linecap="round"></path> <path d="M35.2015 8.40381L36.3055 14.3398C36.3655 14.8798 36.1495 15.4158 35.7335 15.7638L34.2335 17.0158C34.0855 17.1398 33.9695 17.3038 33.9095 17.4918L33.2855 19.3598C33.2295 19.5238 33.2175 19.6958 33.2455 19.8638L33.6017 21.1998" stroke="#484848" stroke-width="1.41593" stroke-miterlimit="10" stroke-linecap="round"></path> <path d="M33.6021 33.6022V25.1302C33.6021 23.8582 34.47 22.7942 35.646 22.4902" stroke="#484848" stroke-width="1.41593" stroke-miterlimit="10" stroke-linecap="round"></path> <path d="M30.8013 29.6034L31.6013 26.3994" stroke="#484848" stroke-width="1.41593" stroke-miterlimit="10" stroke-linecap="round"></path> <path d="M43.1963 22.8672C43.9203 23.3592 44.4003 24.1872 44.4003 25.1312V33.6032" stroke="#484848" stroke-width="1.41593" stroke-miterlimit="10" stroke-linecap="round"></path> <path d="M42.8028 29.2037L42.4028 27.1997" stroke="#484848" stroke-width="1.41593" stroke-miterlimit="10" stroke-linecap="round"></path> <path d="M50.4012 9.60254C50.1092 10.7306 50.1052 12.7346 50.4012 14.0026C50.9012 16.1546 51.6012 17.0026 52.0012 20.8026C52.8012 28.4026 53.6012 38.3946 53.6012 38.3946" stroke="#484848" stroke-width="1.41593" stroke-miterlimit="10" stroke-linecap="round"></path> <path d="M26.8002 13.2026L23.2002 32.8026L26.8002 13.2026Z" stroke="#484848" stroke-width="1.41593" stroke-miterlimit="10" stroke-linecap="round" stroke-linejoin="round"></path> <path d="M25.9995 8.40381L26.7995 13.2039" stroke="#484848" stroke-width="1.41593" stroke-miterlimit="10" stroke-linecap="round"></path> <path d="M64.001 61.2031H77.601" stroke="#EDEDED" stroke-width="1.41593" stroke-miterlimit="10" stroke-linecap="round"></path> <path d="M76.0021 68.0024H65.6021" stroke="#EDEDED" stroke-width="1.41593" stroke-miterlimit="10" stroke-linecap="round"></path> <path d="M77.6028 32.4023H58.4028" stroke="#EDEDED" stroke-width="1.41593" stroke-miterlimit="10" stroke-linecap="round"></path> <path d="M54.7974 25.6035H75.9974" stroke="#EDEDED" stroke-width="1.41593" stroke-miterlimit="10" stroke-linecap="round"></path> <path d="M67.9997 25.5988H58.3513C57.7155 25.5988 57.1997 25.0828 57.1997 24.4468V11.9508C57.1997 11.3148 57.7155 10.7988 58.3513 10.7988H67.9997V25.5988Z" stroke="#EDEDED" stroke-width="1.41593" stroke-miterlimit="10" stroke-linecap="round"></path> <path d="M68.001 10.7988H71.3459C71.9284 10.7988 72.401 11.3146 72.401 11.9505V24.4471C72.401 25.0829 71.9284 25.5988 71.3459 25.5988H68.001" stroke="#EDEDED" stroke-width="1.41593" stroke-miterlimit="10" stroke-linecap="round"></path> <path d="M60.8013 51.5224C60.8013 49.9944 61.1573 48.4904 61.8413 47.1264C62.3453 46.1184 62.6733 45.0304 62.8093 43.9104L63.3173 39.7224C63.3653 39.3104 63.7173 39.0024 64.1293 39.0024H66.2813C66.6933 39.0024 67.0453 39.3104 67.0933 39.7224L67.6013 43.9104C67.7373 45.0304 68.0653 46.1184 68.5693 47.1264C69.2533 48.4904 69.6093 49.9984 69.6093 51.5224V59.2024" stroke="#EDEDED" stroke-width="1.41593" stroke-miterlimit="10" stroke-linecap="round"></path> <path d="M76.4008 57.6024V51.5224C76.4008 49.9944 76.0448 48.4904 75.3608 47.1264C74.8568 46.1184 74.5288 45.0304 74.3928 43.9104L73.8848 39.7224C73.8368 39.3104 73.4848 39.0024 73.0728 39.0024H70.9208C70.5088 39.0024 70.1568 39.3104 70.1088 39.7224L69.6008 43.9104C69.4648 45.0304 69.1368 46.1184 68.6328 47.1264" stroke="#EDEDED" stroke-width="1.41593" stroke-miterlimit="10" stroke-linecap="round"></path> <path d="M3.19971 61.2031H15.9997" stroke="#EDEDED" stroke-width="1.41593" stroke-miterlimit="10" stroke-linecap="round"></path> <path d="M13.9997 68.0024H9.19971" stroke="#EDEDED" stroke-width="1.41593" stroke-miterlimit="10" stroke-linecap="round"></path> <path d="M21.2005 32.4023H2.00049" stroke="#EDEDED" stroke-width="1.41593" stroke-miterlimit="10" stroke-linecap="round"></path> <path d="M1.59814 25.6035H19.5981" stroke="#EDEDED" stroke-width="1.41593" stroke-miterlimit="10" stroke-linecap="round"></path> <path d="M6.39893 23.2032V11.9552C6.39893 11.3192 6.91493 10.8032 7.55093 10.8032H16.1749C16.7429 10.8032 17.1989 11.2632 17.1989 11.8272V25.6032" stroke="#EDEDED" stroke-width="1.41593" stroke-miterlimit="10" stroke-linecap="round"></path> <path d="M7.2002 57.6024V51.5224C7.2002 49.9944 7.5562 48.4904 8.2402 47.1264C8.7442 46.1184 9.0722 45.0304 9.2082 43.9104L9.7162 39.7224C9.7642 39.3104 10.1162 39.0024 10.5282 39.0024H12.6802C13.0922 39.0024 13.4442 39.3104 13.4922 39.7224L14.0002 43.9104C14.1362 45.0304 14.4642 46.1184 14.9682 47.1264C15.6522 48.4904 16.0082 49.9984 16.0082 51.5224V59.2024" stroke="#EDEDED" stroke-width="1.41593" stroke-miterlimit="10" stroke-linecap="round"></path> </svg> 