<?xml version="1.0" encoding="UTF-8"?> <svg xmlns="http://www.w3.org/2000/svg" width="80" height="80" viewBox="0 0 80 80" fill="none"> <path d="M7.78554 58.2299V71.3272V71.6812H67.2546L67.0776 47.0795L66.1926 44.9556H26.9006L25.1307 46.0175V49.7343H9.02447L6.01562 57.168L6.36961 58.2299H7.78554Z" fill="#F0E93B"></path> <path d="M25.1992 70.8002V46.8649C25.1992 45.9459 25.9391 45.2002 26.8511 45.2002H65.5474C66.4593 45.2002 67.1992 45.9459 67.1992 46.8649V70.8002" stroke="#484848" stroke-width="1.41593" stroke-miterlimit="10"></path> <path d="M7.59766 71.4002V59.2002" stroke="#484848" stroke-width="1.41593" stroke-miterlimit="10"></path> <path d="M25.2 49.6001H10.1935C9.2693 49.6001 8.47716 50.2383 8.30513 51.1164L6.01674 57.2667C5.90473 57.8547 6.3688 58.4001 6.98891 58.4001H25.2" stroke="#484848" stroke-width="1.41593" stroke-miterlimit="10"></path> <path d="M13.5086 49.8682L11.6206 56.2282" stroke="#484848" stroke-width="1.41593" stroke-miterlimit="10" stroke-linecap="round"></path> <path d="M18.3099 49.8682L16.4219 56.2282" stroke="#484848" stroke-width="1.41593" stroke-miterlimit="10" stroke-linecap="round"></path> <path d="M23.1077 49.8682L21.2197 56.2282" stroke="#484848" stroke-width="1.41593" stroke-miterlimit="10" stroke-linecap="round"></path> <path d="M17.6874 65.9999H15.5142C15.1215 65.9999 14.8008 65.6822 14.8008 65.2865V63.1133C14.8008 62.7206 15.1185 62.3999 15.5142 62.3999H17.6874C18.08 62.3999 18.4008 62.7176 18.4008 63.1133V65.2865C18.3978 65.6822 18.08 65.9999 17.6874 65.9999Z" stroke="#484848" stroke-width="1.41593" stroke-miterlimit="10"></path> <path d="M62.9709 66.0001H59.426C58.8562 66.0001 58.3984 65.6041 58.3984 65.1201V52.4801C58.3984 51.9921 58.8608 51.6001 59.426 51.6001H62.9709C63.5407 51.6001 63.9984 51.9961 63.9984 52.4801V65.1161C63.9984 65.6041 63.5361 66.0001 62.9709 66.0001Z" stroke="#484848" stroke-width="1.41593" stroke-miterlimit="10"></path> <path d="M61.1997 51.6001V66.0001" stroke="#484848" stroke-width="1.41593" stroke-miterlimit="10"></path> <path d="M58.8003 61.2002H63.6003" stroke="#484848" stroke-width="1.41593" stroke-miterlimit="10"></path> <path d="M58.8003 56.3999H63.6003" stroke="#484848" stroke-width="1.41593" stroke-miterlimit="10"></path> <path d="M54.5725 66.0001H51.0275C50.4577 66.0001 50 65.6041 50 65.1201V52.4801C50 51.9921 50.4624 51.6001 51.0275 51.6001H54.5725C55.1423 51.6001 55.6 51.9961 55.6 52.4801V65.1161C55.6 65.6041 55.1376 66.0001 54.5725 66.0001Z" stroke="#484848" stroke-width="1.41593" stroke-miterlimit="10"></path> <path d="M52.7998 51.6001V66.0001" stroke="#484848" stroke-width="1.41593" stroke-miterlimit="10"></path> <path d="M50.3984 61.1997H55.1984" stroke="#484848" stroke-width="1.41593" stroke-miterlimit="10"></path> <path d="M50.3984 56.3999H55.1984" stroke="#484848" stroke-width="1.41593" stroke-miterlimit="10"></path> <path d="M46.7992 70.7996V52.5091C46.7992 52.0079 46.3952 51.5996 45.8992 51.5996H30.0992C29.6032 51.5996 29.1992 52.0079 29.1992 52.5091V70.7996" stroke="#484848" stroke-width="1.41593" stroke-miterlimit="10"></path> <path d="M46.7992 56H29.1992" stroke="#484848" stroke-width="1.41593" stroke-miterlimit="10"></path> <path d="M38.001 56V71.2" stroke="#484848" stroke-width="1.41593" stroke-miterlimit="10"></path> <path d="M54.8008 44.8001L56.7128 28.4321C56.7648 27.9601 57.1648 27.6001 57.6408 27.6001H67.9608C68.4368 27.6001 68.8368 27.9601 68.8888 28.4321L73.6008 71.2001" stroke="#484848" stroke-width="1.41593" stroke-miterlimit="10"></path> <path d="M56.0469 32.7842H69.1949" stroke="#484848" stroke-width="1.41593" stroke-miterlimit="10"></path> <path d="M33.2002 45.2001L35.0649 28.4514C35.1156 27.9685 35.5057 27.6001 35.9699 27.6001H46.0344C46.4986 27.6001 46.8887 27.9685 46.9394 28.4514L48.8002 45.2001" stroke="#484848" stroke-width="1.41593" stroke-miterlimit="10"></path> <path d="M34.3984 32.7998H47.5464" stroke="#484848" stroke-width="1.41593" stroke-miterlimit="10"></path> <path d="M77.1994 71.5996H56.3994" stroke="#484848" stroke-width="1.41593" stroke-miterlimit="10" stroke-linecap="round"></path> <path d="M48.8023 71.5996H22.4023" stroke="#484848" stroke-width="1.41593" stroke-miterlimit="10" stroke-linecap="round"></path> <path d="M11.2002 71.6001H3.2002" stroke="#484848" stroke-width="1.41593" stroke-miterlimit="10" stroke-linecap="round"></path> <path d="M18.7994 71.5996H16.3994" stroke="#484848" stroke-width="1.41593" stroke-miterlimit="10" stroke-linecap="round"></path> <path d="M40.6007 17.4C40.5007 17.4 40.5887 15.256 38.0887 14.496C37.8367 14.42 37.6887 14.172 37.7367 13.912C37.8087 13.52 37.8207 13.112 37.7687 12.688C37.5487 10.928 36.1487 9.496 34.3927 9.24C33.7887 9.152 33.2047 9.2 32.6687 9.36C32.4327 9.428 32.1727 9.36 32.0167 9.172C30.9167 7.848 29.2607 7 27.4007 7C24.8127 7 22.6127 8.636 21.7687 10.932C21.7167 11.072 21.5687 11.148 21.4247 11.108C20.6527 10.892 19.8367 10.78 18.9887 10.804C14.7287 10.912 11.1927 14.38 11.0047 18.636C10.8047 23.328 14.5487 27.2 19.2007 27.2C21.5567 27.2 23.6847 26.204 25.1807 24.612C25.3687 24.412 25.6767 24.42 25.8727 24.608C26.7247 25.436 27.9167 25.9 29.1927 25.78C30.4407 25.664 31.5047 25.012 32.1887 24.072C32.3047 23.916 32.5207 23.88 32.6927 23.972C33.4447 24.368 34.2967 24.596 35.2007 24.596C36.1607 24.596 37.0607 24.344 37.8407 23.908C38.0647 23.784 38.3407 23.804 38.5487 23.952C39.2367 24.432 40.0967 24.68 41.0207 24.572C42.6647 24.384 44.0007 23.044 44.1807 21.4C44.4127 19.236 42.7207 17.4 40.6007 17.4Z" stroke="#EDEDED" stroke-width="1.41593" stroke-miterlimit="10" stroke-linecap="round"></path> <path d="M45.4721 24.6082C46.3241 25.4362 47.5161 25.9002 48.7921 25.7802C50.0401 25.6642 51.1041 25.0122 51.7881 24.0722C51.9041 23.9162 52.1201 23.8802 52.2921 23.9722C53.0441 24.3682 53.8961 24.5962 54.8001 24.5962C55.7601 24.5962 56.6601 24.3442 57.4401 23.9082C57.6641 23.7842 57.9401 23.8042 58.1481 23.9522C58.8361 24.4322 59.6961 24.6802 60.6201 24.5722C62.2641 24.3842 63.6001 23.0442 63.7801 21.4002C64.0161 19.2322 62.3241 17.3962 60.2041 17.3962C60.1041 17.3962 60.1921 15.2522 57.6921 14.4922C57.4401 14.4162 57.2921 14.1682 57.3401 13.9082C57.4121 13.5162 57.4241 13.1082 57.3721 12.6842C57.1521 10.9242 55.7521 9.49219 53.9961 9.23619C53.3921 9.14819 52.8081 9.19619 52.2721 9.35619C52.0361 9.42419 51.7761 9.35619 51.6201 9.16819C50.5201 7.84019 48.8641 6.99219 47.0041 6.99219C44.4161 6.99219 42.2161 8.62819 41.3721 10.9242" stroke="#EDEDED" stroke-width="1.41593" stroke-miterlimit="10" stroke-linecap="round"></path> </svg> 