<?xml version="1.0" encoding="UTF-8"?> <svg xmlns="http://www.w3.org/2000/svg" width="24" height="24" viewBox="0 0 24 24" fill="none"><path d="M11.589 3C11.589 2.80109 11.51 2.61032 11.3693 2.46967C11.2287 2.32902 11.0379 2.25 10.839 2.25C10.6401 2.25 10.4493 2.32902 10.3087 2.46967C10.168 2.61032 10.089 2.80109 10.089 3V4.978C10.089 5.17691 10.168 5.36768 10.3087 5.50833C10.4493 5.64898 10.6401 5.728 10.839 5.728C11.0379 5.728 11.2287 5.64898 11.3693 5.50833C11.51 5.36768 11.589 5.17691 11.589 4.978V3ZM5.983 4.945C5.84229 4.80747 5.65318 4.73073 5.45642 4.73135C5.25966 4.73196 5.07103 4.80986 4.93118 4.94827C4.79133 5.08667 4.71147 5.27449 4.70882 5.47123C4.70617 5.66797 4.78093 5.85788 4.917 6L6.387 7.483C6.45457 7.55941 6.53702 7.62124 6.62931 7.6647C6.72159 7.70816 6.82177 7.73234 6.92372 7.73575C7.02567 7.73917 7.12724 7.72176 7.22223 7.68457C7.31722 7.64739 7.40362 7.59122 7.47616 7.5195C7.54869 7.44778 7.60584 7.36202 7.6441 7.26746C7.68235 7.1729 7.70092 7.07153 7.69866 6.96955C7.6964 6.86757 7.67335 6.76712 7.63094 6.67435C7.58853 6.58158 7.52764 6.49843 7.452 6.43L5.983 4.945ZM16.761 6C16.8929 5.85721 16.9642 5.6688 16.9599 5.47448C16.9555 5.28015 16.876 5.09509 16.7379 4.9583C16.5998 4.82151 16.414 4.74367 16.2196 4.74119C16.0253 4.73871 15.8375 4.81178 15.696 4.945L14.226 6.429C14.1527 6.49802 14.094 6.5811 14.0535 6.67328C14.0129 6.76546 13.9914 6.86486 13.9901 6.96555C13.9888 7.06624 14.0078 7.16616 14.046 7.25935C14.0841 7.35254 14.1407 7.43709 14.2122 7.50795C14.2838 7.57882 14.3688 7.63456 14.4624 7.67184C14.5559 7.70912 14.656 7.72718 14.7567 7.72494C14.8574 7.72271 14.9566 7.70022 15.0484 7.65883C15.1402 7.61743 15.2227 7.55797 15.291 7.484L16.761 6ZM11.8 10.096C10.775 9.692 9.806 10.713 10.19 11.706L13.771 20.956C14.181 22.014 15.672 22.015 16.082 20.956L17.456 17.413L20.964 16.028C22.012 15.614 22.012 14.125 20.964 13.711L11.8 10.096ZM4.96 10.163H3C2.80109 10.163 2.61032 10.242 2.46967 10.3827C2.32902 10.5233 2.25 10.7141 2.25 10.913C2.25 11.1119 2.32902 11.3027 2.46967 11.4433C2.61032 11.584 2.80109 11.663 3 11.663H4.96C5.15891 11.663 5.34968 11.584 5.49033 11.4433C5.63098 11.3027 5.71 11.1119 5.71 10.913C5.71 10.7141 5.63098 10.5233 5.49033 10.3827C5.34968 10.242 5.15891 10.163 4.96 10.163ZM7.452 15.397C7.58814 15.255 7.66303 15.0652 7.66054 14.8685C7.65805 14.6718 7.57837 14.4839 7.43868 14.3454C7.29898 14.2069 7.11046 14.1288 6.91374 14.128C6.71702 14.1272 6.52785 14.2037 6.387 14.341L4.917 15.825C4.84766 15.895 4.79279 15.978 4.75552 16.0692C4.71824 16.1604 4.6993 16.258 4.69976 16.3565C4.70022 16.4551 4.72009 16.5525 4.75822 16.6434C4.79635 16.7342 4.85201 16.8167 4.922 16.886C4.99199 16.9553 5.07496 17.0102 5.16616 17.0475C5.25736 17.0848 5.35501 17.1037 5.45354 17.1032C5.55206 17.1028 5.64953 17.0829 5.74037 17.0448C5.83122 17.0066 5.91366 16.951 5.983 16.881L7.452 15.397Z" fill="black"></path></svg> 