<?xml version="1.0" encoding="UTF-8"?> <svg xmlns="http://www.w3.org/2000/svg" width="44" height="50" viewBox="0 0 44 50" fill="none"> <path d="M14.9193 49.9998H3.46096C3.32386 50.0006 3.18797 49.9744 3.06105 49.9225C2.93414 49.8707 2.81871 49.7943 2.72137 49.6978L0.638038 47.6144C0.541495 47.5171 0.465115 47.4017 0.413277 47.2747C0.361439 47.1478 0.335162 47.0119 0.335955 46.8748V29.1665H2.41929V46.4478L3.88804 47.9165H14.9193V49.9998Z" fill="#DADADA"></path> <path d="M33.6693 18.75H31.586V3.5521L30.1172 2.08335H3.88804L2.41929 3.5521V36.25H0.335955C0.335955 35.0296 0.335955 4.34541 0.335955 3.12502C0.335162 2.98793 0.361439 2.85203 0.413277 2.72512C0.465115 2.5982 0.541495 2.48277 0.638038 2.38543L2.72137 0.302101C2.81871 0.205558 2.93414 0.129177 3.06105 0.0773391C3.18797 0.0255009 3.32386 -0.000775186 3.46096 1.74107e-05H30.5443C30.6814 -0.000775186 30.8173 0.0255009 30.9442 0.0773391C31.0711 0.129177 31.1865 0.205558 31.2839 0.302101L33.3672 2.38543C33.4637 2.48277 33.5401 2.5982 33.592 2.72512C33.6438 2.85203 33.6701 2.98793 33.6693 3.12502V18.75Z" fill="#DADADA"></path> <path d="M26.653 22.6665H7V24.7498H26.653V22.6665Z" fill="#DADADA"></path> <path d="M16.653 27.6665H7V29.7498H16.653V27.6665Z" fill="#DADADA"></path> <path d="M25.5417 19.5833H8.04167C7.7654 19.5833 7.50045 19.4736 7.3051 19.2782C7.10975 19.0829 7 18.8179 7 18.5417V12.2917C7 12.0154 7.10975 11.7504 7.3051 11.5551C7.50045 11.3597 7.7654 11.25 8.04167 11.25H25.5417C25.8179 11.25 26.0829 11.3597 26.2782 11.5551C26.4736 11.7504 26.5833 12.0154 26.5833 12.2917V18.5417C26.5833 18.8179 26.4736 19.0829 26.2782 19.2782C26.0829 19.4736 25.8179 19.5833 25.5417 19.5833ZM9.08333 17.5H24.5V13.3333H9.08333V17.5Z" fill="#DADADA"></path> <path d="M23.2487 6.24984H10.7487C10.5563 6.24925 10.3679 6.19542 10.2043 6.09429C10.0406 5.99317 9.90818 5.84871 9.82162 5.67692L7.73828 1.51025L9.59245 0.572754L11.3945 4.1665H22.6029L24.4049 0.572754L26.2695 1.49984L24.1862 5.6665C24.1003 5.84182 23.9669 5.98947 23.8011 6.09261C23.6353 6.19575 23.4439 6.25023 23.2487 6.24984Z" fill="#DADADA"></path> <path d="M24.2943 41.6665H22.2109V43.7498H24.2943V41.6665Z" fill="#DADADA"></path> <path d="M36.7917 41.6665H26.375V43.7498H36.7917V41.6665Z" fill="#DADADA"></path> <path d="M35.7526 39.5833H23.2526C22.9763 39.5833 22.7114 39.4736 22.516 39.2782C22.3207 39.0829 22.2109 38.8179 22.2109 38.5417V32.2917C22.2109 32.0154 22.3207 31.7504 22.516 31.5551C22.7114 31.3597 22.9763 31.25 23.2526 31.25H35.7526C36.0289 31.25 36.2938 31.3597 36.4892 31.5551C36.6845 31.7504 36.7943 32.0154 36.7943 32.2917V38.5417C36.7943 38.8179 36.6845 39.0829 36.4892 39.2782C36.2938 39.4736 36.0289 39.5833 35.7526 39.5833ZM24.2943 37.5H34.7109V33.3333H24.2943V37.5Z" fill="#DADADA"></path> <path d="M44 38C44 44.6276 38.6276 50 32 50C25.3724 50 20 44.6276 20 38C20 31.3724 25.3724 26 32 26C38.6276 26 44 31.3724 44 38Z" fill="#F0EE0E"></path> <mask id="mask0_1371_125389" style="mask-type:alpha" maskUnits="userSpaceOnUse" x="20" y="26" width="24" height="24"> <path d="M44 38C44 44.6276 38.6276 50 32 50C25.3724 50 20 44.6276 20 38C20 31.3724 25.3724 26 32 26C38.6276 26 44 31.3724 44 38Z" fill="#F0EE0E"></path> </mask> <g mask="url(#mask0_1371_125389)"> <path d="M35.3784 35.9281C35.3784 37.7958 33.8644 39.3098 31.9967 39.3098C30.129 39.3098 28.615 37.7958 28.615 35.9281C28.615 34.0604 30.129 32.5464 31.9967 32.5464C33.8644 32.5464 35.3784 34.0604 35.3784 35.9281Z" stroke="#484848" stroke-width="1.8" stroke-miterlimit="10"></path> <path d="M40.7253 49.4548V48.2548C40.7253 45.6367 39.3073 43.4547 37.0165 42.0366C35.8165 43.2366 33.962 44.0003 31.9983 44.0003C30.0345 44.0003 28.1802 43.2366 26.9801 42.0366C24.7984 43.4547 23.2712 45.6367 23.2712 48.2548V49.4548" stroke="#484848" stroke-width="1.8" stroke-miterlimit="10"></path> </g> </svg> 