<?xml version="1.0" encoding="UTF-8"?> <svg xmlns="http://www.w3.org/2000/svg" width="41" height="41" viewBox="0 0 41 41" fill="none"><g clip-path="url(#clip0_5587_57729)"><path fill-rule="evenodd" clip-rule="evenodd" d="M11.7171 10.86C11.7171 10.3077 12.1648 9.85999 12.7171 9.85999H16.0505C16.389 9.85999 16.7045 10.0312 16.8889 10.3151C17.0734 10.5989 17.1017 10.9568 16.9643 11.2661L15.367 14.86H25.0505V13.5265H24.3838C23.8315 13.5265 23.3838 13.0788 23.3838 12.5265C23.3838 11.9742 23.8315 11.5265 24.3838 11.5265H27.7171C28.2694 11.5265 28.7171 11.9742 28.7171 12.5265C28.7171 13.0788 28.2694 13.5265 27.7171 13.5265H27.0505V15.5572L29.3318 18.9792C30.3526 18.4761 31.5015 18.1935 32.7165 18.1935C36.9506 18.1935 40.3831 21.626 40.3831 25.8602C40.3831 30.0943 36.9506 33.5268 32.7165 33.5268C29.8775 33.5268 27.4002 31.9832 26.0761 29.6942C25.5817 28.8396 25.2476 27.8807 25.1145 26.86H21.0699C20.9129 26.8633 20.7528 26.8295 20.6026 26.7544C20.4411 26.6737 20.311 26.5551 20.2177 26.4149L14.0357 17.8553L13.3848 19.3199C15.5829 20.6678 17.0491 23.0928 17.0491 25.8602C17.0491 30.0943 13.6167 33.5268 9.38248 33.5268C5.1483 33.5268 1.71582 30.0943 1.71582 25.8602C1.71582 21.626 5.1483 18.1935 9.38248 18.1935C10.1381 18.1935 10.8681 18.3028 11.5577 18.5065L14.5117 11.86H12.7171C12.1648 11.86 11.7171 11.4123 11.7171 10.86ZM27.1376 26.86C27.2545 27.5177 27.4848 28.1352 27.8073 28.6928C28.7886 30.3892 30.6203 31.5268 32.7165 31.5268C35.8461 31.5268 38.3831 28.9898 38.3831 25.8602C38.3831 22.7305 35.8461 20.1935 32.7165 20.1935C31.9123 20.1935 31.1473 20.361 30.4543 20.663L33.5492 25.3053C33.7537 25.6122 33.7728 26.0067 33.5988 26.3319C33.4248 26.657 33.0859 26.86 32.7171 26.86H27.1376ZM28.7909 21.7735L30.8486 24.86H27.1378C27.352 23.657 27.9458 22.5854 28.7909 21.7735ZM27.6685 20.0898C26.2999 21.288 25.3613 22.9654 25.1144 24.86H22.6678L26.1739 17.8479L27.6685 20.0898ZM8.46997 25.4539L10.7357 20.3561C10.302 20.2498 9.84884 20.1935 9.38248 20.1935C6.25287 20.1935 3.71582 22.7305 3.71582 25.8602C3.71582 28.9898 6.25287 31.5268 9.38248 31.5268C12.5121 31.5268 15.0491 28.9898 15.0491 25.8602C15.0491 23.9094 14.0634 22.1888 12.5628 21.1694L10.2976 26.2661C10.0733 26.7708 9.48233 26.9981 8.97765 26.7738C8.47296 26.5495 8.24567 25.9585 8.46997 25.4539ZM15.784 16.86H24.4318L20.894 23.9355L15.784 16.86Z" fill="#63666A"></path></g><defs><clipPath id="clip0_5587_57729"><rect width="40" height="40" fill="white" transform="translate(0.549805 0.859985)"></rect></clipPath></defs></svg> 