<?xml version="1.0" encoding="UTF-8"?> <svg xmlns="http://www.w3.org/2000/svg" width="41" height="41" viewBox="0 0 41 41" fill="none"><g clip-path="url(#clip0_5587_57694)"><path fill-rule="evenodd" clip-rule="evenodd" d="M39.9746 13.9193C40.453 13.118 40.6951 12.2813 40.6951 11.4318C40.6951 8.84779 38.5031 6.50379 34.5191 4.81579C30.8071 3.24779 25.9031 2.38379 20.6951 2.38379C15.4871 2.38379 10.5831 3.24779 6.87107 4.80779C2.88707 6.49579 0.695068 8.84779 0.695068 11.4238C0.695068 12.2846 0.939504 13.1197 1.42261 13.9118V27.4878C1.42261 27.6181 1.42883 27.7505 1.44127 27.886C0.945581 28.7003 0.695068 29.5489 0.695068 30.4158C0.695068 32.9918 2.88707 35.3438 6.87107 37.0238C10.5831 38.5918 15.4871 39.4558 20.6951 39.4558C25.9031 39.4558 30.8071 38.5918 34.5191 37.0318C38.5031 35.3438 40.6951 32.9918 40.6951 30.4158C40.6951 29.5336 40.4398 28.6763 39.9348 27.8604C39.9651 27.1853 39.9746 26.0522 39.9746 26.0398V13.9193ZM20.6951 20.4718H20.5271C20.1431 20.4718 19.7591 20.4638 19.3831 20.4478C18.1911 20.4158 16.9991 20.3358 15.8311 20.2078C15.3431 20.1598 14.9111 20.1038 14.5191 20.0398C13.3911 19.8798 12.3191 19.6798 11.3271 19.4478C10.9751 19.3678 10.5671 19.2718 10.1751 19.1598C8.80707 18.7918 7.54307 18.3438 6.43907 17.8398C5.27194 17.3156 4.27462 16.7369 3.45461 16.1091V27.4958C3.45461 27.6398 3.47061 27.7838 3.49461 27.9518C4.04661 31.1118 10.7746 34.5198 20.6946 34.5198C30.5906 34.5198 37.3186 31.1278 37.8946 27.9758C37.9186 27.7198 37.9426 26.3598 37.9426 26.0398V16.1217C37.061 16.7968 35.9768 17.4209 34.7031 17.9678C34.2471 18.1678 33.7431 18.3678 33.1671 18.5678C32.1671 18.9198 31.1351 19.2158 30.0951 19.4558C29.7828 19.537 29.4656 19.6036 29.1093 19.6784C29.0092 19.6994 28.9061 19.721 28.7991 19.7438C27.5351 19.9918 26.2071 20.1758 24.8471 20.3038H24.8311C24.7433 20.3118 24.6549 20.3198 24.5591 20.3278C24.3591 20.3438 24.1591 20.3598 23.9431 20.3758C22.9111 20.4318 21.8471 20.4718 20.6951 20.4718ZM38.6203 30.912C37.5263 32.2234 35.7942 33.3909 33.5186 34.3198C30.0066 35.7518 25.4546 36.5358 20.6946 36.5358C15.9346 36.5358 11.3826 35.7438 7.87861 34.3118C5.59542 33.3798 3.85938 32.2076 2.76605 30.8909C3.06796 32.4254 4.81348 33.9642 7.66307 35.1678C11.1271 36.6318 15.7511 37.4398 20.6951 37.4398C25.6391 37.4398 30.2631 36.6318 33.7271 35.1678C36.5648 33.9692 38.3076 32.4447 38.6203 30.912ZM3.19348 12.9526C2.87721 12.4473 2.71907 11.9361 2.71907 11.4318C2.71907 9.73579 4.51907 8.00779 7.66307 6.67979C11.1271 5.21579 15.7511 4.40779 20.6951 4.40779C25.6391 4.40779 30.2631 5.21579 33.7271 6.67979C36.8711 8.00779 38.6711 9.74379 38.6711 11.4318C38.6711 11.9758 38.4871 12.5278 38.1111 13.0798C37.8151 13.5278 37.3991 13.9678 36.8551 14.3998C36.0871 15.0158 35.0951 15.5918 33.8951 16.1118C33.4791 16.2958 33.0231 16.4718 32.5031 16.6558C31.5671 16.9838 30.6071 17.2558 29.6391 17.4798C29.6311 17.4878 29.6231 17.4878 29.6151 17.4878C29.2471 17.5758 28.8631 17.6638 28.4071 17.7518C27.2151 17.9838 25.9591 18.1598 24.6711 18.2798C24.6231 18.2838 24.5772 18.2878 24.5312 18.2918C24.4852 18.2958 24.4391 18.2998 24.3911 18.3038L24.3468 18.3075C24.1707 18.3222 24.0009 18.3364 23.8311 18.3438H23.7991C22.8151 18.4158 21.7991 18.4558 20.6951 18.4558H20.5271C20.1671 18.4558 19.8071 18.4478 19.4551 18.4318H19.4391C18.3031 18.3998 17.1591 18.3198 16.0391 18.1998C15.5831 18.1518 15.1831 18.1038 14.8231 18.0478H14.8071C13.7351 17.8958 12.7191 17.7118 11.7831 17.4878C11.4231 17.4078 11.0631 17.3198 10.7191 17.2238C10.7145 17.2192 10.7125 17.2172 10.7102 17.2164C10.7102 17.2164 10.7065 17.2158 10.7031 17.2158C9.43907 16.8718 8.27907 16.4638 7.26307 16.0078C5.43051 15.1839 4.08708 14.2118 3.35402 13.1914C3.31187 13.1042 3.25763 13.0239 3.19348 12.9526Z" fill="#63666A"></path><path d="M26.5349 26.7599C26.5349 27.1619 26.209 27.4879 25.8069 27.4879C25.4048 27.4879 25.0789 27.1619 25.0789 26.7599C25.0789 26.3578 25.4048 26.0319 25.8069 26.0319C26.209 26.0319 26.5349 26.3578 26.5349 26.7599Z" fill="#63666A"></path><path fill-rule="evenodd" clip-rule="evenodd" d="M9.99082 30.5759C10.1428 30.6559 10.3108 30.6959 10.4708 30.6959C10.6708 30.6959 10.8629 30.6399 11.0309 30.5119L14.7577 28.0296C16.8311 29.7548 19.429 30.6959 22.1594 30.6959C25.1594 30.6959 27.9994 29.5599 30.1594 27.4959C30.3594 27.3119 30.4714 27.0479 30.4714 26.7679C30.4714 26.4959 30.3594 26.2319 30.1594 26.0399C27.9994 23.9759 25.1594 22.8399 22.1594 22.8399C19.4384 22.8399 16.8489 23.7745 14.7791 25.4884L11.0309 22.9919C10.7189 22.7839 10.3188 22.7679 9.99082 22.9439C9.66282 23.1199 9.45483 23.4639 9.45483 23.8399V29.6799C9.45483 30.0559 9.66282 30.3999 9.99082 30.5759ZM11.4869 27.7919V25.7359L13.0309 26.7599L11.4869 27.7919ZM22.1594 28.6719C20.0634 28.6719 18.0634 27.9999 16.4154 26.7599C18.0554 25.5279 20.0634 24.8559 22.1594 24.8479C22.3881 24.8479 22.6155 24.8559 22.8416 24.8717C22.5746 25.4595 22.435 26.1031 22.4393 26.7679C22.4393 27.427 22.5808 28.0652 22.8476 28.6476C22.6196 28.6637 22.3901 28.6719 22.1594 28.6719ZM23.9593 26.7599C23.9535 26.1692 24.1197 25.6036 24.4303 25.1178C25.6852 25.422 26.8643 25.978 27.9034 26.7599C26.8689 27.5383 25.6957 28.0929 24.447 28.3979C24.131 27.9154 23.9593 27.3502 23.9593 26.7599Z" fill="#63666A"></path><path fill-rule="evenodd" clip-rule="evenodd" d="M19.8232 6.3418C20.3324 5.49313 21.2804 4.91992 22.3674 4.91992C23.9934 4.91992 25.3086 6.19503 25.3086 7.77154C25.3086 7.79889 25.3082 7.8261 25.3074 7.85316C25.3953 7.87611 25.4821 7.90304 25.5673 7.93386C26.0483 6.98421 27.0573 6.33413 28.2094 6.33413C29.651 6.33413 30.8585 7.3462 31.1048 8.68181C31.6475 8.09614 32.4303 7.74061 33.2791 7.74061C34.8972 7.74061 36.2204 9.01573 36.2204 10.5922C36.2204 11.1634 36.0477 11.696 35.7506 12.1431C36.8851 12.5384 37.6951 13.59 37.6951 14.8272C37.6951 14.8735 37.6951 14.9585 37.6712 15.0667C37.5915 15.4609 37.1929 15.7236 36.7864 15.6463C36.3879 15.5691 36.1248 15.2058 36.1806 14.8272C36.1806 14.0621 35.543 13.4439 34.7538 13.4439C33.9647 13.4439 33.327 14.0621 33.327 14.8272C33.327 15.3449 33.622 15.8163 34.1002 16.0559C34.4748 16.2414 34.6183 16.6819 34.427 17.0451C34.2835 17.3078 34.0205 17.447 33.7495 17.447C33.6299 17.447 33.5104 17.4238 33.4067 17.3619C33.3136 17.3149 33.2237 17.2637 33.1374 17.2085C33.083 17.3543 33.0161 17.4962 32.9369 17.6324C32.7296 17.9879 32.2753 18.1116 31.9086 17.9184C31.5419 17.7174 31.4144 17.277 31.6137 16.9215C31.7332 16.7128 31.797 16.481 31.797 16.2491C31.797 15.4841 31.1593 14.8658 30.3702 14.8658C30.155 14.8658 29.9478 14.9122 29.7564 15.0049C29.4919 15.1297 29.2723 15.3229 29.132 15.5621C29.1115 15.6223 29.0831 15.6799 29.0473 15.7333C28.978 15.8997 28.9434 16.0716 28.9434 16.2491C28.9434 16.7592 29.2224 17.2229 29.6767 17.4624C30.0434 17.6556 30.1789 18.1038 29.9796 18.4593C29.8521 18.6912 29.5891 18.8303 29.326 18.8303C29.2065 18.8303 29.0789 18.7994 28.9594 18.7375C28.8955 18.7035 28.8334 18.6673 28.773 18.6292C28.6187 19.0028 28.1836 19.1848 27.7956 19.0389C27.405 18.8921 27.2137 18.4671 27.3652 18.0884C27.421 17.957 27.4449 17.8025 27.4449 17.6402C27.4449 16.8751 26.8072 16.2569 26.0181 16.2569C25.9007 16.2569 25.7929 16.2708 25.6946 16.2951C25.6172 16.3365 25.5322 16.3632 25.444 16.3744C25.3151 16.4275 25.1944 16.4992 25.0862 16.5874C25.0431 16.6419 24.992 16.6908 24.9337 16.7319C24.711 16.9789 24.5913 17.3026 24.5913 17.6324C24.5913 17.9184 24.687 18.2043 24.8543 18.4439C25.0935 18.7762 25.0217 19.2321 24.679 19.464C24.5435 19.5799 24.392 19.6263 24.2406 19.6263C24.1311 19.6263 24.0232 19.6036 23.9247 19.5597C23.6626 19.8399 23.2127 19.8851 22.9007 19.6417C22.5739 19.3944 22.5101 18.9307 22.7732 18.6139C22.9724 18.3666 23.0761 18.0729 23.0761 17.7715C23.0761 17.4006 22.9166 17.0374 22.6456 16.7823C22.4942 16.6355 22.3268 16.5351 22.1275 16.4732L22.0558 16.45C21.8167 16.365 21.4819 16.365 21.2428 16.45C21.2188 16.4578 21.1949 16.4655 21.163 16.4732C20.9717 16.5351 20.8044 16.6355 20.6529 16.7823C20.3739 17.0374 20.2225 17.4006 20.2225 17.7715C20.2225 18.1116 20.35 18.4361 20.5891 18.6912C20.8681 18.9925 20.8442 19.4562 20.5333 19.7267C20.3899 19.8581 20.2065 19.9199 20.0232 19.9199C19.816 19.9199 19.6087 19.8349 19.4652 19.6803C19.4432 19.6568 19.4216 19.633 19.4004 19.6089C19.2601 19.722 19.0878 19.7808 18.9154 19.7808C18.7321 19.7808 18.5568 19.719 18.4053 19.5953C18.0944 19.3249 18.0705 18.8612 18.3495 18.5598C18.5727 18.3202 18.7002 17.9956 18.7002 17.6633C18.7002 17.2924 18.5408 16.9292 18.2698 16.6742C18.1184 16.5273 17.951 16.4269 17.7517 16.365L17.68 16.3419C17.4488 16.2646 17.13 16.2569 16.8908 16.3341C16.8669 16.3419 16.843 16.3496 16.8271 16.3573C16.6119 16.4191 16.4365 16.5273 16.285 16.6742C16.0061 16.9292 15.8546 17.2924 15.8546 17.6633C15.8546 17.9415 15.9343 18.2043 16.0858 18.4207C16.3169 18.7607 16.2213 19.2167 15.8706 19.4408C15.5198 19.6649 15.0495 19.5722 14.8184 19.2321C14.7961 19.1998 14.7747 19.167 14.754 19.1339C14.7103 19.1678 14.6654 19.2006 14.6195 19.2321C14.492 19.3558 14.3405 19.3944 14.1891 19.3944C13.95 19.3944 13.7188 19.2862 13.5674 19.0853C13.3282 18.753 13.4079 18.2971 13.7427 18.0652C14.1173 17.8102 14.3326 17.4006 14.3326 16.9524C14.3326 16.7901 14.3086 16.6355 14.2529 16.5042C14.2529 16.5003 14.2509 16.4964 14.2489 16.4926C14.2469 16.4887 14.2449 16.4848 14.2449 16.481C14.0645 15.9927 13.6219 15.6488 13.0908 15.5788C13.0145 15.5841 12.9387 15.5782 12.8659 15.5619C12.7968 15.5638 12.7311 15.5705 12.6689 15.5814C12.5824 15.6345 12.4845 15.6697 12.3797 15.685C12.3643 15.6807 12.3501 15.6782 12.3368 15.6768C12.1798 15.7407 12.0347 15.8323 11.9094 15.9477C11.6304 16.2028 11.479 16.566 11.479 16.9369C11.479 17.2074 11.5587 17.4702 11.7101 17.6865C11.9413 18.0266 11.8456 18.4825 11.4949 18.7066C11.1442 18.9307 10.6739 18.838 10.4427 18.498C10.4285 18.4773 10.4146 18.4565 10.401 18.4355C10.2803 18.5317 10.1276 18.5753 9.98043 18.5753C9.77318 18.5753 9.55796 18.4903 9.40652 18.3202C9.13551 18.0111 9.16739 17.5552 9.47826 17.2847C9.78912 17.0219 9.97245 16.6433 9.97245 16.2414C9.97245 16.0791 9.94854 15.9246 9.89274 15.7932C9.89274 15.7893 9.89075 15.7855 9.88876 15.7816C9.88677 15.7777 9.88477 15.7739 9.88477 15.77C9.70889 15.294 9.28371 14.9551 8.7703 14.8735C8.67571 14.883 8.58159 14.875 8.49243 14.8513C8.29628 14.8584 8.10738 14.9044 7.9319 14.9895C7.65306 15.121 7.42411 15.3285 7.28544 15.5858C7.27238 15.618 7.25702 15.6492 7.23943 15.6793C7.15905 15.8576 7.11886 16.0424 7.11886 16.2337C7.11886 16.311 7.12683 16.3882 7.14277 16.481C7.21451 16.8828 6.9435 17.2615 6.52901 17.3311C6.11452 17.4006 5.72395 17.1379 5.65221 16.736C5.62283 16.5794 5.60699 16.4227 5.60468 16.2721C4.00102 16.2556 2.69507 14.9869 2.69507 13.4207C2.69507 11.8519 3.9974 10.5816 5.61243 10.5692C5.63377 9.01796 6.94071 7.75609 8.55344 7.75609C9.19378 7.75609 9.79705 7.95378 10.2883 8.3007C10.8155 7.54139 11.7124 7.04509 12.7297 7.04509C13.3283 7.04509 13.8864 7.21957 14.3522 7.51923C14.4878 6.07102 15.7461 4.92732 17.2814 4.92732C18.3667 4.92732 19.3135 5.4953 19.8232 6.3418ZM23.7918 7.85065C23.7934 7.82202 23.7942 7.79304 23.7942 7.76381C23.7942 6.99874 23.1565 6.38051 22.3674 6.38051C21.5782 6.38051 20.9406 6.99874 20.9406 7.76381C20.9406 7.79017 20.9412 7.81633 20.9425 7.84221C21.4973 7.98272 21.9932 8.27647 22.372 8.68099C22.7479 8.27989 23.2392 7.99019 23.7918 7.85065ZM15.5532 10.3056C15.6727 10.1959 15.8068 10.1053 15.9591 10.0408C16.0207 10.027 16.0814 10.0056 16.1393 9.97682C16.6263 9.83389 17.1511 9.96243 17.5124 10.2908C17.5204 10.3063 17.5363 10.3218 17.5523 10.3295C17.5602 10.3449 17.5682 10.3527 17.5841 10.3681C17.8312 10.6231 17.9668 10.9554 17.9668 11.3032C17.9668 11.4385 17.9446 11.5738 17.9049 11.7046C17.6706 11.8482 17.46 12.0226 17.2783 12.221C16.7433 11.6383 15.9702 11.2888 15.1214 11.2802C15.1215 11.2548 15.1203 11.2295 15.1177 11.2044C15.1403 10.9372 15.2403 10.6832 15.405 10.4712C15.4625 10.4235 15.5125 10.3677 15.5532 10.3056ZM18.7082 7.77894C18.7082 7.91777 18.687 8.05317 18.6447 8.18288C18.3773 8.34437 18.1386 8.54682 17.9381 8.78099C17.5151 8.55669 17.0367 8.43613 16.54 8.43613C16.3768 8.43613 16.2136 8.45014 16.0522 8.47733C15.9248 8.26964 15.8546 8.02915 15.8546 7.77894C15.8546 7.01387 16.4923 6.39563 17.2814 6.39563C18.0705 6.39563 18.7082 7.01387 18.7082 7.77894ZM29.5655 9.58711C29.6073 9.45819 29.6282 9.32366 29.6282 9.18575C29.6282 8.42068 28.9906 7.80244 28.2014 7.80244C27.5414 7.80244 26.9903 8.21933 26.8281 8.80743C27.2033 9.24834 27.4346 9.79921 27.4827 10.3807C27.6983 10.5025 27.9438 10.5691 28.1934 10.5691C28.3366 10.5691 28.4762 10.5485 28.61 10.5075C28.8501 10.1336 29.1782 9.81756 29.5655 9.58711ZM11.3278 9.66066C11.4391 9.95758 11.4947 10.2707 11.4947 10.6C11.4947 10.6234 11.4947 10.6508 11.4937 10.6821C11.9204 10.7893 12.317 10.9932 12.6484 11.2702C12.6765 11.2716 12.7037 11.2723 12.7301 11.2723C13.0618 11.2723 13.3731 11.1634 13.619 10.9655C13.6766 10.4909 13.8538 10.0439 14.1353 9.65753C14.0188 9.00682 13.4347 8.51341 12.7297 8.51341C12.0258 8.51341 11.439 9.00756 11.3278 9.66066ZM11.695 12.3989C11.7371 12.4574 11.7879 12.5099 11.8458 12.5543C12.0523 12.7929 12.1645 13.0972 12.1645 13.4207C12.1645 13.7289 12.058 14.0311 11.8618 14.2734C11.5602 14.3841 11.2865 14.5344 11.0408 14.7297C10.6526 14.1197 10.0367 13.6734 9.3198 13.4838C9.31916 13.4655 9.31885 13.447 9.31885 13.4284C9.31885 13.2661 9.34276 13.1116 9.39855 12.9802C9.39855 12.9763 9.40055 12.9725 9.40254 12.9686C9.40453 12.9647 9.40653 12.9609 9.40653 12.957C9.59783 12.4315 10.084 12.076 10.658 12.0451C10.6699 12.0451 10.6799 12.0432 10.6898 12.0412C10.6998 12.0393 10.7098 12.0374 10.7218 12.0374H10.7297C10.7902 12.0374 10.8506 12.0429 10.9206 12.0492L10.9609 12.0528C10.9695 12.057 10.9805 12.0589 10.9925 12.061C11.0027 12.0628 11.0137 12.0647 11.0247 12.0683C11.2776 12.116 11.512 12.2297 11.695 12.3989ZM9.96443 10.6848C9.96481 10.6621 9.96632 10.6405 9.97227 10.6232V10.6C9.97227 10.4068 9.94038 10.2368 9.86067 10.0745L9.85811 10.0682L9.85669 10.0668C9.8547 10.0648 9.8527 10.0629 9.8527 10.059C9.62952 9.54898 9.11938 9.21667 8.54547 9.21667C7.75635 9.21667 7.11867 9.83491 7.11867 10.6C7.11867 10.7353 7.13878 10.8673 7.179 10.994C7.5981 11.2419 7.94751 11.5967 8.19078 12.0136C8.574 11.357 9.21121 10.881 9.96443 10.6848ZM6.19912 12.1505C6.23481 12.171 6.27214 12.1886 6.31066 12.2033C6.57328 12.3435 6.78506 12.5574 6.91966 12.8256C7.01532 13.0111 7.06314 13.212 7.06314 13.4207C7.06314 13.5538 7.04368 13.6837 7.00476 13.8085C6.61221 14.0428 6.2807 14.365 6.04013 14.7463C5.91026 14.7848 5.77496 14.804 5.63634 14.804C4.84722 14.804 4.20955 14.1858 4.20955 13.4207C4.20955 12.6556 4.84722 12.0374 5.63634 12.0374C5.83042 12.0374 6.01801 12.0751 6.19912 12.1505ZM19.4732 11.2646C20.0404 11.266 20.5836 11.4246 21.0472 11.7154C21.3584 11.493 21.567 11.1505 21.6151 10.7744C21.6114 10.7165 21.6095 10.6584 21.6095 10.6C21.6095 10.5409 21.6112 10.4823 21.6146 10.4241C21.6026 10.3296 21.5803 10.2402 21.5461 10.1595C21.5461 10.1556 21.5441 10.1518 21.5421 10.1479C21.5401 10.144 21.5381 10.1402 21.5381 10.1363C21.3468 9.61853 20.8606 9.26305 20.2867 9.23213C20.2627 9.23213 20.2468 9.23213 20.2229 9.22441H20.199C19.9838 9.22441 19.7765 9.27077 19.5852 9.36351C19.3674 9.46622 19.1801 9.61528 19.0424 9.79825C19.3211 10.2361 19.469 10.7395 19.4732 11.2646ZM18.8093 12.8994C18.8321 12.8899 18.8543 12.8792 18.8759 12.8674C18.9097 12.8523 18.9442 12.8383 18.9794 12.8256C19.4533 12.6533 19.9754 12.7478 20.3539 13.0409C20.3951 13.0917 20.4429 13.1366 20.4955 13.1746C20.4995 13.1788 20.5042 13.1834 20.5098 13.1888C20.7569 13.4439 20.8924 13.7762 20.8924 14.1239C20.8924 14.2862 20.8606 14.4485 20.8048 14.6031C20.8048 14.6031 20.7968 14.6108 20.7968 14.6185C20.733 14.7808 20.6374 14.9354 20.5019 15.0745C20.4496 15.1159 20.4037 15.1629 20.365 15.2145C20.2874 15.2503 20.2116 15.2894 20.1379 15.3317C20.0496 15.3306 19.9598 15.3447 19.8724 15.3759C19.6332 15.4609 19.2984 15.4609 19.0593 15.3759L19.0477 15.3718L19.0353 15.3678C18.8332 15.2233 18.6153 15.1055 18.3844 15.0159C18.1712 14.7696 18.0468 14.4531 18.0468 14.1239C18.0468 13.6054 18.3466 13.1364 18.8093 12.8994ZM15.4246 15.4503C15.0331 14.8203 14.4003 14.3612 13.6629 14.1729L13.6625 14.1451L13.6624 14.1317C13.6624 13.5134 14.0928 12.9647 14.7225 12.8024C14.8501 12.7638 14.9696 12.7483 15.0892 12.7483C15.6791 12.7483 16.1972 13.0884 16.4044 13.6139C16.4124 13.6216 16.4124 13.6216 16.4124 13.6293C16.4841 13.7839 16.516 13.9616 16.516 14.1317C16.516 14.4566 16.3977 14.7748 16.1806 15.0232C15.9035 15.1304 15.6498 15.2736 15.4246 15.4503ZM23.3309 11.3083C23.2056 11.1049 23.1353 10.8699 23.1321 10.625L23.1323 10.5923L23.1322 10.5778C23.135 10.4265 23.1593 10.2828 23.2117 10.1595C23.2117 10.1556 23.2137 10.1518 23.2157 10.1479C23.2177 10.144 23.2197 10.1402 23.2197 10.1363C23.411 9.61853 23.8972 9.26304 24.4711 9.23213C24.483 9.23213 24.493 9.2302 24.503 9.22827C24.5129 9.22633 24.5229 9.2244 24.5349 9.2244H24.5588C24.9095 9.2244 25.2443 9.34805 25.5153 9.58762C25.8102 9.84264 25.9776 10.2136 25.9776 10.6077V10.6618C25.9696 10.6773 25.9696 10.6927 25.9696 10.7082C25.9605 10.806 25.9407 10.9063 25.912 11.0018C25.6468 11.1634 25.4101 11.3654 25.2113 11.5987C24.7933 11.3813 24.3223 11.2646 23.8335 11.2646C23.6653 11.2646 23.4972 11.2794 23.3309 11.3083ZM23.3938 12.8096C23.3601 12.8245 23.3255 12.8372 23.2902 12.8475C22.7639 13.0623 22.4147 13.5643 22.4147 14.1239C22.4147 14.4871 22.5661 14.8349 22.8212 15.0899C22.8679 15.1284 22.9091 15.1728 22.944 15.2218C23.0673 15.28 23.1863 15.3465 23.3007 15.4213C23.3405 15.4286 23.3801 15.4391 23.4194 15.4531C23.6179 15.5237 23.8822 15.5357 24.1031 15.4891C24.3497 15.2837 24.6253 15.1255 24.9299 15.0086C25.0231 14.9001 25.0942 14.7835 25.1467 14.6621C25.1596 14.618 25.1769 14.5749 25.1985 14.5335C25.243 14.4002 25.2603 14.2621 25.2603 14.1239C25.2603 13.7762 25.1248 13.4439 24.8777 13.1888C24.8759 13.1853 24.8737 13.1822 24.8712 13.1794L24.866 13.1737L24.8618 13.1695C24.8562 13.1641 24.8506 13.1587 24.8466 13.1517L24.8436 13.1482C24.8387 13.1436 24.8339 13.1397 24.8293 13.136C24.8196 13.1283 24.8111 13.1215 24.806 13.1116C24.435 12.7744 23.8916 12.6479 23.3938 12.8096ZM34.0275 11.7832C34.4393 11.5408 34.7139 11.102 34.7139 10.6C34.7139 9.83489 34.0762 9.21665 33.2871 9.21665C32.9778 9.21665 32.6873 9.31332 32.4504 9.48094C33.3313 9.92362 33.947 10.7855 34.0275 11.7832ZM32.4424 12.4687L32.4366 12.4855C32.233 13.0257 31.7033 13.3898 31.1032 13.3898C30.8572 13.3898 30.6151 13.3251 30.4017 13.2065C30.3572 12.6142 30.1225 12.0525 29.7391 11.6052C29.7608 11.5384 29.7878 11.4736 29.8199 11.4114C29.9554 11.1332 30.1945 10.9091 30.4894 10.77C30.6807 10.6773 30.888 10.6309 31.1032 10.6309H31.1271C31.151 10.6386 31.167 10.6386 31.1909 10.6386C31.9401 10.6773 32.53 11.28 32.53 12.0142C32.53 12.1688 32.5061 12.3156 32.4503 12.447L32.4456 12.4599C32.4441 12.4628 32.4428 12.4658 32.4424 12.4687ZM28.4983 12.4613C28.4439 12.4251 28.3947 12.3823 28.3519 12.334C28.0964 12.1382 27.7928 12.0374 27.4762 12.0374C27.2609 12.0374 27.0537 12.0838 26.8624 12.1765C26.6464 12.2783 26.4604 12.4258 26.3231 12.6066C26.6142 13.0555 26.7668 13.5747 26.7668 14.1162C26.7668 14.28 26.7513 14.4438 26.7213 14.6057C26.9424 14.7406 27.198 14.8117 27.4683 14.8117C27.6072 14.8117 27.7427 14.7924 27.8728 14.7538C28.1112 14.376 28.4391 14.0561 28.8271 13.8224C28.855 13.7313 28.8747 13.6357 28.8849 13.5419C28.8854 13.5303 28.8862 13.5186 28.8872 13.507C28.8874 13.503 28.8878 13.4991 28.8884 13.4951C28.8901 13.4796 28.8923 13.4641 28.895 13.4487V13.4207C28.895 13.0568 28.7523 12.7127 28.4983 12.4613Z" fill="#63666A"></path></g><defs><clipPath id="clip0_5587_57694"><rect width="40" height="40" fill="white" transform="translate(0.695068 0.919922)"></rect></clipPath></defs></svg> 