<?xml version="1.0" encoding="UTF-8"?> <svg xmlns="http://www.w3.org/2000/svg" width="53" height="53" viewBox="0 0 53 53" fill="none"><rect width="53" height="53" fill="#292929"></rect><path d="M35.948 22.7C36 23.75 36 25 36 26.5C36 30.978 36 33.218 34.609 34.609C33.218 36 30.979 36 26.5 36C22.022 36 19.782 36 18.391 34.609C17 33.218 17 30.979 17 26.5C17 22.022 17 19.782 18.391 18.391C19.782 17 22.021 17 26.5 17C27.572 17 28.516 17 29.35 17.02" stroke="#F0EE0E" stroke-width="1.5" stroke-linecap="round" stroke-linejoin="round"></path><path d="M34.1796 18.4318L34.149 18.4606L34.1237 18.494L26.2246 28.9272C26.1617 28.9762 26.0836 29.0025 26.0031 29.001C25.9117 28.9993 25.8246 28.9619 25.7604 28.8968L23.0805 26.1769L23.0806 26.1769L23.0748 26.1712C23.0511 26.1479 23.0323 26.1202 23.0195 26.0896C23.0067 26.0591 23 26.0262 23 25.9931C23 25.9599 23.0065 25.9271 23.0193 25.8965C23.0321 25.8659 23.0509 25.8381 23.0745 25.8148C23.0981 25.7915 23.1261 25.7732 23.1569 25.7608C23.1877 25.7485 23.2206 25.7424 23.2538 25.7429C23.2869 25.7434 23.3196 25.7505 23.35 25.7637C23.3804 25.777 23.4079 25.7962 23.4308 25.8202L23.4307 25.8202L23.4362 25.8258L25.6702 28.0928L26.0795 28.5081L26.4275 28.0403L33.862 18.0473C33.9065 18.0152 33.9605 17.9984 34.0159 18.0001C34.0821 18.0021 34.1448 18.0303 34.1902 18.0785C34.2357 18.1268 34.2601 18.1911 34.2581 18.2574C34.2561 18.3236 34.2278 18.3864 34.1796 18.4318Z" fill="#F0EE0E" stroke="#F0EE0E"></path></svg> 