<?xml version="1.0" encoding="UTF-8"?> <svg xmlns="http://www.w3.org/2000/svg" width="41" height="41" viewBox="0 0 41 41" fill="none"><g clip-path="url(#clip0_13376_4206)"><path fill-rule="evenodd" clip-rule="evenodd" d="M23.8995 2.01366C25.3336 1.30043 26.7638 2.45919 26.7638 3.83112V12.1488H30.0016V3.83109C30.0016 2.45919 31.4318 1.30044 32.866 2.01366C36.5478 3.84469 39.4955 7.69864 39.4955 12.2528C39.4955 16.8848 36.8038 20.8919 32.9101 22.6771V33.8363C32.9101 36.3568 30.9176 38.4633 28.3828 38.4633C25.8478 38.4633 23.8553 36.3568 23.8553 33.8363V22.6771C19.9616 20.8919 17.27 16.8848 17.27 12.2528C17.27 7.69864 20.2176 3.84469 23.8995 2.01366ZM24.2943 4.61275C21.6581 6.20891 19.7395 9.06934 19.7395 12.2528C19.7395 16.1672 22.166 19.4716 25.5125 20.6901L26.3248 20.9859V33.8363C26.3248 35.0628 27.2806 35.9938 28.3828 35.9938C29.4848 35.9938 30.4406 35.0628 30.4406 33.8363V20.9859L31.253 20.6901C34.5996 19.4716 37.026 16.1672 37.026 12.2528C37.026 9.06934 35.1073 6.20891 32.4711 4.61275V14.6183H24.2943V4.61275Z" fill="#63666A"></path><path d="M15.0599 18.2133C14.4665 18.2133 13.902 18.4694 13.5112 18.9161L9.37242 23.6461C8.79837 24.3021 8.04713 24.7784 7.20895 25.0179L4.76873 25.7151C3.88525 25.9676 3.27615 26.7751 3.27615 27.6939V30.4318C3.27615 30.9776 3.49296 31.5009 3.87891 31.8869L4.56085 32.5688C5.04305 33.0511 5.04305 33.8328 4.56085 34.3151C4.07865 34.7973 3.29683 34.7973 2.81463 34.3151L2.1327 33.6331C1.28363 32.7841 0.806641 31.6324 0.806641 30.4318V27.6939C0.806641 25.6724 2.14666 23.8959 4.0903 23.3406L6.53051 22.6434C6.91151 22.5346 7.25298 22.3181 7.51391 22.0199L11.6527 17.2898C12.5124 16.3073 13.7544 15.7437 15.0599 15.7437H15.2122C15.8941 15.7437 16.4469 16.2966 16.4469 16.9784C16.4469 17.6604 15.8941 18.2133 15.2122 18.2133H15.0599Z" fill="#63666A"></path><path fill-rule="evenodd" clip-rule="evenodd" d="M20.1511 32.6189C20.1511 35.8012 17.5712 38.381 14.3889 38.381C11.2065 38.381 8.62671 35.8012 8.62671 32.6189C8.62671 29.4365 11.2065 26.8567 14.3889 26.8567C17.5712 26.8567 20.1511 29.4365 20.1511 32.6189ZM17.6816 32.6189C17.6816 34.4374 16.2074 35.9115 14.3889 35.9115C12.5704 35.9115 11.0962 34.4374 11.0962 32.6189C11.0962 30.8004 12.5704 29.3262 14.3889 29.3262C16.2074 29.3262 17.6816 30.8004 17.6816 32.6189Z" fill="#63666A"></path></g><defs><clipPath id="clip0_13376_4206"><rect width="40" height="40" fill="white" transform="translate(0.139893 0.129883)"></rect></clipPath></defs></svg> 