<?xml version="1.0" encoding="UTF-8"?> <svg xmlns="http://www.w3.org/2000/svg" width="41" height="41" viewBox="0 0 41 41" fill="none"><g clip-path="url(#clip0_5587_57807)"><path fill-rule="evenodd" clip-rule="evenodd" d="M6.70007 6.35999V34.36H34.7001V6.35999H6.70007ZM5.70007 4.35999C5.14779 4.35999 4.70007 4.80771 4.70007 5.35999V35.36C4.70007 35.9123 5.14779 36.36 5.70007 36.36H35.7001C36.2524 36.36 36.7001 35.9123 36.7001 35.36V5.35999C36.7001 4.80771 36.2524 4.35999 35.7001 4.35999H5.70007ZM11.7001 0.359985C11.1478 0.359985 10.7001 0.8077 10.7001 1.35999V4.35999C10.7001 4.91227 11.1478 5.35999 11.7001 5.35999C12.2524 5.35999 12.7001 4.91227 12.7001 4.35999V1.35999C12.7001 0.8077 12.2524 0.359985 11.7001 0.359985ZM11.7001 35.36C11.1478 35.36 10.7001 35.8077 10.7001 36.36V39.36C10.7001 39.9123 11.1478 40.36 11.7001 40.36C12.2524 40.36 12.7001 39.9123 12.7001 39.36V36.36C12.7001 35.8077 12.2524 35.36 11.7001 35.36ZM13.7001 1.35999C13.7001 0.8077 14.1478 0.359985 14.7001 0.359985C15.2524 0.359985 15.7001 0.8077 15.7001 1.35999V4.35999C15.7001 4.91227 15.2524 5.35999 14.7001 5.35999C14.1478 5.35999 13.7001 4.91227 13.7001 4.35999V1.35999ZM14.7001 35.36C14.1478 35.36 13.7001 35.8077 13.7001 36.36V39.36C13.7001 39.9123 14.1478 40.36 14.7001 40.36C15.2524 40.36 15.7001 39.9123 15.7001 39.36V36.36C15.7001 35.8077 15.2524 35.36 14.7001 35.36ZM16.7001 1.35999C16.7001 0.8077 17.1478 0.359985 17.7001 0.359985C18.2524 0.359985 18.7001 0.8077 18.7001 1.35999V4.35999C18.7001 4.91227 18.2524 5.35999 17.7001 5.35999C17.1478 5.35999 16.7001 4.91227 16.7001 4.35999V1.35999ZM17.7001 35.36C17.1478 35.36 16.7001 35.8077 16.7001 36.36V39.36C16.7001 39.9123 17.1478 40.36 17.7001 40.36C18.2524 40.36 18.7001 39.9123 18.7001 39.36V36.36C18.7001 35.8077 18.2524 35.36 17.7001 35.36ZM19.7001 1.35999C19.7001 0.8077 20.1478 0.359985 20.7001 0.359985C21.2524 0.359985 21.7001 0.8077 21.7001 1.35999V4.35999C21.7001 4.91227 21.2524 5.35999 20.7001 5.35999C20.1478 5.35999 19.7001 4.91227 19.7001 4.35999V1.35999ZM20.7001 35.36C20.1478 35.36 19.7001 35.8077 19.7001 36.36V39.36C19.7001 39.9123 20.1478 40.36 20.7001 40.36C21.2524 40.36 21.7001 39.9123 21.7001 39.36V36.36C21.7001 35.8077 21.2524 35.36 20.7001 35.36ZM22.7001 1.35999C22.7001 0.8077 23.1478 0.359985 23.7001 0.359985C24.2524 0.359985 24.7001 0.8077 24.7001 1.35999V4.35999C24.7001 4.91227 24.2524 5.35999 23.7001 5.35999C23.1478 5.35999 22.7001 4.91227 22.7001 4.35999V1.35999ZM23.7001 35.36C23.1478 35.36 22.7001 35.8077 22.7001 36.36V39.36C22.7001 39.9123 23.1478 40.36 23.7001 40.36C24.2524 40.36 24.7001 39.9123 24.7001 39.36V36.36C24.7001 35.8077 24.2524 35.36 23.7001 35.36ZM25.7001 1.35999C25.7001 0.8077 26.1478 0.359985 26.7001 0.359985C27.2524 0.359985 27.7001 0.8077 27.7001 1.35999V4.35999C27.7001 4.91227 27.2524 5.35999 26.7001 5.35999C26.1478 5.35999 25.7001 4.91227 25.7001 4.35999V1.35999ZM26.7001 35.36C26.1478 35.36 25.7001 35.8077 25.7001 36.36V39.36C25.7001 39.9123 26.1478 40.36 26.7001 40.36C27.2524 40.36 27.7001 39.9123 27.7001 39.36V36.36C27.7001 35.8077 27.2524 35.36 26.7001 35.36ZM28.7001 1.35999C28.7001 0.8077 29.1478 0.359985 29.7001 0.359985C30.2524 0.359985 30.7001 0.8077 30.7001 1.35999V4.35999C30.7001 4.91227 30.2524 5.35999 29.7001 5.35999C29.1478 5.35999 28.7001 4.91227 28.7001 4.35999V1.35999ZM29.7001 35.36C29.1478 35.36 28.7001 35.8077 28.7001 36.36V39.36C28.7001 39.9123 29.1478 40.36 29.7001 40.36C30.2524 40.36 30.7001 39.9123 30.7001 39.36V36.36C30.7001 35.8077 30.2524 35.36 29.7001 35.36ZM0.700073 29.36C0.700073 29.9123 1.14779 30.36 1.70007 30.36H4.70007C5.25235 30.36 5.70007 29.9123 5.70007 29.36C5.70007 28.8077 5.25235 28.36 4.70007 28.36H1.70007C1.14779 28.36 0.700073 28.8077 0.700073 29.36ZM35.7001 29.36C35.7001 29.9123 36.1478 30.36 36.7001 30.36H39.7001C40.2524 30.36 40.7001 29.9123 40.7001 29.36C40.7001 28.8077 40.2524 28.36 39.7001 28.36H36.7001C36.1478 28.36 35.7001 28.8077 35.7001 29.36ZM1.70007 27.36C1.14779 27.36 0.700073 26.9123 0.700073 26.36C0.700073 25.8077 1.14779 25.36 1.70007 25.36H4.70007C5.25235 25.36 5.70007 25.8077 5.70007 26.36C5.70007 26.9123 5.25235 27.36 4.70007 27.36H1.70007ZM35.7001 26.36C35.7001 26.9123 36.1478 27.36 36.7001 27.36H39.7001C40.2524 27.36 40.7001 26.9123 40.7001 26.36C40.7001 25.8077 40.2524 25.36 39.7001 25.36H36.7001C36.1478 25.36 35.7001 25.8077 35.7001 26.36ZM1.70007 24.36C1.14779 24.36 0.700073 23.9123 0.700073 23.36C0.700073 22.8077 1.14779 22.36 1.70007 22.36H4.70007C5.25235 22.36 5.70007 22.8077 5.70007 23.36C5.70007 23.9123 5.25235 24.36 4.70007 24.36H1.70007ZM35.7001 23.36C35.7001 23.9123 36.1478 24.36 36.7001 24.36H39.7001C40.2524 24.36 40.7001 23.9123 40.7001 23.36C40.7001 22.8077 40.2524 22.36 39.7001 22.36H36.7001C36.1478 22.36 35.7001 22.8077 35.7001 23.36ZM1.70007 21.36C1.14779 21.36 0.700073 20.9123 0.700073 20.36C0.700073 19.8077 1.14779 19.36 1.70007 19.36H4.70007C5.25235 19.36 5.70007 19.8077 5.70007 20.36C5.70007 20.9123 5.25235 21.36 4.70007 21.36H1.70007ZM35.7001 20.36C35.7001 20.9123 36.1478 21.36 36.7001 21.36H39.7001C40.2524 21.36 40.7001 20.9123 40.7001 20.36C40.7001 19.8077 40.2524 19.36 39.7001 19.36H36.7001C36.1478 19.36 35.7001 19.8077 35.7001 20.36ZM1.70007 18.36C1.14779 18.36 0.700073 17.9123 0.700073 17.36C0.700073 16.8077 1.14779 16.36 1.70007 16.36H4.70007C5.25235 16.36 5.70007 16.8077 5.70007 17.36C5.70007 17.9123 5.25235 18.36 4.70007 18.36H1.70007ZM35.7001 17.36C35.7001 17.9123 36.1478 18.36 36.7001 18.36H39.7001C40.2524 18.36 40.7001 17.9123 40.7001 17.36C40.7001 16.8077 40.2524 16.36 39.7001 16.36H36.7001C36.1478 16.36 35.7001 16.8077 35.7001 17.36ZM1.70007 15.36C1.14779 15.36 0.700073 14.9123 0.700073 14.36C0.700073 13.8077 1.14779 13.36 1.70007 13.36H4.70007C5.25235 13.36 5.70007 13.8077 5.70007 14.36C5.70007 14.9123 5.25235 15.36 4.70007 15.36H1.70007ZM35.7001 14.36C35.7001 14.9123 36.1478 15.36 36.7001 15.36H39.7001C40.2524 15.36 40.7001 14.9123 40.7001 14.36C40.7001 13.8077 40.2524 13.36 39.7001 13.36H36.7001C36.1478 13.36 35.7001 13.8077 35.7001 14.36ZM1.70007 12.36C1.14779 12.36 0.700073 11.9123 0.700073 11.36C0.700073 10.8077 1.14779 10.36 1.70007 10.36H4.70007C5.25235 10.36 5.70007 10.8077 5.70007 11.36C5.70007 11.9123 5.25235 12.36 4.70007 12.36H1.70007ZM35.7001 11.36C35.7001 11.9123 36.1478 12.36 36.7001 12.36H39.7001C40.2524 12.36 40.7001 11.9123 40.7001 11.36C40.7001 10.8077 40.2524 10.36 39.7001 10.36H36.7001C36.1478 10.36 35.7001 10.8077 35.7001 11.36ZM19.7001 15.36C20.8047 15.36 21.7001 14.4646 21.7001 13.36C21.7001 12.2554 20.8047 11.36 19.7001 11.36C18.5955 11.36 17.7001 12.2554 17.7001 13.36C17.7001 13.5392 17.7237 13.7128 17.7678 13.878L12.2859 19.36H6.20007C5.64779 19.36 5.20007 19.8077 5.20007 20.36C5.20007 20.9123 5.64779 21.36 6.20007 21.36H12.7001C12.9653 21.36 13.2197 21.2546 13.4072 21.0671L19.1821 15.2923C19.3473 15.3364 19.5209 15.36 19.7001 15.36ZM14.7001 14.36C14.7001 15.4646 13.8047 16.36 12.7001 16.36C11.9598 16.36 11.3135 15.9578 10.9677 15.36H5.70007C5.14779 15.36 4.70007 14.9123 4.70007 14.36C4.70007 13.8077 5.14779 13.36 5.70007 13.36H10.9677C11.3135 12.7622 11.9598 12.36 12.7001 12.36C13.8047 12.36 14.7001 13.2554 14.7001 14.36ZM5.70007 22.36C5.14779 22.36 4.70007 22.8077 4.70007 23.36C4.70007 23.9123 5.14779 24.36 5.70007 24.36H15.7001C16.2524 24.36 16.7001 23.9123 16.7001 23.36C16.7001 22.8077 16.2524 22.36 15.7001 22.36H5.70007ZM5.20007 26.86C5.20007 26.3077 5.64779 25.86 6.20007 25.86H16.7001C16.9653 25.86 17.2197 25.9654 17.4072 26.1529L18.8186 27.5643C19.0845 27.4335 19.3837 27.36 19.7001 27.36C20.8047 27.36 21.7001 28.2554 21.7001 29.36C21.7001 30.4646 20.8047 31.36 19.7001 31.36C18.5955 31.36 17.7001 30.4646 17.7001 29.36C17.7001 29.3318 17.7007 29.3038 17.7018 29.2759L16.2859 27.86H6.20007C5.64779 27.86 5.20007 27.4123 5.20007 26.86ZM26.7001 15.36C26.7001 15.4624 26.6924 15.5631 26.6775 15.6613L27.5509 16.36H35.2001C35.7524 16.36 36.2001 16.8078 36.2001 17.36C36.2001 17.9123 35.7524 18.36 35.2001 18.36H27.2001C26.9731 18.36 26.7528 18.2828 26.5754 18.1409L25.4284 17.2233C25.2027 17.3115 24.9571 17.36 24.7001 17.36C23.5955 17.36 22.7001 16.4646 22.7001 15.36C22.7001 14.2554 23.5955 13.36 24.7001 13.36C25.8047 13.36 26.7001 14.2554 26.7001 15.36ZM23.4325 22.36C23.0867 21.7622 22.4404 21.36 21.7001 21.36C20.5955 21.36 19.7001 22.2554 19.7001 23.36C19.7001 24.4646 20.5955 25.36 21.7001 25.36C22.4404 25.36 23.0867 24.9578 23.4325 24.36H35.7001C36.2524 24.36 36.7001 23.9123 36.7001 23.36C36.7001 22.8077 36.2524 22.36 35.7001 22.36H23.4325ZM29.4325 30.36C29.0867 30.9578 28.4404 31.36 27.7001 31.36C26.5955 31.36 25.7001 30.4646 25.7001 29.36C25.7001 28.2554 26.5955 27.36 27.7001 27.36C28.4404 27.36 29.0867 27.7622 29.4325 28.36H35.2001C35.7524 28.36 36.2001 28.8077 36.2001 29.36C36.2001 29.9123 35.7524 30.36 35.2001 30.36H29.4325ZM19.7001 15.36C20.8047 15.36 21.7001 14.4646 21.7001 13.36C21.7001 12.2554 20.8047 11.36 19.7001 11.36C18.5955 11.36 17.7001 12.2554 17.7001 13.36C17.7001 13.5392 17.7237 13.7128 17.7678 13.878L12.2859 19.36H6.20007C5.64779 19.36 5.20007 19.8077 5.20007 20.36C5.20007 20.9123 5.64779 21.36 6.20007 21.36H12.7001C12.9653 21.36 13.2197 21.2546 13.4072 21.0671L19.1821 15.2923C19.3473 15.3364 19.5209 15.36 19.7001 15.36ZM14.7001 14.36C14.7001 15.4646 13.8047 16.36 12.7001 16.36C11.9598 16.36 11.3135 15.9578 10.9677 15.36H5.70007C5.14779 15.36 4.70007 14.9123 4.70007 14.36C4.70007 13.8077 5.14779 13.36 5.70007 13.36H10.9677C11.3135 12.7622 11.9598 12.36 12.7001 12.36C13.8047 12.36 14.7001 13.2554 14.7001 14.36ZM5.70007 22.36C5.14779 22.36 4.70007 22.8077 4.70007 23.36C4.70007 23.9123 5.14779 24.36 5.70007 24.36H15.7001C16.2524 24.36 16.7001 23.9123 16.7001 23.36C16.7001 22.8077 16.2524 22.36 15.7001 22.36H5.70007ZM5.20007 26.86C5.20007 26.3077 5.64779 25.86 6.20007 25.86H16.7001C16.9653 25.86 17.2197 25.9654 17.4072 26.1529L18.8186 27.5643C19.0845 27.4335 19.3837 27.36 19.7001 27.36C20.8047 27.36 21.7001 28.2554 21.7001 29.36C21.7001 30.4646 20.8047 31.36 19.7001 31.36C18.5955 31.36 17.7001 30.4646 17.7001 29.36C17.7001 29.3318 17.7007 29.3038 17.7018 29.2759L16.2859 27.86H6.20007C5.64779 27.86 5.20007 27.4123 5.20007 26.86ZM26.7001 15.36C26.7001 15.4624 26.6924 15.5631 26.6775 15.6613L27.5509 16.36H35.2001C35.7524 16.36 36.2001 16.8078 36.2001 17.36C36.2001 17.9123 35.7524 18.36 35.2001 18.36H27.2001C26.9731 18.36 26.7528 18.2828 26.5754 18.1409L25.4284 17.2233C25.2027 17.3115 24.9571 17.36 24.7001 17.36C23.5955 17.36 22.7001 16.4646 22.7001 15.36C22.7001 14.2554 23.5955 13.36 24.7001 13.36C25.8047 13.36 26.7001 14.2554 26.7001 15.36ZM23.4325 22.36C23.0867 21.7622 22.4404 21.36 21.7001 21.36C20.5955 21.36 19.7001 22.2554 19.7001 23.36C19.7001 24.4646 20.5955 25.36 21.7001 25.36C22.4404 25.36 23.0867 24.9578 23.4325 24.36H35.7001C36.2524 24.36 36.7001 23.9123 36.7001 23.36C36.7001 22.8077 36.2524 22.36 35.7001 22.36H23.4325ZM29.4325 30.36C29.0867 30.9578 28.4404 31.36 27.7001 31.36C26.5955 31.36 25.7001 30.4646 25.7001 29.36C25.7001 28.2554 26.5955 27.36 27.7001 27.36C28.4404 27.36 29.0867 27.7622 29.4325 28.36H35.2001C35.7524 28.36 36.2001 28.8077 36.2001 29.36C36.2001 29.9123 35.7524 30.36 35.2001 30.36H29.4325ZM19.7001 15.36C20.8047 15.36 21.7001 14.4646 21.7001 13.36C21.7001 12.2554 20.8047 11.36 19.7001 11.36C18.5955 11.36 17.7001 12.2554 17.7001 13.36C17.7001 13.5392 17.7237 13.7128 17.7678 13.878L12.2859 19.36H6.20007C5.64779 19.36 5.20007 19.8077 5.20007 20.36C5.20007 20.9123 5.64779 21.36 6.20007 21.36H12.7001C12.9653 21.36 13.2197 21.2546 13.4072 21.0671L19.1821 15.2923C19.3473 15.3364 19.5209 15.36 19.7001 15.36ZM14.7001 14.36C14.7001 15.4646 13.8047 16.36 12.7001 16.36C11.9598 16.36 11.3135 15.9578 10.9677 15.36H5.70007C5.14779 15.36 4.70007 14.9123 4.70007 14.36C4.70007 13.8077 5.14779 13.36 5.70007 13.36H10.9677C11.3135 12.7622 11.9598 12.36 12.7001 12.36C13.8047 12.36 14.7001 13.2554 14.7001 14.36ZM5.70007 22.36C5.14779 22.36 4.70007 22.8077 4.70007 23.36C4.70007 23.9123 5.14779 24.36 5.70007 24.36H15.7001C16.2524 24.36 16.7001 23.9123 16.7001 23.36C16.7001 22.8077 16.2524 22.36 15.7001 22.36H5.70007ZM5.20007 26.86C5.20007 26.3077 5.64779 25.86 6.20007 25.86H16.7001C16.9653 25.86 17.2197 25.9654 17.4072 26.1529L18.8186 27.5643C19.0845 27.4335 19.3837 27.36 19.7001 27.36C20.8047 27.36 21.7001 28.2554 21.7001 29.36C21.7001 30.4646 20.8047 31.36 19.7001 31.36C18.5955 31.36 17.7001 30.4646 17.7001 29.36C17.7001 29.3318 17.7007 29.3038 17.7018 29.2759L16.2859 27.86H6.20007C5.64779 27.86 5.20007 27.4123 5.20007 26.86ZM26.7001 15.36C26.7001 15.4624 26.6924 15.5631 26.6775 15.6613L27.5509 16.36H35.2001C35.7524 16.36 36.2001 16.8078 36.2001 17.36C36.2001 17.9123 35.7524 18.36 35.2001 18.36H27.2001C26.9731 18.36 26.7528 18.2828 26.5754 18.1409L25.4284 17.2233C25.2027 17.3115 24.9571 17.36 24.7001 17.36C23.5955 17.36 22.7001 16.4646 22.7001 15.36C22.7001 14.2554 23.5955 13.36 24.7001 13.36C25.8047 13.36 26.7001 14.2554 26.7001 15.36ZM23.4325 22.36C23.0867 21.7622 22.4404 21.36 21.7001 21.36C20.5955 21.36 19.7001 22.2554 19.7001 23.36C19.7001 24.4646 20.5955 25.36 21.7001 25.36C22.4404 25.36 23.0867 24.9578 23.4325 24.36H35.7001C36.2524 24.36 36.7001 23.9123 36.7001 23.36C36.7001 22.8077 36.2524 22.36 35.7001 22.36H23.4325ZM29.4325 30.36C29.0867 30.9578 28.4404 31.36 27.7001 31.36C26.5955 31.36 25.7001 30.4646 25.7001 29.36C25.7001 28.2554 26.5955 27.36 27.7001 27.36C28.4404 27.36 29.0867 27.7622 29.4325 28.36H35.2001C35.7524 28.36 36.2001 28.8077 36.2001 29.36C36.2001 29.9123 35.7524 30.36 35.2001 30.36H29.4325Z" fill="#63666A"></path></g><defs><clipPath id="clip0_5587_57807"><rect width="40" height="40" fill="white" transform="translate(0.700073 0.359985)"></rect></clipPath></defs></svg> 