<?xml version="1.0" encoding="UTF-8"?> <svg xmlns="http://www.w3.org/2000/svg" width="41" height="41" viewBox="0 0 41 41" fill="none"><g clip-path="url(#clip0_5587_57852)"><path fill-rule="evenodd" clip-rule="evenodd" d="M29.9104 0.669922C30.6635 0.669922 31.274 1.28044 31.274 2.03356V6.12447H33.5468C34.5509 6.12447 35.365 6.93849 35.365 7.94265V11.1564C36.4519 11.7851 37.1831 12.9603 37.1831 14.3063V17.0332H39.4562C40.2093 17.0332 40.8198 17.6438 40.8198 18.3969C40.8198 19.15 40.2093 19.7605 39.4562 19.7605H38.652L36.3782 37.4957C36.1456 39.3103 34.6009 40.6696 32.7714 40.6696H8.86822C7.03869 40.6696 5.49403 39.3103 5.26138 37.4957L2.98764 19.7605H2.18346C1.43035 19.7605 0.819824 19.15 0.819824 18.3969C0.819824 17.6438 1.43035 17.0332 2.18346 17.0332H3.10193C3.14301 16.2617 3.31496 15.5019 3.61128 14.7865C3.95393 13.9593 4.45615 13.2077 5.08928 12.5746C5.7224 11.9414 6.47403 11.4392 7.30125 11.0966C8.12847 10.7539 9.01508 10.5776 9.91046 10.5776C10.8058 10.5776 11.6924 10.7539 12.5196 11.0966C12.7726 11.2014 13.0185 11.3211 13.2562 11.4549C12.8604 10.7959 12.4135 10.1664 11.9185 9.5725L10.3122 7.64482C9.40251 6.55323 10.0077 4.88612 11.4057 4.63221L14.1265 4.13807C18.1992 3.39839 22.3883 4.1195 25.9649 6.15065C26.0654 6.13343 26.1687 6.12447 26.274 6.12447H28.5468V2.03356C28.5468 1.28044 29.1573 0.669922 29.9104 0.669922ZM5.83565 17.0332H13.9852C13.9485 16.6202 13.8491 16.2146 13.6899 15.8302C13.4843 15.3339 13.183 14.8829 12.8031 14.503C12.4232 14.1232 11.9723 13.8218 11.4759 13.6162C10.9796 13.4107 10.4477 13.3048 9.91046 13.3048C9.37323 13.3048 8.84127 13.4107 8.34494 13.6162C7.8486 13.8218 7.39763 14.1232 7.01775 14.503C6.63787 14.8829 6.33654 15.3339 6.13095 15.8302C5.97176 16.2146 5.87239 16.6202 5.83565 17.0332ZM18.1346 17.0332H22.6377V14.3063C22.6377 12.9603 23.369 11.7851 24.4559 11.1564V8.4314C21.4694 6.7844 17.9942 6.20752 14.6138 6.82145L13.3651 7.04824L14.0137 7.82654C15.7244 9.87946 16.9496 12.2923 17.5977 14.8848L18.1346 17.0332ZM34.4559 17.0332H25.365V14.3063C25.365 13.8042 25.772 13.3972 26.274 13.3972H33.5468C34.0489 13.3972 34.4559 13.8042 34.4559 14.3063V17.0332ZM22.6377 19.7605H5.73724L7.96651 37.1488C8.02467 37.6025 8.41084 37.9423 8.86822 37.9423H32.7714C33.2288 37.9423 33.6149 37.6025 33.6731 37.1488L35.9024 19.7608L22.6377 19.7605ZM27.1831 10.6699V8.85174H32.6377V10.6699H27.1831ZM11.9116 26.3081C11.9116 25.5047 12.5628 24.8535 13.3661 24.8535C14.1694 24.8535 14.8206 25.5047 14.8206 26.3081V31.4646C14.8206 32.2679 14.1694 32.9191 13.3661 32.9191C12.5628 32.9191 11.9116 32.2679 11.9116 31.4646V26.3081ZM20.8202 24.8535C20.0169 24.8535 19.3657 25.5047 19.3657 26.3081V31.4646C19.3657 32.2679 20.0169 32.9191 20.8202 32.9191C21.6235 32.9191 22.2747 32.2679 22.2747 31.4646V26.3081C22.2747 25.5047 21.6235 24.8535 20.8202 24.8535ZM26.8188 26.3081C26.8188 25.5047 27.47 24.8535 28.2733 24.8535C29.0766 24.8535 29.7278 25.5047 29.7278 26.3081V31.4646C29.7278 32.2679 29.0766 32.9191 28.2733 32.9191C27.47 32.9191 26.8188 32.2679 26.8188 31.4646V26.3081Z" fill="#63666A"></path></g><defs><clipPath id="clip0_5587_57852"><rect width="40" height="40" fill="white" transform="translate(0.819824 0.669922)"></rect></clipPath></defs></svg> 