<?xml version="1.0" encoding="UTF-8"?> <svg xmlns="http://www.w3.org/2000/svg" width="38" height="38" viewBox="0 0 38 38" fill="none"><path fill-rule="evenodd" clip-rule="evenodd" d="M23.5084 29.4107L23.6934 29.4089L23.6921 29.275C24.0576 28.9987 24.4084 28.694 24.7416 28.3609L28.2771 24.8254C31.2809 21.8215 31.9742 17.3824 30.3574 13.7159C32.1231 13.7634 33.9042 13.1134 35.2517 11.7658L37.1037 9.91384C37.7081 9.30944 37.7081 8.32957 37.1037 7.72519L29.8642 0.485748C29.2599 -0.118622 28.2801 -0.118622 27.6756 0.485748L25.8237 2.3377C24.4477 3.71372 23.7989 5.54162 23.8774 7.34372C23.7419 7.28729 23.6056 7.23395 23.4682 7.18375L23.4667 7.16669L23.0946 7.05552C19.6392 5.94544 15.6994 6.76182 12.9565 9.50474L9.42087 13.0402C6.4951 15.966 5.76132 20.2537 7.21955 23.8627C5.4612 23.8214 3.6896 24.4717 2.34772 25.8135L0.495765 27.6655C-0.108615 28.2699 -0.108615 29.2497 0.495765 29.8542L7.7352 37.0935C8.33959 37.6979 9.31947 37.6979 9.92387 37.0935L11.7758 35.2415C13.089 33.9285 13.7398 32.2039 13.7283 30.4829C16.8999 31.8417 20.6312 31.4844 23.5084 29.4107ZM11.1887 14.808L14.1223 11.8743L14.1224 27.8995C13.5837 27.6102 13.0729 27.2502 12.6037 26.8195C12.2742 26.5172 11.8104 26.1272 11.4966 25.8135C11.1829 25.4997 11.1459 25.3944 10.8221 25.0212C8.26532 22.0749 8.38752 17.6092 11.1887 14.808ZM21.1782 27.9212C19.7669 28.6684 18.1672 28.9334 16.6224 28.7165V9.90874H16.5879C17.9556 9.20274 19.4951 8.94554 20.9879 9.13714L21.1782 27.9212ZM23.4959 9.92364C24.1564 10.2682 24.7762 10.7178 25.3309 11.2724L25.7757 11.7174L25.8237 11.7658L25.8721 11.8136L26.5094 12.4509C29.4382 15.3799 29.4382 20.1285 26.5094 23.0575L23.6581 25.9089L23.4959 9.92364ZM9.19107 26.9449C9.26607 27.025 9.34277 27.1042 9.42087 27.1824L10.5995 28.3609L10.6549 28.4159C11.595 30.013 11.3794 32.1025 10.0081 33.4739L8.82954 34.6524L2.93697 28.7599L4.11549 27.5812C5.49189 26.2049 7.59167 25.9927 9.19107 26.9449ZM33.4841 9.99804C31.8696 11.6125 29.2597 11.6251 27.6297 10.0358L27.5537 9.95974C25.9644 8.32974 25.9769 5.71995 27.5914 4.10547L28.7699 2.92695L34.6626 8.81954L33.4841 9.99804Z" fill="#63666A"></path></svg> 