<?xml version="1.0" encoding="UTF-8"?> <svg xmlns="http://www.w3.org/2000/svg" width="41" height="41" viewBox="0 0 41 41" fill="none"><path fill-rule="evenodd" clip-rule="evenodd" d="M21.7687 6.53256C22.2769 6.23862 22.6187 5.68923 22.6187 5.05999C22.6187 4.12111 21.8576 3.35999 20.9187 3.35999C19.9798 3.35999 19.2187 4.12111 19.2187 5.05999C19.2187 5.68923 19.5606 6.23862 20.0687 6.53256V16.11H18.3687V10.7826C18.8769 10.4886 19.2187 9.93923 19.2187 9.30999C19.2187 8.37111 18.4576 7.60999 17.5187 7.60999C16.5798 7.60999 15.8187 8.37111 15.8187 9.30999C15.8187 9.93923 16.1606 10.4886 16.6687 10.7826V16.11H15.5759C15.0841 16.11 14.6854 16.4906 14.6854 16.96V22.9101H13.8351C13.3657 22.9101 12.9851 23.2906 12.9851 23.7601V36.5101C12.9851 36.9795 13.3657 37.3601 13.8351 37.3601H28.0018C28.4712 37.3601 28.8518 36.9795 28.8518 36.5101V23.7601C28.8518 23.2906 28.4712 22.9101 28.0018 22.9101H27.1521V16.96C27.1521 16.4906 26.7534 16.11 26.2616 16.11H25.1687V10.7826C25.6769 10.4886 26.0187 9.93923 26.0187 9.30999C26.0187 8.37111 25.2576 7.60999 24.3187 7.60999C23.3798 7.60999 22.6187 8.37111 22.6187 9.30999C22.6187 9.93923 22.9606 10.4886 23.4687 10.7826V16.11H21.7687V6.53256ZM24.3187 17.81H20.9187H17.5187H16.4664V22.91H25.3712V17.81H24.3187ZM14.6851 24.6101V35.6601H27.1518V24.6101H14.6851Z" fill="#63666A"></path></svg> 