<?xml version="1.0" encoding="UTF-8"?> <svg xmlns="http://www.w3.org/2000/svg" width="41" height="41" viewBox="0 0 41 41" fill="none"><g clip-path="url(#clip0_5587_57697)"><path fill-rule="evenodd" clip-rule="evenodd" d="M17.1801 2.21997C17.9901 3.02997 18.4801 4.13997 18.4801 5.35997C18.4801 6.09997 17.8801 6.69997 17.1401 6.69997C16.4001 6.69997 15.8001 6.09997 15.8001 5.35997C15.8001 4.87997 15.6001 4.43997 15.2801 4.11997C14.9601 3.79997 14.5201 3.59997 14.0401 3.59997C13.5601 3.59997 13.1201 3.79997 12.8001 4.11997C12.4801 4.44997 12.2801 4.88997 12.2801 5.36997V7.45997C12.2801 7.90997 12.0601 8.30997 11.7201 8.55997V37.26C12.0101 37.29 12.2401 37.54 12.2401 37.84V40.34C12.2401 40.66 11.9801 40.92 11.6601 40.92H10.2201C9.90009 40.92 9.64009 40.66 9.64009 40.34V37.84C9.64009 37.54 9.86009 37.3 10.1501 37.26V8.55997C9.81009 8.30997 9.59009 7.91997 9.59009 7.45997V5.37997C9.59009 4.15997 10.0901 3.03997 10.8901 2.23997C11.7001 1.41997 12.8201 0.919973 14.0401 0.919973C15.2601 0.919973 16.3801 1.41997 17.1801 2.21997ZM32.0501 3.13997C31.5701 3.68997 30.8701 4.14997 30.0401 4.45997V27.62C30.0401 28.44 29.7401 29.18 29.2401 29.72C28.7301 30.29 28.0201 30.64 27.2301 30.64H27.1601V37.25C27.4501 37.28 27.6801 37.53 27.6801 37.83V40.33C27.6801 40.65 27.4201 40.91 27.1001 40.91H25.6501C25.3301 40.91 25.0701 40.65 25.0701 40.33V37.83C25.0701 37.53 25.2901 37.29 25.5801 37.25V30.64H25.5101C24.7301 30.64 24.0101 30.29 23.5001 29.72C23.0001 29.18 22.7001 28.43 22.7001 27.62V4.41997C21.8901 4.09997 21.2101 3.66997 20.7601 3.20997C20.2301 2.68997 20.2301 1.82997 20.7501 1.30997C21.2701 0.779973 22.1301 0.779973 22.6501 1.29997C22.8901 1.53997 23.3101 1.77997 23.8701 1.96997C24.3901 2.14997 25.0101 2.26997 25.6701 2.26997H27.0601C27.7701 2.26997 28.4201 2.15997 28.9601 1.96997C29.4401 1.79997 29.8101 1.58997 30.0001 1.36997C30.4901 0.809973 31.3401 0.749973 31.9001 1.22997C32.4701 1.73997 32.5301 2.57997 32.0501 3.13997ZM24.2801 4.85997V16.93H28.4601V4.85997C28.0101 4.92997 27.5401 4.95997 27.0601 4.95997H25.6701C25.1901 4.97997 24.7301 4.93997 24.2801 4.85997ZM28.4601 27.63V18.5H24.2801V27.63C24.2801 28.05 24.4301 28.41 24.6601 28.68C24.8801 28.92 25.1801 29.07 25.5101 29.07H27.2301C27.5601 29.07 27.8501 28.92 28.0801 28.68C28.3201 28.41 28.4601 28.04 28.4601 27.63Z" fill="#63666A"></path></g><defs><clipPath id="clip0_5587_57697"><rect width="40" height="40" fill="white" transform="translate(0.97998 0.919922)"></rect></clipPath></defs></svg> 