<?xml version="1.0" encoding="UTF-8"?> <svg xmlns="http://www.w3.org/2000/svg" width="41" height="41" viewBox="0 0 41 41" fill="none"><path fill-rule="evenodd" clip-rule="evenodd" d="M2.63106 11.4521C2.63106 6.60057 6.6804 2.72083 11.6089 2.72083C16.5374 2.72083 20.5868 6.60057 20.5868 11.4521V14.5446C20.5868 15.0968 20.139 15.5446 19.5868 15.5446C19.0345 15.5446 18.5868 15.0968 18.5868 14.5446V11.4521C18.5868 7.76387 15.4925 4.72083 11.6089 4.72083C7.72531 4.72083 4.63106 7.76387 4.63106 11.4521V19.4546H9.21555C9.77643 19.4546 10.2311 19.8952 10.2311 20.4388C10.2311 20.9823 9.77643 21.4229 9.21555 21.4229H4.63106V30.007C4.63106 33.6952 7.72531 36.7382 11.6089 36.7382C12.7076 36.7382 13.7437 36.4939 14.6646 36.0604C15.1643 35.8251 15.7601 36.0395 15.9953 36.5392C16.2305 37.0389 16.0162 37.6346 15.5165 37.8699C14.3333 38.4269 13.0067 38.7382 11.6089 38.7382C6.6804 38.7382 2.63106 34.8585 2.63106 30.007V20.6114C2.62082 20.5553 2.61548 20.4977 2.61548 20.4388C2.61548 20.3799 2.62082 20.3222 2.63106 20.2661V11.4521ZM38.6622 15.6255C38.5855 15.1394 38.1665 14.7814 37.6744 14.7814C36.7805 14.7814 34.3523 15.1206 31.7284 15.7886C29.1586 16.443 26.2 17.4612 24.2169 18.9248C23.2091 18.567 22.1796 18.2527 21.1752 17.9802C17.6301 17.0182 14.2574 16.5398 13.1002 16.5398C12.6081 16.5398 12.1892 16.8978 12.1124 17.3839C11.6945 20.0321 11.4963 24.1166 12.2864 27.7838C13.0681 31.412 14.9115 34.9879 18.8582 35.9228C21.7331 36.6039 24.3993 36.0574 26.5806 34.8616C27.1251 36.0011 27.6366 37.1869 28.1505 38.4321C28.3612 38.9426 28.9459 39.1857 29.4564 38.9749C29.9669 38.7642 30.21 38.1796 29.9992 37.6691C29.4377 36.3085 28.8732 35.0037 28.2614 33.7423C28.9151 33.2217 29.502 32.6426 30.0108 32.0289C30.2836 31.6999 30.5363 31.3583 30.7665 31.0073C31.5177 31.0294 32.2939 30.9548 33.085 30.7674C36.3744 29.9882 37.8861 27.0109 38.5202 24.0677C39.1627 21.0855 39.0011 17.7725 38.6622 15.6255ZM26.5119 19.8417L26.5021 19.8372C28.1049 18.9495 30.1999 18.2416 32.2219 17.7268C34.084 17.2527 35.7743 16.9688 36.8087 16.8487C37.0258 18.7885 37.0581 21.3579 36.5651 23.6465C35.9816 26.3547 34.757 28.316 32.624 28.8213C32.3473 28.8868 32.0742 28.9345 31.8051 28.9657C32.0139 28.3989 32.161 27.8245 32.2379 27.254C32.4624 25.5893 32.0887 23.9067 30.8423 22.6414C29.736 21.5182 28.1828 20.5957 26.5119 19.8417ZM27.3253 31.9224C27.7439 31.56 28.1275 31.1669 28.4711 30.7525C29.4755 29.541 30.0925 28.1975 30.2558 26.9867C30.4173 25.7895 30.136 24.7744 29.4174 24.0448C28.5588 23.1731 27.2581 22.3727 25.6892 21.6646C24.1322 20.9619 22.3729 20.3775 20.6514 19.9104C17.9159 19.1681 15.3636 18.7447 13.9628 18.5985C13.6665 21.053 13.6014 24.3915 14.2415 27.3626C14.9726 30.7558 16.5289 33.3157 19.3192 33.9767C21.6689 34.5333 23.8674 34.0837 25.6768 33.0777C23.8394 29.6695 21.4976 26.6435 17.577 23.6039C17.1405 23.2655 17.061 22.6374 17.3994 22.2009C17.7378 21.7644 18.3659 21.6849 18.8024 22.0233C22.9153 25.2119 25.4051 28.4135 27.3253 31.9224Z" fill="#63666A"></path></svg> 