<?xml version="1.0" encoding="UTF-8"?> <svg xmlns="http://www.w3.org/2000/svg" width="41" height="41" viewBox="0 0 41 41" fill="none"><path fill-rule="evenodd" clip-rule="evenodd" d="M17.074 2.75879L18.97 3.94382C22.4423 6.11397 24.6183 10.2127 25.0963 14.3015C25.3006 13.8349 25.4841 13.2037 25.6356 12.297L25.6416 12.262L26.4593 8.64769L31.4406 13.1309L33.5998 15.6826C41.1168 24.5663 35.5956 38.2342 24.0251 39.411C23.1818 39.4968 22.4445 38.7227 22.669 37.839L23.1628 35.8948C23.2403 35.5895 23.3308 35.2905 23.413 35.0202L23.4208 34.9943C23.5023 34.7257 23.5755 34.485 23.638 34.2463C23.767 33.754 23.8245 33.3618 23.7941 33.0073C23.7763 32.8002 23.7356 32.5805 23.6721 32.3487C23.4046 31.3732 22.9901 30.4292 22.5273 29.39L22.4888 29.3035C22.0916 28.4118 21.6611 27.4453 21.3405 26.4233L19.2108 28.0207C16.2094 30.2718 16.0288 34.705 18.8241 37.1935C19.7121 37.9842 19.0983 39.6718 17.7193 39.3793L15.0106 38.8048C4.31496 36.5362 1.26721 22.7285 10.0141 16.1683L11.4891 15.0621C12.4898 14.3115 13.3917 13.4374 14.1731 12.4606C15.3805 10.9514 16.1615 9.14622 16.4348 7.23287L17.074 2.75879ZM18.9803 7.0924L18.9096 7.58644C18.5731 9.94195 17.6116 12.1643 16.1253 14.0223C15.2122 15.1637 14.1584 16.1851 12.9891 17.0621L11.5141 18.1683C4.60619 23.3492 6.85258 34.1552 15.0903 36.2567C13.5168 32.7917 14.424 28.4858 17.7108 26.0208L22.7426 22.2467L23.6453 25.4063C23.9233 26.3792 24.3418 27.3188 24.8038 28.3565L24.8111 28.373C25.2633 29.3887 25.7578 30.501 26.0831 31.6878C26.1808 32.0437 26.2525 32.414 26.285 32.7942C26.3508 33.5635 26.2146 34.2757 26.0565 34.8798C25.9813 35.1665 25.8955 35.4493 25.8176 35.7055L25.8051 35.7467C25.7213 36.0223 25.6473 36.2688 25.586 36.5103L25.5605 36.6102C33.8866 34.508 37.5076 24.1713 31.6913 17.2974L29.642 14.8755L27.9765 13.3766C27.7188 14.6077 27.3561 15.5494 26.823 16.3265C26.197 17.2385 25.4066 17.815 24.5976 18.3557C23.7505 18.9218 22.5128 18.2913 22.6341 17.167C23.0223 13.5658 21.5846 9.51565 18.9803 7.0924Z" fill="#63666A"></path></svg> 