<?xml version="1.0" encoding="UTF-8"?> <svg xmlns="http://www.w3.org/2000/svg" width="50" height="50" viewBox="0 0 50 50" fill="none"> <rect x="3" y="5" width="44" height="32" rx="2" stroke="#DADADA" stroke-width="1.5"></rect> <rect x="3" y="8" width="44" height="26" rx="2" stroke="#DADADA" stroke-width="1.5"></rect> <rect width="16" height="5" rx="1" transform="matrix(1 0 0 -1 17 42)" stroke="#DADADA" stroke-width="1.5"></rect> <rect x="10" y="42" width="30" height="4" rx="1" stroke="#DADADA" stroke-width="1.5"></rect> <circle cx="25" cy="21" r="10.75" stroke="#DADADA" stroke-width="1.5"></circle> <path d="M22.8004 15.0825C21.6357 14.4836 20.25 15.3292 20.25 16.6388V25.3612C20.25 26.6708 21.6357 27.5164 22.8004 26.9175L30.8004 22.8032C31.3835 22.5033 31.75 21.9026 31.75 21.2469V20.7531C31.75 20.0974 31.3835 19.4967 30.8004 19.1968L22.8004 15.0825Z" fill="#F0EE0E" stroke="#484848" stroke-width="1.5"></path> </svg> 